STARTFONT 2.1
COMMENT
COMMENT Converted from OpenType font "JF-Dot-K12B.ttf" by "otf2bdf 3.0".
COMMENT
FONT -FreeType-JF Dot K12-Bold-R-Normal--12-90-100-100-P-130-ISO10646-1
SIZE 9 100 100
FONTBOUNDINGBOX 13 13 0 -2
STARTPROPERTIES 19
FOUNDRY "FreeType"
FAMILY_NAME "JF Dot K12"
WEIGHT_NAME "Bold"
SLANT "R"
SETWIDTH_NAME "Normal"
ADD_STYLE_NAME ""
PIXEL_SIZE 12
POINT_SIZE 90
RESOLUTION_X 100
RESOLUTION_Y 100
SPACING "P"
AVERAGE_WIDTH 130
CHARSET_REGISTRY "ISO10646"
CHARSET_ENCODING "1"
FONT_ASCENT 11
FONT_DESCENT 1
COPYRIGHT "-FreeType-JF Dot K12-Bold-R-Normal--12-90-100-100-P-130-ISO10646-1"
_OTF_FONTFILE "JF-Dot-K12B.ttf"
_OTF_PSNAME "JF-Dot-K12-Bold"
ENDPROPERTIES
CHARS 11077
STARTCHAR 0020
ENCODING 32
SWIDTH 560 0
DWIDTH 7 0
BBX 0 0 0 0
BITMAP
ENDCHAR
STARTCHAR 0021
ENCODING 33
SWIDTH 560 0
DWIDTH 7 0
BBX 2 10 2 0
BITMAP
C0
C0
C0
C0
C0
C0
C0
C0
00
C0
ENDCHAR
STARTCHAR 0022
ENCODING 34
SWIDTH 560 0
DWIDTH 7 0
BBX 4 3 1 7
BITMAP
D0
D0
D0
ENDCHAR
STARTCHAR 0023
ENCODING 35
SWIDTH 560 0
DWIDTH 7 0
BBX 7 10 0 0
BITMAP
68
68
FE
68
68
68
FE
E8
68
68
ENDCHAR
STARTCHAR 0024
ENCODING 36
SWIDTH 560 0
DWIDTH 7 0
BBX 7 11 0 -1
BITMAP
30
78
D6
D6
70
38
36
56
D6
78
30
ENDCHAR
STARTCHAR 0025
ENCODING 37
SWIDTH 560 0
DWIDTH 7 0
BBX 7 11 0 -1
BITMAP
6E
D6
68
18
30
30
68
76
76
D8
C0
ENDCHAR
STARTCHAR 0026
ENCODING 38
SWIDTH 560 0
DWIDTH 7 0
BBX 7 10 0 0
BITMAP
70
D8
D8
70
60
D6
D8
D8
D8
76
ENDCHAR
STARTCHAR 0027
ENCODING 39
SWIDTH 560 0
DWIDTH 7 0
BBX 3 3 2 7
BITMAP
E0
60
C0
ENDCHAR
STARTCHAR 0028
ENCODING 40
SWIDTH 560 0
DWIDTH 7 0
BBX 5 11 2 -1
BITMAP
38
60
60
C0
C0
C0
C0
E0
60
60
38
ENDCHAR
STARTCHAR 0029
ENCODING 41
SWIDTH 560 0
DWIDTH 7 0
BBX 4 11 0 -1
BITMAP
C0
60
60
30
30
30
30
20
60
60
C0
ENDCHAR
STARTCHAR 002A
ENCODING 42
SWIDTH 560 0
DWIDTH 7 0
BBX 7 6 0 2
BITMAP
30
D6
78
D6
30
30
ENDCHAR
STARTCHAR 002B
ENCODING 43
SWIDTH 560 0
DWIDTH 7 0
BBX 7 6 0 2
BITMAP
30
30
FE
30
30
30
ENDCHAR
STARTCHAR 002C
ENCODING 44
SWIDTH 560 0
DWIDTH 7 0
BBX 3 4 1 -1
BITMAP
60
60
60
C0
ENDCHAR
STARTCHAR 002D
ENCODING 45
SWIDTH 560 0
DWIDTH 7 0
BBX 7 1 0 5
BITMAP
FE
ENDCHAR
STARTCHAR 002E
ENCODING 46
SWIDTH 560 0
DWIDTH 7 0
BBX 2 2 2 1
BITMAP
C0
C0
ENDCHAR
STARTCHAR 002F
ENCODING 47
SWIDTH 560 0
DWIDTH 7 0
BBX 7 11 0 -1
BITMAP
0E
0E
18
18
30
30
60
60
60
C0
C0
ENDCHAR
STARTCHAR 0030
ENCODING 48
SWIDTH 560 0
DWIDTH 7 0
BBX 6 10 1 0
BITMAP
70
DC
DC
DC
DC
DC
DC
DC
DC
70
ENDCHAR
STARTCHAR 0031
ENCODING 49
SWIDTH 560 0
DWIDTH 7 0
BBX 4 10 0 0
BITMAP
30
F0
30
30
30
30
30
30
30
30
ENDCHAR
STARTCHAR 0032
ENCODING 50
SWIDTH 560 0
DWIDTH 7 0
BBX 7 10 0 0
BITMAP
78
CE
CE
0E
18
30
60
40
C0
FE
ENDCHAR
STARTCHAR 0033
ENCODING 51
SWIDTH 560 0
DWIDTH 7 0
BBX 7 10 0 0
BITMAP
78
CE
0E
38
0E
0E
CE
CE
CE
78
ENDCHAR
STARTCHAR 0034
ENCODING 52
SWIDTH 560 0
DWIDTH 7 0
BBX 7 10 0 0
BITMAP
18
38
38
68
68
D8
FE
F8
18
18
ENDCHAR
STARTCHAR 0035
ENCODING 53
SWIDTH 560 0
DWIDTH 7 0
BBX 7 10 0 0
BITMAP
F8
C0
C0
F8
CE
0E
0E
CE
CE
78
ENDCHAR
STARTCHAR 0036
ENCODING 54
SWIDTH 560 0
DWIDTH 7 0
BBX 7 10 0 0
BITMAP
38
60
C0
F8
CE
CE
CE
CE
CE
78
ENDCHAR
STARTCHAR 0037
ENCODING 55
SWIDTH 560 0
DWIDTH 7 0
BBX 7 10 0 0
BITMAP
FE
0E
18
18
18
30
30
30
30
30
ENDCHAR
STARTCHAR 0038
ENCODING 56
SWIDTH 560 0
DWIDTH 7 0
BBX 7 10 0 0
BITMAP
78
CE
CE
78
CE
CE
CE
CE
CE
78
ENDCHAR
STARTCHAR 0039
ENCODING 57
SWIDTH 560 0
DWIDTH 7 0
BBX 7 10 0 0
BITMAP
78
CE
CE
CE
7E
0E
0E
08
18
70
ENDCHAR
STARTCHAR 003A
ENCODING 58
SWIDTH 560 0
DWIDTH 7 0
BBX 2 5 2 2
BITMAP
C0
00
00
C0
C0
ENDCHAR
STARTCHAR 003B
ENCODING 59
SWIDTH 560 0
DWIDTH 7 0
BBX 3 7 1 1
BITMAP
60
00
00
60
60
40
C0
ENDCHAR
STARTCHAR 003C
ENCODING 60
SWIDTH 560 0
DWIDTH 7 0
BBX 6 8 1 1
BITMAP
1C
30
60
C0
60
30
3C
1C
ENDCHAR
STARTCHAR 003D
ENCODING 61
SWIDTH 560 0
DWIDTH 7 0
BBX 7 3 0 4
BITMAP
FE
00
FE
ENDCHAR
STARTCHAR 003E
ENCODING 62
SWIDTH 560 0
DWIDTH 7 0
BBX 6 8 1 1
BITMAP
C0
60
30
1C
30
60
40
C0
ENDCHAR
STARTCHAR 003F
ENCODING 63
SWIDTH 560 0
DWIDTH 7 0
BBX 7 10 0 0
BITMAP
78
CE
CE
18
18
30
30
30
00
30
ENDCHAR
STARTCHAR 0040
ENCODING 64
SWIDTH 560 0
DWIDTH 7 0
BBX 7 10 0 0
BITMAP
78
CE
DE
D6
D6
D6
D8
DE
CE
78
ENDCHAR
STARTCHAR 0041
ENCODING 65
SWIDTH 560 0
DWIDTH 7 0
BBX 7 10 0 0
BITMAP
30
30
68
68
68
FE
CE
CE
CE
CE
ENDCHAR
STARTCHAR 0042
ENCODING 66
SWIDTH 560 0
DWIDTH 7 0
BBX 7 10 0 0
BITMAP
F8
CE
CE
D8
F8
CE
CE
CE
CE
F8
ENDCHAR
STARTCHAR 0043
ENCODING 67
SWIDTH 560 0
DWIDTH 7 0
BBX 7 10 0 0
BITMAP
38
6E
CE
C0
C0
C0
CE
EE
6E
38
ENDCHAR
STARTCHAR 0044
ENCODING 68
SWIDTH 560 0
DWIDTH 7 0
BBX 7 10 0 0
BITMAP
F0
D8
CE
CE
CE
CE
CE
C8
D8
F0
ENDCHAR
STARTCHAR 0045
ENCODING 69
SWIDTH 560 0
DWIDTH 7 0
BBX 7 10 0 0
BITMAP
FE
C0
C0
C0
F8
C0
C0
C0
C0
FE
ENDCHAR
STARTCHAR 0046
ENCODING 70
SWIDTH 560 0
DWIDTH 7 0
BBX 7 10 0 0
BITMAP
FE
C0
C0
C0
F8
C0
C0
C0
C0
C0
ENDCHAR
STARTCHAR 0047
ENCODING 71
SWIDTH 560 0
DWIDTH 7 0
BBX 7 10 0 0
BITMAP
38
6E
C0
C0
DE
CE
CE
EE
6E
3E
ENDCHAR
STARTCHAR 0048
ENCODING 72
SWIDTH 560 0
DWIDTH 7 0
BBX 7 10 0 0
BITMAP
CE
CE
CE
CE
FE
CE
CE
CE
CE
CE
ENDCHAR
STARTCHAR 0049
ENCODING 73
SWIDTH 560 0
DWIDTH 7 0
BBX 4 10 1 0
BITMAP
F0
60
60
60
60
60
60
60
60
F0
ENDCHAR
STARTCHAR 004A
ENCODING 74
SWIDTH 560 0
DWIDTH 7 0
BBX 5 10 0 0
BITMAP
18
18
18
18
18
18
D8
D8
D8
70
ENDCHAR
STARTCHAR 004B
ENCODING 75
SWIDTH 560 0
DWIDTH 7 0
BBX 7 10 0 0
BITMAP
CE
D8
D0
E0
D0
D0
D8
D8
D8
CE
ENDCHAR
STARTCHAR 004C
ENCODING 76
SWIDTH 560 0
DWIDTH 7 0
BBX 7 10 0 0
BITMAP
C0
C0
C0
C0
C0
C0
C0
C0
C0
FE
ENDCHAR
STARTCHAR 004D
ENCODING 77
SWIDTH 560 0
DWIDTH 7 0
BBX 7 10 0 0
BITMAP
CE
CE
EE
EE
EE
D6
D6
D6
D6
CE
ENDCHAR
STARTCHAR 004E
ENCODING 78
SWIDTH 560 0
DWIDTH 7 0
BBX 7 10 0 0
BITMAP
CE
EE
EE
D6
D6
DE
DE
DE
CE
CE
ENDCHAR
STARTCHAR 004F
ENCODING 79
SWIDTH 560 0
DWIDTH 7 0
BBX 7 10 0 0
BITMAP
78
CE
CE
CE
CE
CE
CE
CE
CE
78
ENDCHAR
STARTCHAR 0050
ENCODING 80
SWIDTH 560 0
DWIDTH 7 0
BBX 7 10 0 0
BITMAP
F8
CE
CE
CE
F8
C0
C0
C0
C0
C0
ENDCHAR
STARTCHAR 0051
ENCODING 81
SWIDTH 560 0
DWIDTH 7 0
BBX 7 10 0 0
BITMAP
78
CE
CE
CE
CE
CE
D6
DE
D8
76
ENDCHAR
STARTCHAR 0052
ENCODING 82
SWIDTH 560 0
DWIDTH 7 0
BBX 7 10 0 0
BITMAP
F8
CE
CE
CE
F8
D8
CE
CE
CE
CE
ENDCHAR
STARTCHAR 0053
ENCODING 83
SWIDTH 560 0
DWIDTH 7 0
BBX 7 10 0 0
BITMAP
78
CE
C0
70
18
0E
CE
CE
CE
78
ENDCHAR
STARTCHAR 0054
ENCODING 84
SWIDTH 560 0
DWIDTH 7 0
BBX 7 10 0 0
BITMAP
FE
30
30
30
30
30
30
30
30
30
ENDCHAR
STARTCHAR 0055
ENCODING 85
SWIDTH 560 0
DWIDTH 7 0
BBX 7 10 0 0
BITMAP
CE
CE
CE
CE
CE
CE
CE
CE
CE
78
ENDCHAR
STARTCHAR 0056
ENCODING 86
SWIDTH 560 0
DWIDTH 7 0
BBX 7 10 0 0
BITMAP
CE
CE
CE
CE
68
68
68
78
30
30
ENDCHAR
STARTCHAR 0057
ENCODING 87
SWIDTH 560 0
DWIDTH 7 0
BBX 7 10 0 0
BITMAP
D6
D6
D6
D6
D6
D6
68
68
68
68
ENDCHAR
STARTCHAR 0058
ENCODING 88
SWIDTH 560 0
DWIDTH 7 0
BBX 7 10 0 0
BITMAP
CE
CE
68
68
30
68
68
4E
CE
CE
ENDCHAR
STARTCHAR 0059
ENCODING 89
SWIDTH 560 0
DWIDTH 7 0
BBX 7 10 0 0
BITMAP
CE
CE
68
68
30
30
30
30
30
30
ENDCHAR
STARTCHAR 005A
ENCODING 90
SWIDTH 560 0
DWIDTH 7 0
BBX 7 10 0 0
BITMAP
FE
0E
18
18
30
60
60
40
C0
FE
ENDCHAR
STARTCHAR 005B
ENCODING 91
SWIDTH 560 0
DWIDTH 7 0
BBX 5 12 2 -2
BITMAP
F8
C0
C0
C0
C0
C0
C0
C0
C0
C0
C0
F8
ENDCHAR
STARTCHAR 005C
ENCODING 92
SWIDTH 560 0
DWIDTH 7 0
BBX 7 10 0 0
BITMAP
CE
CE
68
FE
30
FE
30
30
30
30
ENDCHAR
STARTCHAR 005D
ENCODING 93
SWIDTH 560 0
DWIDTH 7 0
BBX 4 12 1 -2
BITMAP
F0
30
30
30
30
30
30
30
30
30
30
F0
ENDCHAR
STARTCHAR 005E
ENCODING 94
SWIDTH 560 0
DWIDTH 7 0
BBX 7 3 0 7
BITMAP
30
68
CE
ENDCHAR
STARTCHAR 005F
ENCODING 95
SWIDTH 560 0
DWIDTH 7 0
BBX 7 1 0 0
BITMAP
FE
ENDCHAR
STARTCHAR 0060
ENCODING 96
SWIDTH 560 0
DWIDTH 7 0
BBX 3 3 2 7
BITMAP
E0
C0
60
ENDCHAR
STARTCHAR 0061
ENCODING 97
SWIDTH 560 0
DWIDTH 7 0
BBX 7 8 0 0
BITMAP
78
CE
1E
76
CE
CE
DE
76
ENDCHAR
STARTCHAR 0062
ENCODING 98
SWIDTH 560 0
DWIDTH 7 0
BBX 7 10 0 0
BITMAP
C0
C0
D8
EE
CE
CE
CE
EE
EE
D8
ENDCHAR
STARTCHAR 0063
ENCODING 99
SWIDTH 560 0
DWIDTH 7 0
BBX 7 8 0 0
BITMAP
78
CE
C0
C0
C0
CE
CE
78
ENDCHAR
STARTCHAR 0064
ENCODING 100
SWIDTH 560 0
DWIDTH 7 0
BBX 7 10 0 0
BITMAP
0E
0E
76
DE
CE
CE
CE
CE
DE
76
ENDCHAR
STARTCHAR 0065
ENCODING 101
SWIDTH 560 0
DWIDTH 7 0
BBX 7 8 0 0
BITMAP
78
CE
CE
FE
C0
CE
CE
78
ENDCHAR
STARTCHAR 0066
ENCODING 102
SWIDTH 560 0
DWIDTH 7 0
BBX 6 10 1 0
BITMAP
3C
60
F0
60
60
60
60
60
60
60
ENDCHAR
STARTCHAR 0067
ENCODING 103
SWIDTH 560 0
DWIDTH 7 0
BBX 7 10 0 -2
BITMAP
7E
CE
CE
CE
DE
D6
76
0E
CE
78
ENDCHAR
STARTCHAR 0068
ENCODING 104
SWIDTH 560 0
DWIDTH 7 0
BBX 7 10 0 0
BITMAP
C0
C0
D8
EE
CE
CE
CE
CE
CE
CE
ENDCHAR
STARTCHAR 0069
ENCODING 105
SWIDTH 560 0
DWIDTH 7 0
BBX 2 10 2 0
BITMAP
C0
00
C0
C0
C0
C0
C0
C0
C0
C0
ENDCHAR
STARTCHAR 006A
ENCODING 106
SWIDTH 560 0
DWIDTH 7 0
BBX 3 12 1 -2
BITMAP
60
00
60
60
60
60
60
60
60
60
60
C0
ENDCHAR
STARTCHAR 006B
ENCODING 107
SWIDTH 560 0
DWIDTH 7 0
BBX 7 10 0 0
BITMAP
C0
C0
C0
D8
D0
E0
D0
D8
D8
CE
ENDCHAR
STARTCHAR 006C
ENCODING 108
SWIDTH 560 0
DWIDTH 7 0
BBX 2 10 2 0
BITMAP
C0
C0
C0
C0
C0
C0
C0
C0
C0
C0
ENDCHAR
STARTCHAR 006D
ENCODING 109
SWIDTH 560 0
DWIDTH 7 0
BBX 7 8 0 0
BITMAP
F8
D6
D6
D6
D6
D6
D6
D6
ENDCHAR
STARTCHAR 006E
ENCODING 110
SWIDTH 560 0
DWIDTH 7 0
BBX 7 8 0 0
BITMAP
D8
EE
CE
CE
CE
CE
CE
CE
ENDCHAR
STARTCHAR 006F
ENCODING 111
SWIDTH 560 0
DWIDTH 7 0
BBX 7 8 0 0
BITMAP
78
CE
CE
CE
CE
CE
CE
78
ENDCHAR
STARTCHAR 0070
ENCODING 112
SWIDTH 560 0
DWIDTH 7 0
BBX 7 10 0 -2
BITMAP
D8
EE
CE
CE
CE
EE
EE
D8
C0
C0
ENDCHAR
STARTCHAR 0071
ENCODING 113
SWIDTH 560 0
DWIDTH 7 0
BBX 7 10 0 -2
BITMAP
76
DE
CE
CE
CE
CE
DE
76
0E
0E
ENDCHAR
STARTCHAR 0072
ENCODING 114
SWIDTH 560 0
DWIDTH 7 0
BBX 6 8 1 0
BITMAP
DC
E0
C0
C0
C0
C0
C0
C0
ENDCHAR
STARTCHAR 0073
ENCODING 115
SWIDTH 560 0
DWIDTH 7 0
BBX 7 8 0 0
BITMAP
78
CE
60
38
0E
CE
CE
78
ENDCHAR
STARTCHAR 0074
ENCODING 116
SWIDTH 560 0
DWIDTH 7 0
BBX 5 10 0 0
BITMAP
60
60
F8
60
60
60
60
60
60
70
ENDCHAR
STARTCHAR 0075
ENCODING 117
SWIDTH 560 0
DWIDTH 7 0
BBX 7 8 0 0
BITMAP
CE
CE
CE
CE
CE
CE
DE
76
ENDCHAR
STARTCHAR 0076
ENCODING 118
SWIDTH 560 0
DWIDTH 7 0
BBX 7 8 0 0
BITMAP
CE
CE
CE
68
68
78
30
30
ENDCHAR
STARTCHAR 0077
ENCODING 119
SWIDTH 560 0
DWIDTH 7 0
BBX 7 8 0 0
BITMAP
CE
D6
D6
D6
D6
D6
D6
68
ENDCHAR
STARTCHAR 0078
ENCODING 120
SWIDTH 560 0
DWIDTH 7 0
BBX 7 8 0 0
BITMAP
CE
68
68
30
68
68
68
CE
ENDCHAR
STARTCHAR 0079
ENCODING 121
SWIDTH 560 0
DWIDTH 7 0
BBX 7 10 0 -2
BITMAP
CE
CE
6E
68
68
78
30
30
60
C0
ENDCHAR
STARTCHAR 007A
ENCODING 122
SWIDTH 560 0
DWIDTH 7 0
BBX 7 8 0 0
BITMAP
FE
18
18
30
60
60
60
FE
ENDCHAR
STARTCHAR 007B
ENCODING 123
SWIDTH 560 0
DWIDTH 7 0
BBX 5 12 2 -2
BITMAP
38
60
60
60
60
C0
60
60
60
60
60
38
ENDCHAR
STARTCHAR 007C
ENCODING 124
SWIDTH 560 0
DWIDTH 7 0
BBX 2 12 2 -2
BITMAP
C0
C0
C0
C0
C0
C0
C0
C0
C0
C0
C0
C0
ENDCHAR
STARTCHAR 007D
ENCODING 125
SWIDTH 560 0
DWIDTH 7 0
BBX 4 12 1 -2
BITMAP
C0
60
60
60
60
30
60
60
60
60
60
C0
ENDCHAR
STARTCHAR 007E
ENCODING 126
SWIDTH 560 0
DWIDTH 7 0
BBX 7 1 0 10
BITMAP
FE
ENDCHAR
STARTCHAR 00A0
ENCODING 160
SWIDTH 1040 0
DWIDTH 13 0
BBX 12 1 0 -2
BITMAP
AB50
ENDCHAR
STARTCHAR 00A1
ENCODING 161
SWIDTH 1040 0
DWIDTH 13 0
BBX 4 12 5 -2
BITMAP
F0
F0
00
E0
E0
E0
F0
F0
F0
F0
F0
F0
ENDCHAR
STARTCHAR 00A2
ENCODING 162
SWIDTH 560 0
DWIDTH 7 0
BBX 7 10 0 -1
BITMAP
18
78
DE
D0
D0
D0
FE
EE
78
60
ENDCHAR
STARTCHAR 00A3
ENCODING 163
SWIDTH 560 0
DWIDTH 7 0
BBX 7 11 0 -1
BITMAP
18
36
30
7E
30
30
30
36
76
D6
68
ENDCHAR
STARTCHAR 00A4
ENCODING 164
SWIDTH 1040 0
DWIDTH 13 0
BBX 11 10 1 -1
BITMAP
C060
6F40
3180
60C0
60C0
60C0
7080
3180
6F40
C060
ENDCHAR
STARTCHAR 00A5
ENCODING 165
SWIDTH 560 0
DWIDTH 7 0
BBX 7 11 0 -1
BITMAP
C0
C0
60
60
30
30
18
18
18
0E
0E
ENDCHAR
STARTCHAR 00A6
ENCODING 166
SWIDTH 1040 0
DWIDTH 13 0
BBX 3 10 5 -1
BITMAP
E0
E0
E0
E0
00
E0
E0
E0
E0
E0
ENDCHAR
STARTCHAR 00A7
ENCODING 167
SWIDTH 1040 0
DWIDTH 13 0
BBX 9 12 2 -2
BITMAP
3E00
6F00
E300
7C00
EF00
E380
7B80
7B00
1F00
6380
7B00
3E00
ENDCHAR
STARTCHAR 00A8
ENCODING 168
SWIDTH 1040 0
DWIDTH 13 0
BBX 7 2 3 8
BITMAP
F6
F6
ENDCHAR
STARTCHAR 00A9
ENCODING 169
SWIDTH 1040 0
DWIDTH 13 0
BBX 13 12 0 -2
BITMAP
1FC0
3060
6FB0
D8E8
D868
D818
D868
D848
D8D8
6FB0
3060
1FC0
ENDCHAR
STARTCHAR 00AA
ENCODING 170
SWIDTH 1040 0
DWIDTH 13 0
BBX 7 5 3 5
BITMAP
7C
DE
7E
DE
7E
ENDCHAR
STARTCHAR 00AB
ENCODING 171
SWIDTH 1040 0
DWIDTH 13 0
BBX 8 6 4 0
BITMAP
3B
76
F6
F6
76
3B
ENDCHAR
STARTCHAR 00AC
ENCODING 172
SWIDTH 560 0
DWIDTH 7 0
BBX 7 4 0 2
BITMAP
FE
0E
0E
0E
ENDCHAR
STARTCHAR 00AD
ENCODING 173
SWIDTH 1040 0
DWIDTH 13 0
BBX 12 7 0 -2
BITMAP
7F00
0000
0000
0000
0000
0000
AB50
ENDCHAR
STARTCHAR 00AE
ENCODING 174
SWIDTH 1040 0
DWIDTH 13 0
BBX 13 12 0 -2
BITMAP
1FC0
3060
7FB0
DED8
DED8
DF98
DED8
DED8
DED8
7F70
3060
1FC0
ENDCHAR
STARTCHAR 00AF
ENCODING 175
SWIDTH 1040 0
DWIDTH 13 0
BBX 7 1 3 8
BITMAP
FE
ENDCHAR
STARTCHAR 00B0
ENCODING 176
SWIDTH 1040 0
DWIDTH 13 0
BBX 5 4 0 6
BITMAP
70
D8
D8
70
ENDCHAR
STARTCHAR 00B1
ENCODING 177
SWIDTH 1040 0
DWIDTH 13 0
BBX 11 10 1 -1
BITMAP
0E00
0E00
0E00
FFE0
0E00
0E00
0E00
0E00
0000
FFE0
ENDCHAR
STARTCHAR 00B2
ENCODING 178
SWIDTH 1040 0
DWIDTH 13 0
BBX 7 5 3 5
BITMAP
7C
DE
7C
F0
FE
ENDCHAR
STARTCHAR 00B3
ENCODING 179
SWIDTH 1040 0
DWIDTH 13 0
BBX 7 5 3 5
BITMAP
FC
1E
FC
1E
FC
ENDCHAR
STARTCHAR 00B4
ENCODING 180
SWIDTH 1040 0
DWIDTH 13 0
BBX 5 3 4 7
BITMAP
78
70
E0
ENDCHAR
STARTCHAR 00B5
ENCODING 181
SWIDTH 560 0
DWIDTH 7 0
BBX 7 9 0 -2
BITMAP
6E
6E
6E
6E
68
78
60
60
C0
ENDCHAR
STARTCHAR 00B6
ENCODING 182
SWIDTH 1040 0
DWIDTH 13 0
BBX 8 12 2 -2
BITMAP
3F
7D
FD
FD
FD
7D
1D
1D
1D
1D
1D
1D
ENDCHAR
STARTCHAR 00B7
ENCODING 183
SWIDTH 1040 0
DWIDTH 13 0
BBX 5 3 4 4
BITMAP
70
F8
70
ENDCHAR
STARTCHAR 00B8
ENCODING 184
SWIDTH 1040 0
DWIDTH 13 0
BBX 5 5 5 -2
BITMAP
E0
E0
F0
18
F0
ENDCHAR
STARTCHAR 00B9
ENCODING 185
SWIDTH 1040 0
DWIDTH 13 0
BBX 8 5 2 5
BITMAP
1C
FC
3C
3C
FF
ENDCHAR
STARTCHAR 00BA
ENCODING 186
SWIDTH 1040 0
DWIDTH 13 0
BBX 8 5 2 5
BITMAP
3C
EF
EF
EF
3C
ENDCHAR
STARTCHAR 00BB
ENCODING 187
SWIDTH 1040 0
DWIDTH 13 0
BBX 8 6 4 0
BITMAP
EC
76
7B
72
76
EC
ENDCHAR
STARTCHAR 00BC
ENCODING 188
SWIDTH 1040 0
DWIDTH 13 0
BBX 11 12 1 -2
BITMAP
3000
F000
30C0
3180
3700
0E00
1CC0
10C0
31C0
6740
CFE0
00C0
ENDCHAR
STARTCHAR 00BD
ENCODING 189
SWIDTH 1040 0
DWIDTH 13 0
BBX 11 12 1 -2
BITMAP
3000
F000
30C0
3180
3700
0E00
1DC0
11E0
3060
61C0
C700
07E0
ENDCHAR
STARTCHAR 00BE
ENCODING 190
SWIDTH 1040 0
DWIDTH 13 0
BBX 11 12 1 -2
BITMAP
F000
1C00
F0C0
1D80
F700
0E00
1CC0
10C0
31C0
6740
CFE0
00C0
ENDCHAR
STARTCHAR 00BF
ENCODING 191
SWIDTH 1040 0
DWIDTH 13 0
BBX 9 12 2 -2
BITMAP
3C00
3C00
0000
1C00
1C00
3C00
6000
6380
E380
E380
6300
3E00
ENDCHAR
STARTCHAR 00C0
ENCODING 192
SWIDTH 1040 0
DWIDTH 13 0
BBX 12 11 0 -1
BITMAP
0E00
0700
0380
0F80
0EC0
1BC0
3FC0
30E0
30E0
70E0
F8F0
ENDCHAR
STARTCHAR 00C1
ENCODING 193
SWIDTH 1040 0
DWIDTH 13 0
BBX 12 11 0 -1
BITMAP
0380
0700
0E00
0F80
0EC0
1BC0
3FC0
30E0
30E0
70E0
F8F0
ENDCHAR
STARTCHAR 00C2
ENCODING 194
SWIDTH 1040 0
DWIDTH 13 0
BBX 12 11 0 -1
BITMAP
0700
0E80
18C0
0F80
0EC0
1BC0
3FC0
30E0
30E0
70E0
F8F0
ENDCHAR
STARTCHAR 00C3
ENCODING 195
SWIDTH 1040 0
DWIDTH 13 0
BBX 12 11 0 -1
BITMAP
1EC0
3780
0000
0F80
0EC0
1BC0
3FC0
30E0
30E0
70E0
F8F0
ENDCHAR
STARTCHAR 00C4
ENCODING 196
SWIDTH 1040 0
DWIDTH 13 0
BBX 12 11 0 -1
BITMAP
1EC0
1EC0
0000
0F80
0EC0
1BC0
3FC0
30E0
30E0
70E0
F8F0
ENDCHAR
STARTCHAR 00C5
ENCODING 197
SWIDTH 1040 0
DWIDTH 13 0
BBX 12 11 0 -1
BITMAP
0F00
1B80
1B80
0F80
0EC0
1BC0
3FC0
30E0
30E0
70E0
F8F0
ENDCHAR
STARTCHAR 00C6
ENCODING 198
SWIDTH 1040 0
DWIDTH 13 0
BBX 13 11 0 -1
BITMAP
0FF0
0F30
1F18
1F60
37E0
3760
7F00
6F18
6F18
CF30
EFF0
ENDCHAR
STARTCHAR 00C7
ENCODING 199
SWIDTH 1040 0
DWIDTH 13 0
BBX 10 12 1 -2
BITMAP
1F40
31C0
70C0
E0C0
E000
E000
70C0
70C0
31C0
1F00
0E00
3C00
ENDCHAR
STARTCHAR 00C8
ENCODING 200
SWIDTH 1040 0
DWIDTH 13 0
BBX 11 11 1 -1
BITMAP
1C00
0E00
FFC0
7060
7700
7F00
7700
7760
7060
70C0
FFC0
ENDCHAR
STARTCHAR 00C9
ENCODING 201
SWIDTH 1040 0
DWIDTH 13 0
BBX 11 11 1 -1
BITMAP
0E00
1C00
FFC0
7060
7700
7F00
7700
7760
7060
70C0
FFC0
ENDCHAR
STARTCHAR 00CA
ENCODING 202
SWIDTH 1040 0
DWIDTH 13 0
BBX 11 11 1 -1
BITMAP
1E00
3700
FFC0
7060
7700
7F00
7700
7760
7060
70C0
FFC0
ENDCHAR
STARTCHAR 00CB
ENCODING 203
SWIDTH 1040 0
DWIDTH 13 0
BBX 11 11 1 -1
BITMAP
3D80
3D80
FFC0
7060
7700
7F00
7700
7760
7060
70C0
FFC0
ENDCHAR
STARTCHAR 00CC
ENCODING 204
SWIDTH 1040 0
DWIDTH 13 0
BBX 6 11 3 -1
BITMAP
70
38
FC
78
78
78
78
78
78
78
FC
ENDCHAR
STARTCHAR 00CD
ENCODING 205
SWIDTH 1040 0
DWIDTH 13 0
BBX 6 11 3 -1
BITMAP
38
70
FC
78
78
78
78
78
78
78
FC
ENDCHAR
STARTCHAR 00CE
ENCODING 206
SWIDTH 1040 0
DWIDTH 13 0
BBX 7 11 3 -1
BITMAP
38
74
C6
FC
78
78
78
78
78
78
FC
ENDCHAR
STARTCHAR 00CF
ENCODING 207
SWIDTH 1040 0
DWIDTH 13 0
BBX 7 11 3 -1
BITMAP
F6
F6
00
FC
78
78
78
78
78
78
FC
ENDCHAR
STARTCHAR 00D0
ENCODING 208
SWIDTH 1040 0
DWIDTH 13 0
BBX 11 11 1 -1
BITMAP
FF00
7180
70C0
70E0
70E0
FCE0
70E0
70C0
70C0
7180
FF00
ENDCHAR
STARTCHAR 00D1
ENCODING 209
SWIDTH 1040 0
DWIDTH 13 0
BBX 11 11 1 -1
BITMAP
1EC0
3780
F0E0
7CC0
6EC0
6F40
6F40
6F40
67C0
61C0
F0C0
ENDCHAR
STARTCHAR 00D2
ENCODING 210
SWIDTH 1040 0
DWIDTH 13 0
BBX 11 11 1 -1
BITMAP
1C00
0E00
1F00
71C0
E0E0
E0E0
E0E0
E0E0
E0E0
71C0
1F00
ENDCHAR
STARTCHAR 00D3
ENCODING 211
SWIDTH 1040 0
DWIDTH 13 0
BBX 11 11 1 -1
BITMAP
0700
0E00
1F00
71C0
E0E0
E0E0
E0E0
E0E0
E0E0
71C0
1F00
ENDCHAR
STARTCHAR 00D4
ENCODING 212
SWIDTH 1040 0
DWIDTH 13 0
BBX 11 11 1 -1
BITMAP
0E00
1D00
3180
1F00
71C0
E0E0
E0E0
E0E0
E0E0
71C0
1F00
ENDCHAR
STARTCHAR 00D5
ENCODING 213
SWIDTH 1040 0
DWIDTH 13 0
BBX 11 11 1 -1
BITMAP
3D80
6F00
1F00
71C0
E0E0
E0E0
E0E0
E0E0
E0E0
71C0
1F00
ENDCHAR
STARTCHAR 00D6
ENCODING 214
SWIDTH 1040 0
DWIDTH 13 0
BBX 11 11 1 -1
BITMAP
3D80
3D80
1F00
71C0
E0E0
E0E0
E0E0
E0E0
E0E0
71C0
1F00
ENDCHAR
STARTCHAR 00D7
ENCODING 215
SWIDTH 1040 0
DWIDTH 13 0
BBX 9 8 2 0
BITMAP
C180
6300
3A00
1C00
3A00
2300
6300
C180
ENDCHAR
STARTCHAR 00D8
ENCODING 216
SWIDTH 1040 0
DWIDTH 13 0
BBX 11 11 1 -1
BITMAP
1F60
31C0
71C0
E760
EEE0
EEE0
ECE0
F0C0
71C0
7180
DF00
ENDCHAR
STARTCHAR 00D9
ENCODING 217
SWIDTH 1040 0
DWIDTH 13 0
BBX 11 11 1 -1
BITMAP
1C00
0E00
F7E0
70C0
70C0
70C0
70C0
70C0
70C0
3DC0
1F00
ENDCHAR
STARTCHAR 00DA
ENCODING 218
SWIDTH 1040 0
DWIDTH 13 0
BBX 11 11 1 -1
BITMAP
0700
0E00
FDE0
70C0
70C0
70C0
70C0
70C0
70C0
3DC0
1F00
ENDCHAR
STARTCHAR 00DB
ENCODING 219
SWIDTH 1040 0
DWIDTH 13 0
BBX 11 11 1 -1
BITMAP
0E00
1D00
F1E0
70C0
70C0
70C0
70C0
70C0
70C0
3DC0
1F00
ENDCHAR
STARTCHAR 00DC
ENCODING 220
SWIDTH 1040 0
DWIDTH 13 0
BBX 11 11 1 -1
BITMAP
3D80
3D80
F1E0
70C0
70C0
70C0
70C0
70C0
70C0
3DC0
1F00
ENDCHAR
STARTCHAR 00DD
ENCODING 221
SWIDTH 1040 0
DWIDTH 13 0
BBX 11 11 1 -1
BITMAP
0700
0E00
FDE0
70C0
3D80
3F00
1E00
1E00
1E00
1E00
3F00
ENDCHAR
STARTCHAR 00DE
ENCODING 222
SWIDTH 1040 0
DWIDTH 13 0
BBX 11 11 1 -1
BITMAP
FC00
7000
7F80
71C0
70E0
71C0
7F80
7000
7000
7000
FC00
ENDCHAR
STARTCHAR 00DF
ENCODING 223
SWIDTH 1040 0
DWIDTH 13 0
BBX 10 11 1 -1
BITMAP
1F00
3180
71C0
7180
7700
71C0
71C0
71C0
71C0
7680
F700
ENDCHAR
STARTCHAR 00E0
ENCODING 224
SWIDTH 1040 0
DWIDTH 13 0
BBX 9 10 2 -1
BITMAP
3800
1C00
0E00
7E00
0F00
7F00
6F00
EF00
EF00
7D80
ENDCHAR
STARTCHAR 00E1
ENCODING 225
SWIDTH 1040 0
DWIDTH 13 0
BBX 9 10 2 -1
BITMAP
0E00
1C00
3800
7E00
0F00
7F00
6F00
EF00
EF00
7D80
ENDCHAR
STARTCHAR 00E2
ENCODING 226
SWIDTH 1040 0
DWIDTH 13 0
BBX 9 10 2 -1
BITMAP
1C00
3A00
6300
7E00
0F00
7F00
6F00
EF00
EF00
7D80
ENDCHAR
STARTCHAR 00E3
ENCODING 227
SWIDTH 1040 0
DWIDTH 13 0
BBX 9 10 2 -1
BITMAP
7B00
DE00
0000
7E00
0F00
7F00
6F00
EF00
EF00
7D80
ENDCHAR
STARTCHAR 00E4
ENCODING 228
SWIDTH 1040 0
DWIDTH 13 0
BBX 9 10 2 -1
BITMAP
7B00
7B00
0000
7E00
0F00
7F00
6F00
EF00
EF00
7D80
ENDCHAR
STARTCHAR 00E5
ENCODING 229
SWIDTH 1040 0
DWIDTH 13 0
BBX 9 10 2 -1
BITMAP
3C00
6E00
3C00
7E00
0F00
7F00
6F00
EF00
EF00
7D80
ENDCHAR
STARTCHAR 00E6
ENCODING 230
SWIDTH 1040 0
DWIDTH 13 0
BBX 13 7 0 -1
BITMAP
7EE0
0FB0
7FF8
6F80
EF80
EF98
7EF0
ENDCHAR
STARTCHAR 00E7
ENCODING 231
SWIDTH 1040 0
DWIDTH 13 0
BBX 8 8 2 -2
BITMAP
7F
E3
E0
E3
E3
7E
1C
78
ENDCHAR
STARTCHAR 00E8
ENCODING 232
SWIDTH 1040 0
DWIDTH 13 0
BBX 9 10 2 -1
BITMAP
3800
1C00
0E00
7F00
E380
FF80
E000
E000
E180
7F00
ENDCHAR
STARTCHAR 00E9
ENCODING 233
SWIDTH 1040 0
DWIDTH 13 0
BBX 9 10 2 -1
BITMAP
0E00
1C00
3800
7F00
E380
FF80
E000
E000
E180
7F00
ENDCHAR
STARTCHAR 00EA
ENCODING 234
SWIDTH 1040 0
DWIDTH 13 0
BBX 9 10 2 -1
BITMAP
1C00
3A00
6300
7F00
E380
FF80
E000
E000
E180
7F00
ENDCHAR
STARTCHAR 00EB
ENCODING 235
SWIDTH 1040 0
DWIDTH 13 0
BBX 9 10 2 -1
BITMAP
7B00
7B00
0000
7F00
E380
FF80
E000
E000
E180
7F00
ENDCHAR
STARTCHAR 00EC
ENCODING 236
SWIDTH 1040 0
DWIDTH 13 0
BBX 6 10 3 -1
BITMAP
C0
70
38
F8
78
78
78
78
78
FC
ENDCHAR
STARTCHAR 00ED
ENCODING 237
SWIDTH 1040 0
DWIDTH 13 0
BBX 6 10 3 -1
BITMAP
38
70
C0
F8
78
78
78
78
78
FC
ENDCHAR
STARTCHAR 00EE
ENCODING 238
SWIDTH 1040 0
DWIDTH 13 0
BBX 7 10 2 -1
BITMAP
38
6C
CE
7C
3C
3C
3C
3C
3C
7E
ENDCHAR
STARTCHAR 00EF
ENCODING 239
SWIDTH 1040 0
DWIDTH 13 0
BBX 7 10 2 -1
BITMAP
EE
EE
00
7C
3C
3C
3C
3C
3C
7E
ENDCHAR
STARTCHAR 00F0
ENCODING 240
SWIDTH 1040 0
DWIDTH 13 0
BBX 9 12 2 -2
BITMAP
7B80
1E00
7B00
0300
3D80
6F80
E380
E380
E380
E380
6F00
3C00
ENDCHAR
STARTCHAR 00F1
ENCODING 241
SWIDTH 1040 0
DWIDTH 13 0
BBX 10 10 2 -1
BITMAP
7B00
DE00
0000
EF00
7B80
7B80
7B80
7B80
7B80
FBC0
ENDCHAR
STARTCHAR 00F2
ENCODING 242
SWIDTH 1040 0
DWIDTH 13 0
BBX 9 10 2 -1
BITMAP
3800
1C00
0E00
7F00
E380
E380
E380
E380
E380
7F00
ENDCHAR
STARTCHAR 00F3
ENCODING 243
SWIDTH 1040 0
DWIDTH 13 0
BBX 9 10 2 -1
BITMAP
0E00
1C00
3800
7F00
E380
E380
E380
E380
E380
7F00
ENDCHAR
STARTCHAR 00F4
ENCODING 244
SWIDTH 1040 0
DWIDTH 13 0
BBX 9 10 2 -1
BITMAP
1C00
3A00
6300
7F00
E380
E380
E380
E380
E380
7F00
ENDCHAR
STARTCHAR 00F5
ENCODING 245
SWIDTH 1040 0
DWIDTH 13 0
BBX 9 10 2 -1
BITMAP
7B00
DE00
0000
7F00
E380
E380
E380
E380
E380
7F00
ENDCHAR
STARTCHAR 00F6
ENCODING 246
SWIDTH 1040 0
DWIDTH 13 0
BBX 9 10 2 -1
BITMAP
7B00
7B00
0000
7F00
E380
E380
E380
E380
E380
7F00
ENDCHAR
STARTCHAR 00F7
ENCODING 247
SWIDTH 1040 0
DWIDTH 13 0
BBX 11 8 1 0
BITMAP
0E00
0E00
0000
FFE0
0000
0E00
0E00
0E00
ENDCHAR
STARTCHAR 00F8
ENCODING 248
SWIDTH 1040 0
DWIDTH 13 0
BBX 9 9 2 -2
BITMAP
0180
7F00
EF80
ED80
ED80
ED80
FB80
7F00
C000
ENDCHAR
STARTCHAR 00F9
ENCODING 249
SWIDTH 1040 0
DWIDTH 13 0
BBX 10 10 2 -1
BITMAP
3800
1C00
0E00
FB80
7B80
7B80
7B80
7B80
7B80
3EC0
ENDCHAR
STARTCHAR 00FA
ENCODING 250
SWIDTH 1040 0
DWIDTH 13 0
BBX 10 10 2 -1
BITMAP
0E00
1C00
3800
FB80
7B80
7B80
7B80
7B80
7B80
3EC0
ENDCHAR
STARTCHAR 00FB
ENCODING 251
SWIDTH 1040 0
DWIDTH 13 0
BBX 10 10 2 -1
BITMAP
1C00
3A00
6300
FB80
7B80
7B80
7B80
7B80
7B80
3EC0
ENDCHAR
STARTCHAR 00FC
ENCODING 252
SWIDTH 1040 0
DWIDTH 13 0
BBX 10 10 2 -1
BITMAP
7B00
7B00
0000
FB80
7B80
7B80
7B80
7B80
7B80
3EC0
ENDCHAR
STARTCHAR 00FD
ENCODING 253
SWIDTH 1040 0
DWIDTH 13 0
BBX 10 11 2 -2
BITMAP
0300
0E00
1C00
FBC0
7980
3D00
3D00
3F00
1E00
EC00
F800
ENDCHAR
STARTCHAR 00FE
ENCODING 254
SWIDTH 1040 0
DWIDTH 13 0
BBX 9 12 2 -2
BITMAP
F800
7800
7800
7800
7F00
7B80
7B80
7B80
7B80
7F00
7800
FC00
ENDCHAR
STARTCHAR 00FF
ENCODING 255
SWIDTH 1040 0
DWIDTH 13 0
BBX 10 11 2 -2
BITMAP
7B00
7B00
0000
FBC0
7980
3D00
3D00
3F00
1E00
EC00
F800
ENDCHAR
STARTCHAR 0100
ENCODING 256
SWIDTH 1040 0
DWIDTH 13 0
BBX 12 11 0 -1
BITMAP
1FC0
0000
0780
0F80
0EC0
1BC0
3FC0
30E0
30E0
70E0
F8F0
ENDCHAR
STARTCHAR 0101
ENCODING 257
SWIDTH 1040 0
DWIDTH 13 0
BBX 9 9 2 -1
BITMAP
7E00
0000
7E00
0F00
7F00
6F00
EF00
EF00
7D80
ENDCHAR
STARTCHAR 0102
ENCODING 258
SWIDTH 1040 0
DWIDTH 13 0
BBX 12 11 0 -1
BITMAP
1B80
0F00
0000
0F80
0EC0
1BC0
3FC0
30E0
30E0
70E0
F8F0
ENDCHAR
STARTCHAR 0103
ENCODING 259
SWIDTH 1040 0
DWIDTH 13 0
BBX 9 10 2 -1
BITMAP
6E00
3C00
0000
7E00
0F00
7F00
6F00
EF00
EF00
7D80
ENDCHAR
STARTCHAR 0104
ENCODING 260
SWIDTH 1040 0
DWIDTH 13 0
BBX 13 12 0 -2
BITMAP
0700
0700
0F80
0F80
1BC0
1FC0
3BC0
33E0
30E0
F8F0
0060
0038
ENDCHAR
STARTCHAR 0105
ENCODING 261
SWIDTH 1040 0
DWIDTH 13 0
BBX 10 8 2 -2
BITMAP
7E00
0F00
7F00
6F00
EF00
EF00
7D00
01C0
ENDCHAR
STARTCHAR 0106
ENCODING 262
SWIDTH 1040 0
DWIDTH 13 0
BBX 10 11 1 -1
BITMAP
0E00
1C00
1F40
31C0
70C0
E000
E000
F0C0
70C0
31C0
1F00
ENDCHAR
STARTCHAR 0107
ENCODING 263
SWIDTH 1040 0
DWIDTH 13 0
BBX 8 10 2 -1
BITMAP
0E
1C
38
7F
E3
E0
E0
E0
E3
7E
ENDCHAR
STARTCHAR 0108
ENCODING 264
SWIDTH 1040 0
DWIDTH 13 0
BBX 10 11 1 -1
BITMAP
0E00
1D00
3180
3F40
71C0
E0C0
E000
F0C0
70C0
31C0
1F00
ENDCHAR
STARTCHAR 0109
ENCODING 265
SWIDTH 1040 0
DWIDTH 13 0
BBX 8 10 2 -1
BITMAP
1C
3A
63
7F
E3
E0
E0
E0
E3
7E
ENDCHAR
STARTCHAR 010C
ENCODING 268
SWIDTH 1040 0
DWIDTH 13 0
BBX 10 11 1 -1
BITMAP
3180
1D00
1F40
31C0
70C0
E000
E000
F0C0
70C0
31C0
1F00
ENDCHAR
STARTCHAR 010D
ENCODING 269
SWIDTH 1040 0
DWIDTH 13 0
BBX 8 10 2 -1
BITMAP
63
3A
1C
7F
E3
E0
E0
E0
E3
7E
ENDCHAR
STARTCHAR 010E
ENCODING 270
SWIDTH 1040 0
DWIDTH 13 0
BBX 11 11 1 -1
BITMAP
3180
1D00
FF00
7180
70C0
70E0
70E0
70C0
70C0
7180
FF00
ENDCHAR
STARTCHAR 010F
ENCODING 271
SWIDTH 1040 0
DWIDTH 13 0
BBX 9 11 2 -1
BITMAP
CE00
6C00
3F00
0F00
7F00
EF00
EF00
EF00
EF00
EF00
7F80
ENDCHAR
STARTCHAR 0111
ENCODING 273
SWIDTH 1040 0
DWIDTH 13 0
BBX 9 11 2 -1
BITMAP
1F00
0F00
7F80
0F00
7F00
EF00
EF00
EF00
EF00
EF00
7F80
ENDCHAR
STARTCHAR 0112
ENCODING 274
SWIDTH 1040 0
DWIDTH 13 0
BBX 11 11 1 -1
BITMAP
3F80
0000
FFC0
7060
7700
7F00
7700
7760
7060
70C0
FFC0
ENDCHAR
STARTCHAR 0113
ENCODING 275
SWIDTH 1040 0
DWIDTH 13 0
BBX 9 9 2 -1
BITMAP
7F00
0000
7F00
E380
FF80
E000
E000
E180
7F00
ENDCHAR
STARTCHAR 0118
ENCODING 280
SWIDTH 1040 0
DWIDTH 13 0
BBX 11 12 1 -2
BITMAP
FFC0
7060
7000
7700
7F00
7700
7060
7040
70C0
FFC0
0180
00E0
ENDCHAR
STARTCHAR 0119
ENCODING 281
SWIDTH 1040 0
DWIDTH 13 0
BBX 10 8 2 -2
BITMAP
7F00
E380
FF80
E000
E000
E180
7F00
03C0
ENDCHAR
STARTCHAR 011A
ENCODING 282
SWIDTH 1040 0
DWIDTH 13 0
BBX 11 11 1 -1
BITMAP
3180
1D00
FFC0
7060
7700
7F00
7700
7760
7060
70C0
FFC0
ENDCHAR
STARTCHAR 011B
ENCODING 283
SWIDTH 1040 0
DWIDTH 13 0
BBX 9 10 2 -1
BITMAP
6300
3A00
1C00
7F00
E380
FF80
E000
E000
E180
7F00
ENDCHAR
STARTCHAR 011C
ENCODING 284
SWIDTH 1040 0
DWIDTH 13 0
BBX 11 11 1 -1
BITMAP
0E00
1D00
3180
3F40
71C0
E000
E7E0
F7C0
71C0
31C0
1F40
ENDCHAR
STARTCHAR 011D
ENCODING 285
SWIDTH 1040 0
DWIDTH 13 0
BBX 9 11 2 -2
BITMAP
1C00
3A00
6380
7F00
EF00
EE00
EC00
7C00
FF00
C380
7F00
ENDCHAR
STARTCHAR 0124
ENCODING 292
SWIDTH 1040 0
DWIDTH 13 0
BBX 11 11 1 -1
BITMAP
0E00
1D00
F1E0
71C0
71C0
7FC0
71C0
71C0
71C0
71C0
F1E0
ENDCHAR
STARTCHAR 0125
ENCODING 293
SWIDTH 1040 0
DWIDTH 13 0
BBX 10 11 2 -1
BITMAP
FA00
7D00
7980
7800
7F00
7B80
7B80
7B80
7B80
7B80
FBC0
ENDCHAR
STARTCHAR 0127
ENCODING 295
SWIDTH 1040 0
DWIDTH 13 0
BBX 10 11 2 -1
BITMAP
F800
7800
FE00
7800
7F00
7B80
7B80
7B80
7B80
7B80
FBC0
ENDCHAR
STARTCHAR 012A
ENCODING 298
SWIDTH 1040 0
DWIDTH 13 0
BBX 6 11 3 -1
BITMAP
FC
00
FC
78
78
78
78
78
78
78
FC
ENDCHAR
STARTCHAR 012B
ENCODING 299
SWIDTH 1040 0
DWIDTH 13 0
BBX 6 9 3 -1
BITMAP
FC
00
F8
78
78
78
78
78
FC
ENDCHAR
STARTCHAR 0134
ENCODING 308
SWIDTH 1040 0
DWIDTH 13 0
BBX 9 11 2 -1
BITMAP
1C00
3A00
6F80
0F00
0F00
0F00
0F00
CF00
CF00
EE00
7C00
ENDCHAR
STARTCHAR 0135
ENCODING 309
SWIDTH 1040 0
DWIDTH 13 0
BBX 9 11 1 -2
BITMAP
0E00
1D00
3180
1F00
0F00
0F00
0F00
0F00
0F00
CE00
FC00
ENDCHAR
STARTCHAR 0139
ENCODING 313
SWIDTH 1040 0
DWIDTH 13 0
BBX 11 11 1 -1
BITMAP
0180
FD00
7600
7000
7000
7000
7000
7060
7060
70C0
FFC0
ENDCHAR
STARTCHAR 013A
ENCODING 314
SWIDTH 1040 0
DWIDTH 13 0
BBX 6 11 3 -1
BITMAP
38
70
F8
78
78
78
78
78
78
78
FC
ENDCHAR
STARTCHAR 013D
ENCODING 317
SWIDTH 1040 0
DWIDTH 13 0
BBX 11 11 1 -1
BITMAP
FCC0
7680
7700
7000
7000
7000
7000
7060
7060
70C0
FFC0
ENDCHAR
STARTCHAR 013E
ENCODING 318
SWIDTH 1040 0
DWIDTH 13 0
BBX 7 11 3 -1
BITMAP
C6
74
F8
78
78
78
78
78
78
78
FC
ENDCHAR
STARTCHAR 0141
ENCODING 321
SWIDTH 1040 0
DWIDTH 13 0
BBX 12 11 0 -1
BITMAP
7800
3800
3800
3B00
3E00
7800
D800
D830
3830
3860
7FE0
ENDCHAR
STARTCHAR 0142
ENCODING 322
SWIDTH 1040 0
DWIDTH 13 0
BBX 8 11 2 -1
BITMAP
7C
3C
3C
3D
3E
7C
DC
DC
3C
3C
7E
ENDCHAR
STARTCHAR 0143
ENCODING 323
SWIDTH 1040 0
DWIDTH 13 0
BBX 11 11 1 -1
BITMAP
0700
EEE0
7CC0
7CC0
6EC0
6F40
6F40
6F40
67C0
61C0
F0C0
ENDCHAR
STARTCHAR 0144
ENCODING 324
SWIDTH 1040 0
DWIDTH 13 0
BBX 10 10 2 -1
BITMAP
0E00
1C00
3800
EF00
7B80
7B80
7B80
7B80
7B80
FBC0
ENDCHAR
STARTCHAR 0147
ENCODING 327
SWIDTH 1040 0
DWIDTH 13 0
BBX 11 11 1 -1
BITMAP
3D80
EF60
70C0
7CC0
6EC0
6F40
6F40
6F40
67C0
61C0
F0C0
ENDCHAR
STARTCHAR 0148
ENCODING 328
SWIDTH 1040 0
DWIDTH 13 0
BBX 10 10 2 -1
BITMAP
6300
3A00
1C00
EF00
7B80
7B80
7B80
7B80
7B80
FBC0
ENDCHAR
STARTCHAR 014B
ENCODING 331
SWIDTH 1040 0
DWIDTH 13 0
BBX 9 8 2 -2
BITMAP
EF00
7B80
7B80
7B80
7B80
7B80
FB00
1E00
ENDCHAR
STARTCHAR 014C
ENCODING 332
SWIDTH 1040 0
DWIDTH 13 0
BBX 11 11 1 -1
BITMAP
3F80
0000
1F00
71C0
E0E0
E0E0
E0E0
E0E0
E0E0
71C0
1F00
ENDCHAR
STARTCHAR 014D
ENCODING 333
SWIDTH 1040 0
DWIDTH 13 0
BBX 9 9 2 -1
BITMAP
7F00
0000
3E00
6300
E380
E380
E380
6300
3E00
ENDCHAR
STARTCHAR 0150
ENCODING 336
SWIDTH 1040 0
DWIDTH 13 0
BBX 11 11 1 -1
BITMAP
1D80
3700
1F00
71C0
E0E0
E0E0
E0E0
E0E0
E0E0
71C0
1F00
ENDCHAR
STARTCHAR 0151
ENCODING 337
SWIDTH 1040 0
DWIDTH 13 0
BBX 9 10 2 -1
BITMAP
3B00
6E00
DC00
3E00
6300
E380
E380
E380
6300
3E00
ENDCHAR
STARTCHAR 0152
ENCODING 338
SWIDTH 1040 0
DWIDTH 13 0
BBX 12 11 0 -1
BITMAP
3BE0
6F30
6F00
EF60
EFE0
EF60
EF00
EF30
6F30
6F60
3BE0
ENDCHAR
STARTCHAR 0153
ENCODING 339
SWIDTH 1040 0
DWIDTH 13 0
BBX 12 7 0 -1
BITMAP
7EE0
EF70
EFF0
EF00
EF00
EF30
7EE0
ENDCHAR
STARTCHAR 0154
ENCODING 340
SWIDTH 1040 0
DWIDTH 13 0
BBX 11 11 1 -1
BITMAP
0700
0E00
FFC0
70E0
70E0
7FC0
7780
77C0
71C0
71C0
FDE0
ENDCHAR
STARTCHAR 0155
ENCODING 341
SWIDTH 1040 0
DWIDTH 13 0
BBX 9 10 2 -1
BITMAP
0E00
1C00
3800
EF80
7B80
7800
7800
7800
7800
FC00
ENDCHAR
STARTCHAR 0158
ENCODING 344
SWIDTH 1040 0
DWIDTH 13 0
BBX 11 11 1 -1
BITMAP
3180
1D00
FFC0
70E0
70E0
7FC0
7780
77C0
71C0
71C0
FDE0
ENDCHAR
STARTCHAR 0159
ENCODING 345
SWIDTH 1040 0
DWIDTH 13 0
BBX 9 10 2 -1
BITMAP
6300
3A00
1C00
EF80
7B80
7800
7800
7800
7800
FC00
ENDCHAR
STARTCHAR 015A
ENCODING 346
SWIDTH 1040 0
DWIDTH 13 0
BBX 9 11 2 -1
BITMAP
1C00
3800
3D00
6F00
E300
FC00
3F00
FF80
CF80
E300
DE00
ENDCHAR
STARTCHAR 015B
ENCODING 347
SWIDTH 1040 0
DWIDTH 13 0
BBX 10 10 1 -1
BITMAP
0700
0E00
1C00
3FC0
71C0
3E00
3F80
0F80
71C0
DF80
ENDCHAR
STARTCHAR 015C
ENCODING 348
SWIDTH 1040 0
DWIDTH 13 0
BBX 9 11 2 -1
BITMAP
1C00
3A00
7D00
6F00
E300
FC00
3F00
FF80
CF80
E300
DE00
ENDCHAR
STARTCHAR 015D
ENCODING 349
SWIDTH 1040 0
DWIDTH 13 0
BBX 10 10 1 -1
BITMAP
0E00
1D00
3180
3FC0
71C0
3E00
3F80
0F80
71C0
DF80
ENDCHAR
STARTCHAR 015E
ENCODING 350
SWIDTH 1040 0
DWIDTH 13 0
BBX 9 12 2 -2
BITMAP
3D00
6F00
E300
F800
7F00
1F80
C380
E300
E300
DE00
1C00
7800
ENDCHAR
STARTCHAR 015F
ENCODING 351
SWIDTH 1040 0
DWIDTH 13 0
BBX 10 9 1 -2
BITMAP
3FC0
71C0
3E00
0F80
11C0
71C0
DF80
0700
1E00
ENDCHAR
STARTCHAR 0160
ENCODING 352
SWIDTH 1040 0
DWIDTH 13 0
BBX 9 11 2 -1
BITMAP
6300
3A00
3D00
6F00
E300
FC00
3F00
FF80
CF80
E300
DE00
ENDCHAR
STARTCHAR 0161
ENCODING 353
SWIDTH 1040 0
DWIDTH 13 0
BBX 10 10 1 -1
BITMAP
3180
1D00
0E00
3FC0
71C0
3E00
3F80
0F80
71C0
DF80
ENDCHAR
STARTCHAR 0162
ENCODING 354
SWIDTH 1040 0
DWIDTH 13 0
BBX 12 12 0 -2
BITMAP
7FE0
6F60
CF30
0F00
0F00
0F00
0F00
0F00
0F00
1F80
0E00
3800
ENDCHAR
STARTCHAR 0163
ENCODING 355
SWIDTH 1040 0
DWIDTH 13 0
BBX 9 11 2 -2
BITMAP
1C00
3C00
3C00
FF00
3C00
3C00
3D80
3D80
1F00
1C00
7800
ENDCHAR
STARTCHAR 0164
ENCODING 356
SWIDTH 1040 0
DWIDTH 13 0
BBX 12 11 0 -1
BITMAP
18C0
0E80
7FE0
6F60
CF30
0F00
0F00
0F00
0F00
0F00
1F80
ENDCHAR
STARTCHAR 0165
ENCODING 357
SWIDTH 1040 0
DWIDTH 13 0
BBX 9 11 2 -1
BITMAP
6300
3A00
1C00
3C00
FF00
3C00
3C00
3C00
3C00
3D80
1F00
ENDCHAR
STARTCHAR 016A
ENCODING 362
SWIDTH 1040 0
DWIDTH 13 0
BBX 11 11 1 -1
BITMAP
3F80
0000
FDE0
70C0
70C0
70C0
70C0
70C0
70C0
3DC0
1F00
ENDCHAR
STARTCHAR 016B
ENCODING 363
SWIDTH 1040 0
DWIDTH 13 0
BBX 10 9 2 -1
BITMAP
7F00
0000
FB80
7B80
7B80
7B80
7B80
7B80
3EC0
ENDCHAR
STARTCHAR 016C
ENCODING 364
SWIDTH 1040 0
DWIDTH 13 0
BBX 11 11 1 -1
BITMAP
3700
1E00
F1E0
70C0
70C0
70C0
70C0
70C0
70C0
3DC0
1F00
ENDCHAR
STARTCHAR 016D
ENCODING 365
SWIDTH 1040 0
DWIDTH 13 0
BBX 10 10 2 -1
BITMAP
6E00
3C00
0000
FB80
7B80
7B80
7B80
7B80
7B80
3EC0
ENDCHAR
STARTCHAR 016E
ENCODING 366
SWIDTH 1040 0
DWIDTH 13 0
BBX 11 11 1 -1
BITMAP
0F00
1D80
FDE0
7740
70C0
70C0
70C0
70C0
70C0
3DC0
1F00
ENDCHAR
STARTCHAR 016F
ENCODING 367
SWIDTH 1040 0
DWIDTH 13 0
BBX 10 10 2 -1
BITMAP
6300
3A00
1C00
FB80
7B80
7B80
7B80
7B80
7B80
3EC0
ENDCHAR
STARTCHAR 0170
ENCODING 368
SWIDTH 1040 0
DWIDTH 13 0
BBX 11 11 1 -1
BITMAP
1D80
3700
FDE0
70C0
70C0
70C0
70C0
70C0
70C0
3DC0
1F00
ENDCHAR
STARTCHAR 0171
ENCODING 369
SWIDTH 1040 0
DWIDTH 13 0
BBX 10 10 2 -1
BITMAP
3B00
6E00
DC00
FB80
7B80
7B80
7B80
7B80
7B80
3EC0
ENDCHAR
STARTCHAR 0179
ENCODING 377
SWIDTH 1040 0
DWIDTH 13 0
BBX 11 11 1 -1
BITMAP
0700
0E00
7FC0
6780
CF00
1E00
3C00
3060
3060
70C0
FFC0
ENDCHAR
STARTCHAR 017A
ENCODING 378
SWIDTH 1040 0
DWIDTH 13 0
BBX 9 10 2 -1
BITMAP
0E00
1C00
3800
7F80
CF00
1E00
1C00
3C00
7980
FF00
ENDCHAR
STARTCHAR 017B
ENCODING 379
SWIDTH 1040 0
DWIDTH 13 0
BBX 11 11 1 -1
BITMAP
1E00
1E00
7FC0
6780
CF00
1E00
3C00
3060
3060
70C0
FFC0
ENDCHAR
STARTCHAR 017C
ENCODING 380
SWIDTH 1040 0
DWIDTH 13 0
BBX 9 10 2 -1
BITMAP
3C00
3C00
0000
7F80
CF00
1E00
1C00
3C00
7980
FF00
ENDCHAR
STARTCHAR 017D
ENCODING 381
SWIDTH 1040 0
DWIDTH 13 0
BBX 11 11 1 -1
BITMAP
3180
1D00
7FC0
6780
CF00
1E00
3C00
3060
3060
70C0
FFC0
ENDCHAR
STARTCHAR 017E
ENCODING 382
SWIDTH 1040 0
DWIDTH 13 0
BBX 9 10 2 -1
BITMAP
6300
3A00
1C00
7F80
CF00
1E00
1C00
3C00
7980
FF00
ENDCHAR
STARTCHAR 0193
ENCODING 403
SWIDTH 1040 0
DWIDTH 13 0
BBX 12 11 1 -1
BITMAP
1F60
31D0
70C0
E000
E000
E7E0
E1C0
F1C0
71C0
31C0
1F40
ENDCHAR
STARTCHAR 01C2
ENCODING 450
SWIDTH 1040 0
DWIDTH 13 0
BBX 7 10 3 -1
BITMAP
38
38
FE
38
38
FE
F8
38
38
38
ENDCHAR
STARTCHAR 01CD
ENCODING 461
SWIDTH 1040 0
DWIDTH 13 0
BBX 12 11 0 -1
BITMAP
18C0
0E80
0F80
0E80
1BC0
1FC0
3BC0
33E0
30E0
70E0
F8F0
ENDCHAR
STARTCHAR 01CE
ENCODING 462
SWIDTH 1040 0
DWIDTH 13 0
BBX 9 10 2 -1
BITMAP
6300
3A00
1C00
7E00
0F00
7F00
6F00
EF00
EF00
7D80
ENDCHAR
STARTCHAR 01D0
ENCODING 464
SWIDTH 1040 0
DWIDTH 13 0
BBX 7 10 2 -1
BITMAP
CE
6C
38
7C
3C
3C
3C
3C
3C
7E
ENDCHAR
STARTCHAR 01D1
ENCODING 465
SWIDTH 1040 0
DWIDTH 13 0
BBX 11 11 1 -1
BITMAP
3180
1D00
0E00
1F00
71C0
E0E0
E0E0
E0E0
E0E0
71C0
1F00
ENDCHAR
STARTCHAR 01D2
ENCODING 466
SWIDTH 1040 0
DWIDTH 13 0
BBX 9 10 2 -1
BITMAP
6300
3A00
1C00
7F00
E380
E380
E380
E380
E380
7F00
ENDCHAR
STARTCHAR 01D4
ENCODING 468
SWIDTH 1040 0
DWIDTH 13 0
BBX 10 10 2 -1
BITMAP
6300
3A00
1C00
FB80
7B80
7B80
7B80
7B80
7B80
3EC0
ENDCHAR
STARTCHAR 01D6
ENCODING 470
SWIDTH 1040 0
DWIDTH 13 0
BBX 10 11 2 -1
BITMAP
7F00
0000
7B00
7B00
0000
FB80
7B80
7B80
7B80
7B80
3EC0
ENDCHAR
STARTCHAR 01D8
ENCODING 472
SWIDTH 1040 0
DWIDTH 13 0
BBX 10 11 2 -1
BITMAP
0E00
1C00
7B00
7B00
0000
FB80
7B80
7B80
7B80
7B80
3EC0
ENDCHAR
STARTCHAR 01DA
ENCODING 474
SWIDTH 1040 0
DWIDTH 13 0
BBX 10 11 2 -1
BITMAP
6300
3A00
7F00
7B00
0000
FB80
7B80
7B80
7B80
7B80
3EC0
ENDCHAR
STARTCHAR 01DC
ENCODING 476
SWIDTH 1040 0
DWIDTH 13 0
BBX 10 11 2 -1
BITMAP
3800
1C00
7B00
7B00
0000
FB80
7B80
7B80
7B80
7B80
3EC0
ENDCHAR
STARTCHAR 01F8
ENCODING 504
SWIDTH 1040 0
DWIDTH 13 0
BBX 11 11 1 -1
BITMAP
1C00
EEE0
7740
7CC0
6EC0
6F40
6F40
6F40
67C0
61C0
F0C0
ENDCHAR
STARTCHAR 01F9
ENCODING 505
SWIDTH 1040 0
DWIDTH 13 0
BBX 10 10 2 -1
BITMAP
3800
1C00
0E00
EF00
7B80
7B80
7B80
7B80
7B80
FBC0
ENDCHAR
STARTCHAR 01FD
ENCODING 509
SWIDTH 1040 0
DWIDTH 13 0
BBX 13 11 0 -1
BITMAP
0380
0700
0E00
0000
7EE0
0FB0
7FF8
6F80
EF80
EF98
7EF0
ENDCHAR
STARTCHAR 0250
ENCODING 592
SWIDTH 1040 0
DWIDTH 13 0
BBX 9 7 2 -1
BITMAP
EF00
7B80
7B80
7B00
7F00
7800
3F00
ENDCHAR
STARTCHAR 0251
ENCODING 593
SWIDTH 1040 0
DWIDTH 13 0
BBX 9 7 2 -1
BITMAP
7D00
EF00
EF00
EF00
EF00
EF00
7D80
ENDCHAR
STARTCHAR 0252
ENCODING 594
SWIDTH 1040 0
DWIDTH 13 0
BBX 9 7 1 -1
BITMAP
EF00
7780
7780
7780
7780
7780
6F00
ENDCHAR
STARTCHAR 0253
ENCODING 595
SWIDTH 1040 0
DWIDTH 13 0
BBX 9 11 2 -1
BITMAP
1F80
3980
7800
7800
7F00
7B80
7B80
7B80
7B80
7B80
FF00
ENDCHAR
STARTCHAR 0254
ENCODING 596
SWIDTH 1040 0
DWIDTH 13 0
BBX 8 7 2 -1
BITMAP
7E
CF
0F
0F
0F
CF
FE
ENDCHAR
STARTCHAR 0255
ENCODING 597
SWIDTH 1040 0
DWIDTH 13 0
BBX 8 8 2 -2
BITMAP
7F
E3
E0
EE
EE
FB
7E
60
ENDCHAR
STARTCHAR 0256
ENCODING 598
SWIDTH 1040 0
DWIDTH 13 0
BBX 10 12 2 -2
BITMAP
1F00
0F00
0F00
0F00
7F00
EF00
EF00
EF00
EF00
EF00
7F40
03C0
ENDCHAR
STARTCHAR 0257
ENCODING 599
SWIDTH 1040 0
DWIDTH 13 0
BBX 10 11 2 -1
BITMAP
03C0
0F40
0F00
0F00
7F00
EF00
EF00
EF00
EF00
EF00
7F80
ENDCHAR
STARTCHAR 0258
ENCODING 600
SWIDTH 1040 0
DWIDTH 13 0
BBX 9 7 2 -1
BITMAP
7F00
E380
FF80
FF80
0380
C380
7F00
ENDCHAR
STARTCHAR 0259
ENCODING 601
SWIDTH 1040 0
DWIDTH 13 0
BBX 9 7 2 -1
BITMAP
7F00
C380
0380
0380
FF80
E380
7F00
ENDCHAR
STARTCHAR 025A
ENCODING 602
SWIDTH 1040 0
DWIDTH 13 0
BBX 11 7 2 -1
BITMAP
7EC0
CFC0
3F40
2F60
EF60
CF00
7E00
ENDCHAR
STARTCHAR 025C
ENCODING 604
SWIDTH 1040 0
DWIDTH 13 0
BBX 9 7 2 -1
BITMAP
7F00
C380
1F00
1F80
0380
C380
7F00
ENDCHAR
STARTCHAR 025E
ENCODING 606
SWIDTH 1040 0
DWIDTH 13 0
BBX 9 7 2 -1
BITMAP
7F00
C380
DF00
DF80
C380
C380
7F00
ENDCHAR
STARTCHAR 025F
ENCODING 607
SWIDTH 1040 0
DWIDTH 13 0
BBX 9 8 1 -2
BITMAP
3F80
0F00
0F00
0F80
3F80
0F00
CE00
FC00
ENDCHAR
STARTCHAR 0260
ENCODING 608
SWIDTH 1040 0
DWIDTH 13 0
BBX 11 10 2 -2
BITMAP
00C0
01A0
7E80
E380
E380
E380
6380
3F80
6300
7E00
ENDCHAR
STARTCHAR 0261
ENCODING 609
SWIDTH 1040 0
DWIDTH 13 0
BBX 9 8 2 -2
BITMAP
7E80
E380
E380
E380
6380
3F80
6300
7E00
ENDCHAR
STARTCHAR 0264
ENCODING 612
SWIDTH 1040 0
DWIDTH 13 0
BBX 10 8 1 -1
BITMAP
F7C0
6180
3700
3700
3600
1E00
1E00
1E00
ENDCHAR
STARTCHAR 0265
ENCODING 613
SWIDTH 1040 0
DWIDTH 13 0
BBX 10 11 2 -1
BITMAP
FBC0
7B80
7B80
7B80
7B80
3F80
0380
0380
0380
0380
03C0
ENDCHAR
STARTCHAR 0266
ENCODING 614
SWIDTH 1040 0
DWIDTH 13 0
BBX 10 11 2 -1
BITMAP
1F80
3980
7800
7800
7F00
7B80
7B80
7B80
7B80
7B80
FBC0
ENDCHAR
STARTCHAR 0267
ENCODING 615
SWIDTH 1040 0
DWIDTH 13 0
BBX 9 12 2 -2
BITMAP
1F80
3980
7800
7800
7F00
7B80
7B80
7B80
7B80
7B80
FB80
1F00
ENDCHAR
STARTCHAR 0268
ENCODING 616
SWIDTH 1040 0
DWIDTH 13 0
BBX 8 11 2 -1
BITMAP
1C
3E
1C
00
7C
3C
FF
FC
3C
3C
7E
ENDCHAR
STARTCHAR 026C
ENCODING 620
SWIDTH 1040 0
DWIDTH 13 0
BBX 9 11 2 -1
BITMAP
7C00
3C00
3C00
7C00
DC00
DC00
7F80
7C00
3C00
3C00
7E00
ENDCHAR
STARTCHAR 026D
ENCODING 621
SWIDTH 1040 0
DWIDTH 13 0
BBX 7 12 3 -2
BITMAP
F8
78
78
78
78
78
78
78
78
78
7A
3E
ENDCHAR
STARTCHAR 026E
ENCODING 622
SWIDTH 1040 0
DWIDTH 13 0
BBX 10 12 1 -2
BITMAP
F000
7000
7000
7000
7FC0
7780
7700
7780
7780
71C0
FDC0
3F80
ENDCHAR
STARTCHAR 026F
ENCODING 623
SWIDTH 1040 0
DWIDTH 13 0
BBX 12 7 1 -1
BITMAP
F770
7760
7760
7760
7760
7760
3DB0
ENDCHAR
STARTCHAR 0270
ENCODING 624
SWIDTH 1040 0
DWIDTH 13 0
BBX 12 8 1 -2
BITMAP
F770
7760
7760
7760
7760
7760
3DE0
00F0
ENDCHAR
STARTCHAR 0271
ENCODING 625
SWIDTH 1040 0
DWIDTH 13 0
BBX 11 8 1 -2
BITMAP
EEC0
7760
7760
7760
7760
7760
F760
01C0
ENDCHAR
STARTCHAR 0272
ENCODING 626
SWIDTH 1040 0
DWIDTH 13 0
BBX 11 8 1 -2
BITMAP
7780
3DC0
3DC0
3DC0
3DC0
3DC0
DDE0
F000
ENDCHAR
STARTCHAR 0273
ENCODING 627
SWIDTH 1040 0
DWIDTH 13 0
BBX 11 8 1 -2
BITMAP
EF00
7780
7780
7780
7780
7780
F7A0
01E0
ENDCHAR
STARTCHAR 0275
ENCODING 629
SWIDTH 1040 0
DWIDTH 13 0
BBX 9 7 2 -1
BITMAP
7F00
E380
FF80
E380
E380
E380
7F00
ENDCHAR
STARTCHAR 0279
ENCODING 633
SWIDTH 1040 0
DWIDTH 13 0
BBX 9 7 1 -1
BITMAP
1F80
0F00
0F00
0F00
0F00
EF00
FD80
ENDCHAR
STARTCHAR 027A
ENCODING 634
SWIDTH 1040 0
DWIDTH 13 0
BBX 9 11 1 -1
BITMAP
1F80
0F00
0F00
0F00
0F00
0F00
0F00
0F00
0F00
EF00
FD80
ENDCHAR
STARTCHAR 027B
ENCODING 635
SWIDTH 1040 0
DWIDTH 13 0
BBX 10 8 1 -2
BITMAP
1F80
0F00
0F00
0F00
0F00
EF00
FD40
01C0
ENDCHAR
STARTCHAR 027D
ENCODING 637
SWIDTH 1040 0
DWIDTH 13 0
BBX 9 8 2 -2
BITMAP
EF80
7B80
7800
7800
7800
7800
7A00
3E00
ENDCHAR
STARTCHAR 027E
ENCODING 638
SWIDTH 1040 0
DWIDTH 13 0
BBX 8 7 3 -1
BITMAP
3E
7B
7B
7B
78
78
FC
ENDCHAR
STARTCHAR 0281
ENCODING 641
SWIDTH 1040 0
DWIDTH 13 0
BBX 9 8 2 -1
BITMAP
FB80
7B80
7F00
7B80
7B80
7B80
7B80
6F00
ENDCHAR
STARTCHAR 0282
ENCODING 642
SWIDTH 1040 0
DWIDTH 13 0
BBX 9 9 2 -2
BITMAP
7F80
E380
7C00
1F00
2380
E380
FF00
C000
7800
ENDCHAR
STARTCHAR 0283
ENCODING 643
SWIDTH 1040 0
DWIDTH 13 0
BBX 10 12 1 -2
BITMAP
0F80
1EC0
1E00
1E00
1E00
1E00
1E00
1E00
1E00
1E00
EE00
7C00
ENDCHAR
STARTCHAR 0284
ENCODING 644
SWIDTH 1040 0
DWIDTH 13 0
BBX 10 9 1 -2
BITMAP
07C0
0EC0
1E00
1E00
1E00
1E00
3F00
DE00
FC00
ENDCHAR
STARTCHAR 0288
ENCODING 648
SWIDTH 1040 0
DWIDTH 13 0
BBX 9 11 2 -2
BITMAP
1C00
3C00
3C00
FF00
3C00
3C00
3C00
3C00
3C00
3D80
1F00
ENDCHAR
STARTCHAR 0289
ENCODING 649
SWIDTH 1040 0
DWIDTH 13 0
BBX 11 7 1 -1
BITMAP
7DC0
3DC0
FFE0
FDC0
3DC0
3DC0
1F60
ENDCHAR
STARTCHAR 028A
ENCODING 650
SWIDTH 1040 0
DWIDTH 13 0
BBX 9 7 2 -1
BITMAP
FB80
DA80
6300
6380
E380
E380
7F00
ENDCHAR
STARTCHAR 028B
ENCODING 651
SWIDTH 1040 0
DWIDTH 13 0
BBX 9 7 2 -1
BITMAP
FB80
7B80
7B80
7B80
7B80
7B00
3E00
ENDCHAR
STARTCHAR 028C
ENCODING 652
SWIDTH 1040 0
DWIDTH 13 0
BBX 10 7 1 -1
BITMAP
1C00
1E00
3F00
3700
3700
6780
F7C0
ENDCHAR
STARTCHAR 028D
ENCODING 653
SWIDTH 1040 0
DWIDTH 13 0
BBX 13 7 0 -1
BITMAP
1B80
1EC0
3EE0
3F60
3F60
6F70
F778
ENDCHAR
STARTCHAR 028E
ENCODING 654
SWIDTH 1040 0
DWIDTH 13 0
BBX 10 9 2 -1
BITMAP
03C0
0EC0
1E00
1F00
3F00
3B80
3B80
6380
FBC0
ENDCHAR
STARTCHAR 0290
ENCODING 656
SWIDTH 1040 0
DWIDTH 13 0
BBX 10 8 2 -2
BITMAP
7F80
CF00
1E00
1C00
3C00
7980
FF00
01C0
ENDCHAR
STARTCHAR 0291
ENCODING 657
SWIDTH 1040 0
DWIDTH 13 0
BBX 9 8 2 -2
BITMAP
7F80
CF00
1E00
1D80
3D80
7A80
FF80
1C00
ENDCHAR
STARTCHAR 0292
ENCODING 658
SWIDTH 1040 0
DWIDTH 13 0
BBX 9 8 1 -2
BITMAP
7F80
6F00
1E00
1F00
1F00
E780
E780
7F00
ENDCHAR
STARTCHAR 0294
ENCODING 660
SWIDTH 1040 0
DWIDTH 13 0
BBX 10 11 1 -1
BITMAP
3F00
6780
E1C0
E1C0
0780
1F00
1E00
1E00
1E00
1E00
3F00
ENDCHAR
STARTCHAR 0295
ENCODING 661
SWIDTH 1040 0
DWIDTH 13 0
BBX 10 11 1 -1
BITMAP
3F00
7180
E1C0
E1C0
7000
3E00
1E00
1E00
1E00
1E00
3F00
ENDCHAR
STARTCHAR 0298
ENCODING 664
SWIDTH 1040 0
DWIDTH 13 0
BBX 9 9 2 -1
BITMAP
3E00
6300
C180
DD80
DD80
DD80
C180
6300
3E00
ENDCHAR
STARTCHAR 029D
ENCODING 669
SWIDTH 1040 0
DWIDTH 13 0
BBX 8 12 2 -2
BITMAP
1C
3E
1C
00
3E
1E
1E
1E
1E
FF
DC
78
ENDCHAR
STARTCHAR 02A1
ENCODING 673
SWIDTH 1040 0
DWIDTH 13 0
BBX 10 11 1 -1
BITMAP
3F00
6780
E1C0
E1C0
0780
1F00
1E00
1F80
7F80
1E00
3F00
ENDCHAR
STARTCHAR 02A2
ENCODING 674
SWIDTH 1040 0
DWIDTH 13 0
BBX 10 11 1 -1
BITMAP
3F00
7180
E1C0
E1C0
7000
3E00
1E00
1F80
7F80
1E00
3F00
ENDCHAR
STARTCHAR 02C7
ENCODING 711
SWIDTH 1040 0
DWIDTH 13 0
BBX 7 3 3 7
BITMAP
C6
74
38
ENDCHAR
STARTCHAR 02C8
ENCODING 712
SWIDTH 1040 0
DWIDTH 13 0
BBX 3 4 5 6
BITMAP
E0
E0
E0
E0
ENDCHAR
STARTCHAR 02CC
ENCODING 716
SWIDTH 1040 0
DWIDTH 13 0
BBX 3 5 5 -2
BITMAP
E0
E0
E0
E0
E0
ENDCHAR
STARTCHAR 02D0
ENCODING 720
SWIDTH 1040 0
DWIDTH 13 0
BBX 7 8 3 -1
BITMAP
FE
7C
38
00
38
38
7C
FE
ENDCHAR
STARTCHAR 02D1
ENCODING 721
SWIDTH 1040 0
DWIDTH 13 0
BBX 7 3 3 4
BITMAP
FE
7C
38
ENDCHAR
STARTCHAR 02D8
ENCODING 728
SWIDTH 1040 0
DWIDTH 13 0
BBX 8 3 3 7
BITMAP
C3
C3
7E
ENDCHAR
STARTCHAR 02D9
ENCODING 729
SWIDTH 1040 0
DWIDTH 13 0
BBX 4 2 4 8
BITMAP
F0
F0
ENDCHAR
STARTCHAR 02DB
ENCODING 731
SWIDTH 1040 0
DWIDTH 13 0
BBX 5 6 6 -2
BITMAP
30
20
E0
E0
38
38
ENDCHAR
STARTCHAR 02DD
ENCODING 733
SWIDTH 1040 0
DWIDTH 13 0
BBX 7 3 3 7
BITMAP
3A
74
D8
ENDCHAR
STARTCHAR 02DE
ENCODING 734
SWIDTH 1040 0
DWIDTH 13 0
BBX 7 5 4 1
BITMAP
F8
3A
3A
3E
0C
ENDCHAR
STARTCHAR 02E5
ENCODING 741
SWIDTH 1040 0
DWIDTH 13 0
BBX 8 13 0 -2
BITMAP
FF
07
07
07
07
07
07
07
07
07
07
07
07
ENDCHAR
STARTCHAR 02E6
ENCODING 742
SWIDTH 1040 0
DWIDTH 13 0
BBX 8 13 0 -2
BITMAP
07
07
07
FF
07
07
07
07
07
07
07
07
07
ENDCHAR
STARTCHAR 02E7
ENCODING 743
SWIDTH 1040 0
DWIDTH 13 0
BBX 8 13 0 -2
BITMAP
07
07
07
07
07
07
FF
07
07
07
07
07
07
ENDCHAR
STARTCHAR 02E8
ENCODING 744
SWIDTH 1040 0
DWIDTH 13 0
BBX 8 13 0 -2
BITMAP
07
07
07
07
07
07
07
07
07
FF
07
07
07
ENDCHAR
STARTCHAR 02E9
ENCODING 745
SWIDTH 1040 0
DWIDTH 13 0
BBX 8 13 0 -2
BITMAP
07
07
07
07
07
07
07
07
07
07
07
07
FF
ENDCHAR
STARTCHAR 0300
ENCODING 768
SWIDTH 1040 0
DWIDTH 13 0
BBX 5 3 4 7
BITMAP
E0
70
38
ENDCHAR
STARTCHAR 0301
ENCODING 769
SWIDTH 1040 0
DWIDTH 13 0
BBX 5 3 4 7
BITMAP
38
70
E0
ENDCHAR
STARTCHAR 0302
ENCODING 770
SWIDTH 1040 0
DWIDTH 13 0
BBX 7 3 3 7
BITMAP
38
74
C6
ENDCHAR
STARTCHAR 0303
ENCODING 771
SWIDTH 1040 0
DWIDTH 13 0
BBX 8 2 2 8
BITMAP
7B
DE
ENDCHAR
STARTCHAR 0304
ENCODING 772
SWIDTH 1040 0
DWIDTH 13 0
BBX 6 1 3 9
BITMAP
FC
ENDCHAR
STARTCHAR 0306
ENCODING 774
SWIDTH 1040 0
DWIDTH 13 0
BBX 7 3 3 7
BITMAP
C6
C6
7C
ENDCHAR
STARTCHAR 0308
ENCODING 776
SWIDTH 1040 0
DWIDTH 13 0
BBX 7 2 3 8
BITMAP
F6
F6
ENDCHAR
STARTCHAR 030B
ENCODING 779
SWIDTH 1040 0
DWIDTH 13 0
BBX 8 3 2 7
BITMAP
3B
6E
DC
ENDCHAR
STARTCHAR 030C
ENCODING 780
SWIDTH 1040 0
DWIDTH 13 0
BBX 7 3 3 7
BITMAP
C6
74
38
ENDCHAR
STARTCHAR 030F
ENCODING 783
SWIDTH 1040 0
DWIDTH 13 0
BBX 8 3 2 7
BITMAP
DC
6E
3B
ENDCHAR
STARTCHAR 0318
ENCODING 792
SWIDTH 1040 0
DWIDTH 13 0
BBX 5 6 3 -2
BITMAP
38
38
38
F8
38
38
ENDCHAR
STARTCHAR 0319
ENCODING 793
SWIDTH 1040 0
DWIDTH 13 0
BBX 5 6 5 -2
BITMAP
E0
E0
E0
F8
E0
E0
ENDCHAR
STARTCHAR 031A
ENCODING 794
SWIDTH 1040 0
DWIDTH 13 0
BBX 5 3 6 7
BITMAP
F8
18
18
ENDCHAR
STARTCHAR 031C
ENCODING 796
SWIDTH 1040 0
DWIDTH 13 0
BBX 5 3 4 -2
BITMAP
78
E0
78
ENDCHAR
STARTCHAR 031D
ENCODING 797
SWIDTH 1040 0
DWIDTH 13 0
BBX 7 4 3 0
BITMAP
38
38
38
FE
ENDCHAR
STARTCHAR 031E
ENCODING 798
SWIDTH 1040 0
DWIDTH 13 0
BBX 7 3 3 -2
BITMAP
FE
38
38
ENDCHAR
STARTCHAR 031F
ENCODING 799
SWIDTH 1040 0
DWIDTH 13 0
BBX 7 3 3 -2
BITMAP
38
FE
38
ENDCHAR
STARTCHAR 0320
ENCODING 800
SWIDTH 1040 0
DWIDTH 13 0
BBX 7 1 3 -1
BITMAP
FE
ENDCHAR
STARTCHAR 0324
ENCODING 804
SWIDTH 1040 0
DWIDTH 13 0
BBX 7 2 3 -2
BITMAP
F6
F6
ENDCHAR
STARTCHAR 0325
ENCODING 805
SWIDTH 1040 0
DWIDTH 13 0
BBX 6 5 3 -2
BITMAP
78
78
DC
DC
78
ENDCHAR
STARTCHAR 0329
ENCODING 809
SWIDTH 1040 0
DWIDTH 13 0
BBX 3 3 5 -2
BITMAP
E0
E0
E0
ENDCHAR
STARTCHAR 032A
ENCODING 810
SWIDTH 1040 0
DWIDTH 13 0
BBX 7 3 3 -2
BITMAP
FE
C6
C6
ENDCHAR
STARTCHAR 032C
ENCODING 812
SWIDTH 1040 0
DWIDTH 13 0
BBX 7 3 3 -2
BITMAP
C6
C6
7C
ENDCHAR
STARTCHAR 032F
ENCODING 815
SWIDTH 1040 0
DWIDTH 13 0
BBX 7 3 3 -2
BITMAP
7C
C6
C6
ENDCHAR
STARTCHAR 0330
ENCODING 816
SWIDTH 1040 0
DWIDTH 13 0
BBX 8 2 2 -2
BITMAP
7B
DE
ENDCHAR
STARTCHAR 0334
ENCODING 820
SWIDTH 1040 0
DWIDTH 13 0
BBX 8 3 2 2
BITMAP
7B
DE
DE
ENDCHAR
STARTCHAR 0339
ENCODING 825
SWIDTH 1040 0
DWIDTH 13 0
BBX 5 3 5 -2
BITMAP
F0
18
F0
ENDCHAR
STARTCHAR 033A
ENCODING 826
SWIDTH 1040 0
DWIDTH 13 0
BBX 7 3 3 -2
BITMAP
C6
C6
FE
ENDCHAR
STARTCHAR 033B
ENCODING 827
SWIDTH 1040 0
DWIDTH 13 0
BBX 7 5 3 -2
BITMAP
FE
FE
C6
C6
FE
ENDCHAR
STARTCHAR 033C
ENCODING 828
SWIDTH 1040 0
DWIDTH 13 0
BBX 9 2 2 -2
BITMAP
7B00
DD80
ENDCHAR
STARTCHAR 033D
ENCODING 829
SWIDTH 1040 0
DWIDTH 13 0
BBX 7 3 3 7
BITMAP
F6
38
F6
ENDCHAR
STARTCHAR 0361
ENCODING 865
SWIDTH 1040 0
DWIDTH 13 0
BBX 11 3 1 7
BITMAP
3F80
60C0
C060
ENDCHAR
STARTCHAR 0391
ENCODING 913
SWIDTH 1040 0
DWIDTH 13 0
BBX 12 11 0 -1
BITMAP
0700
0700
0F80
0F80
1BC0
1FC0
3BC0
33E0
30E0
70E0
F8F0
ENDCHAR
STARTCHAR 0392
ENCODING 914
SWIDTH 1040 0
DWIDTH 13 0
BBX 11 11 1 -1
BITMAP
FF00
7180
71C0
71C0
7F80
70C0
70E0
70E0
70E0
70C0
FF80
ENDCHAR
STARTCHAR 0393
ENCODING 915
SWIDTH 1040 0
DWIDTH 13 0
BBX 10 11 2 -1
BITMAP
FF80
7980
78C0
7800
7800
7800
7800
7800
7800
7800
FC00
ENDCHAR
STARTCHAR 0394
ENCODING 916
SWIDTH 1040 0
DWIDTH 13 0
BBX 11 11 1 -1
BITMAP
0E00
0E00
1F00
1F00
3780
3780
3780
27C0
61C0
61C0
FFE0
ENDCHAR
STARTCHAR 0395
ENCODING 917
SWIDTH 1040 0
DWIDTH 13 0
BBX 11 11 1 -1
BITMAP
FFC0
70C0
7060
7180
7F80
7180
7000
7060
7060
70C0
FFC0
ENDCHAR
STARTCHAR 0396
ENCODING 918
SWIDTH 1040 0
DWIDTH 13 0
BBX 11 11 1 -1
BITMAP
7FC0
61C0
C780
0F00
0F00
1E00
3C00
3060
3060
70C0
FFC0
ENDCHAR
STARTCHAR 0397
ENCODING 919
SWIDTH 1040 0
DWIDTH 13 0
BBX 11 11 1 -1
BITMAP
F1E0
71C0
71C0
71C0
7FC0
71C0
71C0
71C0
71C0
71C0
F1E0
ENDCHAR
STARTCHAR 0398
ENCODING 920
SWIDTH 1040 0
DWIDTH 13 0
BBX 11 11 1 -1
BITMAP
1F00
3180
60C0
ED60
EF60
ED60
ED60
ED40
60C0
3180
1F00
ENDCHAR
STARTCHAR 0399
ENCODING 921
SWIDTH 1040 0
DWIDTH 13 0
BBX 6 11 3 -1
BITMAP
FC
78
78
78
78
78
78
78
78
78
FC
ENDCHAR
STARTCHAR 039A
ENCODING 922
SWIDTH 1040 0
DWIDTH 13 0
BBX 12 11 0 -1
BITMAP
F7E0
7380
7380
7700
7780
7780
7BC0
73C0
73C0
70E0
F3F0
ENDCHAR
STARTCHAR 039B
ENCODING 923
SWIDTH 1040 0
DWIDTH 13 0
BBX 11 11 1 -1
BITMAP
0E00
0E00
1F00
1F00
3780
3780
3780
27C0
61C0
61C0
F1E0
ENDCHAR
STARTCHAR 039C
ENCODING 924
SWIDTH 1040 0
DWIDTH 13 0
BBX 12 11 0 -1
BITMAP
F0F0
70E0
70E0
7BE0
7BE0
6B60
6F60
6E60
6EE0
6EE0
F0F0
ENDCHAR
STARTCHAR 039D
ENCODING 925
SWIDTH 1040 0
DWIDTH 13 0
BBX 11 11 1 -1
BITMAP
E1E0
70C0
7CC0
7EC0
6EC0
6F40
6F40
6F40
67C0
61C0
F0C0
ENDCHAR
STARTCHAR 039E
ENCODING 926
SWIDTH 1040 0
DWIDTH 13 0
BBX 11 11 1 -1
BITMAP
7FE0
7FC0
C0C0
0000
3F80
3F80
0000
6060
6060
7FC0
FFC0
ENDCHAR
STARTCHAR 039F
ENCODING 927
SWIDTH 1040 0
DWIDTH 13 0
BBX 11 11 1 -1
BITMAP
1F00
3180
71C0
E0E0
E0E0
E0E0
E0E0
F0C0
71C0
3180
1F00
ENDCHAR
STARTCHAR 03A0
ENCODING 928
SWIDTH 1040 0
DWIDTH 13 0
BBX 11 11 1 -1
BITMAP
FFE0
71C0
71C0
71C0
71C0
71C0
71C0
71C0
71C0
71C0
FDE0
ENDCHAR
STARTCHAR 03A1
ENCODING 929
SWIDTH 1040 0
DWIDTH 13 0
BBX 11 11 1 -1
BITMAP
FF80
71C0
70E0
70E0
71C0
7F80
7000
7000
7000
7000
FC00
ENDCHAR
STARTCHAR 03A3
ENCODING 931
SWIDTH 1040 0
DWIDTH 13 0
BBX 11 11 1 -1
BITMAP
FFC0
70C0
3C60
1E00
0F00
0F00
1E00
1C60
3C60
70C0
FFC0
ENDCHAR
STARTCHAR 03A4
ENCODING 932
SWIDTH 1040 0
DWIDTH 13 0
BBX 12 11 0 -1
BITMAP
7FE0
6F60
CF30
0F00
0F00
0F00
0F00
0F00
0F00
0F00
1F80
ENDCHAR
STARTCHAR 03A5
ENCODING 933
SWIDTH 1040 0
DWIDTH 13 0
BBX 12 11 0 -1
BITMAP
3BC0
7FE0
6F60
CF30
0F00
0F00
0F00
0F00
0F00
0F00
1F80
ENDCHAR
STARTCHAR 03A6
ENCODING 934
SWIDTH 1040 0
DWIDTH 13 0
BBX 12 11 0 -1
BITMAP
3FC0
0F00
3FC0
6F60
EF70
EF70
6F60
6F40
3FC0
0F00
3FC0
ENDCHAR
STARTCHAR 03A7
ENCODING 935
SWIDTH 1040 0
DWIDTH 13 0
BBX 11 11 1 -1
BITMAP
F1E0
70C0
3D80
3F00
1F00
1F00
1D80
1180
3780
61C0
F1E0
ENDCHAR
STARTCHAR 03A8
ENCODING 936
SWIDTH 1040 0
DWIDTH 13 0
BBX 12 11 0 -1
BITMAP
3FC0
0F00
EF70
7760
7760
7760
3740
37C0
1F80
0F00
3FC0
ENDCHAR
STARTCHAR 03A9
ENCODING 937
SWIDTH 1040 0
DWIDTH 13 0
BBX 11 11 1 -1
BITMAP
1F00
3180
71C0
E0E0
E0E0
E0E0
71C0
7180
3180
DD60
FDE0
ENDCHAR
STARTCHAR 03B1
ENCODING 945
SWIDTH 1040 0
DWIDTH 13 0
BBX 9 7 2 -1
BITMAP
3E80
6380
C300
C200
CE00
DE80
7B00
ENDCHAR
STARTCHAR 03B2
ENCODING 946
SWIDTH 1040 0
DWIDTH 13 0
BBX 10 12 1 -2
BITMAP
0780
0EC0
1CC0
1CC0
3780
3180
30C0
30C0
70C0
6CC0
6F80
C000
ENDCHAR
STARTCHAR 03B3
ENCODING 947
SWIDTH 1040 0
DWIDTH 13 0
BBX 10 7 1 -1
BITMAP
7DC0
CF00
0E00
0E00
1E00
1E00
1C00
ENDCHAR
STARTCHAR 03B4
ENCODING 948
SWIDTH 1040 0
DWIDTH 13 0
BBX 9 11 2 -1
BITMAP
3E00
6300
3980
1D80
3E00
6300
C300
C300
C300
CE00
7C00
ENDCHAR
STARTCHAR 03B5
ENCODING 949
SWIDTH 1040 0
DWIDTH 13 0
BBX 8 7 2 -1
BITMAP
3E
63
3C
20
E0
C3
7E
ENDCHAR
STARTCHAR 03B6
ENCODING 950
SWIDTH 1040 0
DWIDTH 13 0
BBX 9 12 2 -2
BITMAP
6380
6F00
3E00
3800
6000
C000
C000
FC00
7C00
0E00
0E00
3C00
ENDCHAR
STARTCHAR 03B7
ENCODING 951
SWIDTH 1040 0
DWIDTH 13 0
BBX 9 8 2 -2
BITMAP
6F00
DD80
3980
2180
6180
6300
6300
0300
ENDCHAR
STARTCHAR 03B8
ENCODING 952
SWIDTH 1040 0
DWIDTH 13 0
BBX 9 11 2 -1
BITMAP
0F00
1D80
3980
6180
7F80
C300
C300
C200
CE00
DC00
7800
ENDCHAR
STARTCHAR 03B9
ENCODING 953
SWIDTH 1040 0
DWIDTH 13 0
BBX 7 7 2 -1
BITMAP
38
60
60
40
C0
DE
78
ENDCHAR
STARTCHAR 03BA
ENCODING 954
SWIDTH 1040 0
DWIDTH 13 0
BBX 10 7 1 -1
BITMAP
3780
36C0
3C00
2E00
6E00
6EC0
C780
ENDCHAR
STARTCHAR 03BB
ENCODING 955
SWIDTH 1040 0
DWIDTH 13 0
BBX 9 11 2 -1
BITMAP
3C00
0E00
0E00
0E00
1E00
3A00
3A00
2A00
6E00
C300
C180
ENDCHAR
STARTCHAR 03BC
ENCODING 956
SWIDTH 1040 0
DWIDTH 13 0
BBX 10 8 1 -2
BITMAP
3180
3180
3700
2700
6700
6F40
DD80
C000
ENDCHAR
STARTCHAR 03BD
ENCODING 957
SWIDTH 1040 0
DWIDTH 13 0
BBX 9 7 2 -1
BITMAP
C180
6180
6300
6200
6E00
FC00
C000
ENDCHAR
STARTCHAR 03BE
ENCODING 958
SWIDTH 1040 0
DWIDTH 13 0
BBX 8 12 2 -2
BITMAP
3C
78
3F
60
78
DF
C0
E0
60
3C
0E
7C
ENDCHAR
STARTCHAR 03BF
ENCODING 959
SWIDTH 1040 0
DWIDTH 13 0
BBX 8 7 2 -1
BITMAP
3E
63
C3
C3
C3
CE
7C
ENDCHAR
STARTCHAR 03C0
ENCODING 960
SWIDTH 1040 0
DWIDTH 13 0
BBX 10 8 1 -1
BITMAP
3CC0
6F80
DD00
3700
3700
3700
6700
C1C0
ENDCHAR
STARTCHAR 03C1
ENCODING 961
SWIDTH 1040 0
DWIDTH 13 0
BBX 9 8 2 -2
BITMAP
1F00
3980
6180
6180
6180
DB00
DE00
C000
ENDCHAR
STARTCHAR 03C2
ENCODING 962
SWIDTH 1040 0
DWIDTH 13 0
BBX 9 9 2 -2
BITMAP
3F00
6180
C180
C180
E100
6300
3800
DC00
7800
ENDCHAR
STARTCHAR 03C3
ENCODING 963
SWIDTH 1040 0
DWIDTH 13 0
BBX 9 8 2 -1
BITMAP
0F80
3E00
6300
C300
C300
C300
CE00
7C00
ENDCHAR
STARTCHAR 03C4
ENCODING 964
SWIDTH 1040 0
DWIDTH 13 0
BBX 10 8 1 -1
BITMAP
3CC0
6F80
DC00
1C00
1000
3000
3780
1E00
ENDCHAR
STARTCHAR 03C5
ENCODING 965
SWIDTH 1040 0
DWIDTH 13 0
BBX 9 7 2 -1
BITMAP
6300
6180
6180
4100
C300
CE00
7C00
ENDCHAR
STARTCHAR 03C6
ENCODING 966
SWIDTH 1040 0
DWIDTH 13 0
BBX 9 10 2 -2
BITMAP
0E00
0E00
3F00
6D80
DD80
DD00
DD00
7E00
3800
3800
ENDCHAR
STARTCHAR 03C7
ENCODING 967
SWIDTH 1040 0
DWIDTH 13 0
BBX 10 8 1 -2
BITMAP
3CC0
6E80
0F00
0E00
1E00
3600
6E00
C780
ENDCHAR
STARTCHAR 03C8
ENCODING 968
SWIDTH 1040 0
DWIDTH 13 0
BBX 10 11 1 -2
BITMAP
0180
0180
0700
F780
3740
6EC0
6E80
6E80
3F00
1C00
1C00
ENDCHAR
STARTCHAR 03C9
ENCODING 969
SWIDTH 1040 0
DWIDTH 13 0
BBX 11 7 1 -1
BITMAP
30C0
6E60
6E60
4E60
CE60
DEC0
7780
ENDCHAR
STARTCHAR 0401
ENCODING 1025
SWIDTH 1040 0
DWIDTH 13 0
BBX 11 11 1 -1
BITMAP
7780
7780
FFC0
7060
7180
7F80
7180
71E0
7060
70C0
FFC0
ENDCHAR
STARTCHAR 0410
ENCODING 1040
SWIDTH 1040 0
DWIDTH 13 0
BBX 12 11 0 -1
BITMAP
0700
0700
0F80
0F80
1BC0
1FC0
3BC0
33E0
30E0
70E0
F8F0
ENDCHAR
STARTCHAR 0411
ENCODING 1041
SWIDTH 1040 0
DWIDTH 13 0
BBX 11 11 1 -1
BITMAP
FFC0
70C0
7060
7000
7F80
70C0
70E0
70E0
70E0
70C0
FF80
ENDCHAR
STARTCHAR 0412
ENCODING 1042
SWIDTH 1040 0
DWIDTH 13 0
BBX 11 11 1 -1
BITMAP
FF00
7180
71C0
71C0
7F80
70C0
70E0
70E0
70E0
70C0
FF80
ENDCHAR
STARTCHAR 0413
ENCODING 1043
SWIDTH 1040 0
DWIDTH 13 0
BBX 10 11 2 -1
BITMAP
FF80
7980
78C0
7800
7800
7800
7800
7800
7800
7800
FC00
ENDCHAR
STARTCHAR 0414
ENCODING 1044
SWIDTH 1040 0
DWIDTH 13 0
BBX 11 12 1 -2
BITMAP
3FE0
1DC0
1DC0
1DC0
1DC0
1DC0
31C0
31C0
31C0
61C0
FFE0
C060
ENDCHAR
STARTCHAR 0415
ENCODING 1045
SWIDTH 1040 0
DWIDTH 13 0
BBX 11 11 1 -1
BITMAP
FFC0
70C0
7060
7180
7F80
7180
7000
7060
7060
70C0
FFC0
ENDCHAR
STARTCHAR 0416
ENCODING 1046
SWIDTH 1040 0
DWIDTH 13 0
BBX 12 11 0 -1
BITMAP
EF70
6F60
6F60
3740
1F80
1F80
3740
3760
6F60
6F60
F770
ENDCHAR
STARTCHAR 0417
ENCODING 1047
SWIDTH 1040 0
DWIDTH 13 0
BBX 10 11 1 -1
BITMAP
1F00
7780
61C0
0180
1F00
0180
01C0
C1C0
C1C0
6780
3E00
ENDCHAR
STARTCHAR 0418
ENCODING 1048
SWIDTH 1040 0
DWIDTH 13 0
BBX 11 11 1 -1
BITMAP
F1E0
71C0
77C0
77C0
76C0
76C0
7DC0
7DC0
7DC0
71C0
F1E0
ENDCHAR
STARTCHAR 0419
ENCODING 1049
SWIDTH 1040 0
DWIDTH 13 0
BBX 11 11 1 -1
BITMAP
3D80
3D80
F1E0
71C0
77C0
76C0
76C0
7EC0
7DC0
71C0
F1E0
ENDCHAR
STARTCHAR 041A
ENCODING 1050
SWIDTH 1040 0
DWIDTH 13 0
BBX 12 11 0 -1
BITMAP
F0E0
73B0
73B0
7700
7780
7780
7BC0
73C0
73C0
70E0
F3F0
ENDCHAR
STARTCHAR 041B
ENCODING 1051
SWIDTH 1040 0
DWIDTH 13 0
BBX 12 11 0 -1
BITMAP
1FF0
0EE0
0EE0
0EE0
0EE0
0EE0
0EE0
E8E0
E8E0
E8E0
70F0
ENDCHAR
STARTCHAR 041C
ENCODING 1052
SWIDTH 1040 0
DWIDTH 13 0
BBX 12 11 0 -1
BITMAP
7BE0
3BC0
3BC0
3EC0
3FC0
3740
7760
7760
7760
70E0
F0F0
ENDCHAR
STARTCHAR 041D
ENCODING 1053
SWIDTH 1040 0
DWIDTH 13 0
BBX 11 11 1 -1
BITMAP
F1E0
71C0
71C0
71C0
7FC0
71C0
71C0
71C0
71C0
71C0
F1E0
ENDCHAR
STARTCHAR 041E
ENCODING 1054
SWIDTH 1040 0
DWIDTH 13 0
BBX 11 11 1 -1
BITMAP
1F00
3180
71C0
E0E0
E0E0
E0E0
E0E0
F0C0
71C0
3180
1F00
ENDCHAR
STARTCHAR 041F
ENCODING 1055
SWIDTH 1040 0
DWIDTH 13 0
BBX 11 11 1 -1
BITMAP
FFE0
71C0
71C0
71C0
71C0
71C0
71C0
71C0
71C0
71C0
FDE0
ENDCHAR
STARTCHAR 0420
ENCODING 1056
SWIDTH 1040 0
DWIDTH 13 0
BBX 11 11 1 -1
BITMAP
FF80
71C0
70E0
70E0
71C0
7F80
7000
7000
7000
7000
FC00
ENDCHAR
STARTCHAR 0421
ENCODING 1057
SWIDTH 1040 0
DWIDTH 13 0
BBX 10 11 1 -1
BITMAP
1F40
31C0
70C0
E0C0
E000
E000
E000
F0C0
70C0
31C0
1F00
ENDCHAR
STARTCHAR 0422
ENCODING 1058
SWIDTH 1040 0
DWIDTH 13 0
BBX 12 11 0 -1
BITMAP
7FE0
6F60
CF30
0F00
0F00
0F00
0F00
0F00
0F00
0F00
1F80
ENDCHAR
STARTCHAR 0423
ENCODING 1059
SWIDTH 1040 0
DWIDTH 13 0
BBX 11 12 1 -2
BITMAP
F1E0
70C0
7CC0
3D80
1E80
1E80
0F00
0F00
0700
0E00
7600
7C00
ENDCHAR
STARTCHAR 0424
ENCODING 1060
SWIDTH 1040 0
DWIDTH 13 0
BBX 12 11 0 -1
BITMAP
3FC0
0F00
3FC0
6F60
EF70
EF70
6F60
6F40
3FC0
0F00
3FC0
ENDCHAR
STARTCHAR 0425
ENCODING 1061
SWIDTH 1040 0
DWIDTH 13 0
BBX 11 11 1 -1
BITMAP
F1E0
70C0
3D80
3F00
1F00
1F00
1D80
1180
3780
61C0
F1E0
ENDCHAR
STARTCHAR 0426
ENCODING 1062
SWIDTH 1040 0
DWIDTH 13 0
BBX 11 12 1 -2
BITMAP
F7E0
71C0
71C0
71C0
71C0
71C0
71C0
71C0
71C0
71C0
FFE0
0060
ENDCHAR
STARTCHAR 0427
ENCODING 1063
SWIDTH 1040 0
DWIDTH 13 0
BBX 11 11 1 -1
BITMAP
F1E0
71C0
71C0
71C0
71C0
3FC0
01C0
01C0
01C0
01C0
07E0
ENDCHAR
STARTCHAR 0428
ENCODING 1064
SWIDTH 1040 0
DWIDTH 13 0
BBX 12 11 0 -1
BITMAP
F770
7760
7760
7760
7760
7760
7760
7760
7760
7760
FFF0
ENDCHAR
STARTCHAR 0429
ENCODING 1065
SWIDTH 1040 0
DWIDTH 13 0
BBX 12 12 0 -2
BITMAP
F770
7760
7760
7760
7760
7760
7760
7760
7760
7760
FFF0
0030
ENDCHAR
STARTCHAR 042A
ENCODING 1066
SWIDTH 1040 0
DWIDTH 13 0
BBX 12 11 0 -1
BITMAP
7F00
6E00
DE00
1E00
1FE0
1E70
1E70
1E70
1E70
1E70
3FE0
ENDCHAR
STARTCHAR 042B
ENCODING 1067
SWIDTH 1040 0
DWIDTH 13 0
BBX 12 11 0 -1
BITMAP
F0F0
70E0
70E0
70E0
7F60
77E0
77E0
77E0
77E0
77E0
FF70
ENDCHAR
STARTCHAR 042C
ENCODING 1068
SWIDTH 1040 0
DWIDTH 13 0
BBX 10 11 1 -1
BITMAP
FC00
7000
7000
7000
7F80
71C0
71C0
71C0
71C0
71C0
FF80
ENDCHAR
STARTCHAR 042D
ENCODING 1069
SWIDTH 1040 0
DWIDTH 13 0
BBX 10 11 2 -1
BITMAP
3E00
E300
C380
01C0
3DC0
6FC0
01C0
C180
C380
E300
3E00
ENDCHAR
STARTCHAR 042E
ENCODING 1070
SWIDTH 1040 0
DWIDTH 13 0
BBX 12 11 0 -1
BITMAP
F3C0
7760
7770
7770
7770
7F70
7770
7770
7770
7760
F3C0
ENDCHAR
STARTCHAR 042F
ENCODING 1071
SWIDTH 1040 0
DWIDTH 13 0
BBX 11 11 1 -1
BITMAP
3FE0
71C0
E1C0
E1C0
71C0
3FC0
3DC0
31C0
31C0
71C0
C7E0
ENDCHAR
STARTCHAR 0430
ENCODING 1072
SWIDTH 1040 0
DWIDTH 13 0
BBX 9 7 2 -1
BITMAP
7F00
0380
7F80
6380
E380
E380
7E80
ENDCHAR
STARTCHAR 0431
ENCODING 1073
SWIDTH 1040 0
DWIDTH 13 0
BBX 9 11 2 -1
BITMAP
0300
3E00
6000
6000
FE00
E300
E380
E380
E380
6300
3E00
ENDCHAR
STARTCHAR 0432
ENCODING 1074
SWIDTH 1040 0
DWIDTH 13 0
BBX 9 7 2 -1
BITMAP
FF00
7B80
7F00
7B80
7B80
7B80
FF00
ENDCHAR
STARTCHAR 0433
ENCODING 1075
SWIDTH 1040 0
DWIDTH 13 0
BBX 9 7 2 -1
BITMAP
FF00
7980
7800
7800
7800
7800
FC00
ENDCHAR
STARTCHAR 0434
ENCODING 1076
SWIDTH 1040 0
DWIDTH 13 0
BBX 9 8 2 -2
BITMAP
7F80
3B00
3B00
3B00
3B00
6F00
FF00
C180
ENDCHAR
STARTCHAR 0435
ENCODING 1077
SWIDTH 1040 0
DWIDTH 13 0
BBX 9 7 2 -1
BITMAP
3E00
6300
FF80
E000
E000
6300
3E00
ENDCHAR
STARTCHAR 0436
ENCODING 1078
SWIDTH 1040 0
DWIDTH 13 0
BBX 10 7 1 -1
BITMAP
EEC0
6E80
3F00
3F80
7F80
6E80
EEC0
ENDCHAR
STARTCHAR 0437
ENCODING 1079
SWIDTH 1040 0
DWIDTH 13 0
BBX 9 7 2 -1
BITMAP
7F00
C380
3F00
3F80
0380
C380
7F00
ENDCHAR
STARTCHAR 0438
ENCODING 1080
SWIDTH 1040 0
DWIDTH 13 0
BBX 11 7 1 -1
BITMAP
F1E0
77C0
76C0
76C0
76C0
7DC0
F1E0
ENDCHAR
STARTCHAR 0439
ENCODING 1081
SWIDTH 1040 0
DWIDTH 13 0
BBX 11 10 1 -1
BITMAP
3D80
1F00
0000
F1E0
77C0
76C0
76C0
76C0
7DC0
F1E0
ENDCHAR
STARTCHAR 043A
ENCODING 1082
SWIDTH 1040 0
DWIDTH 13 0
BBX 9 7 2 -1
BITMAP
FB80
7B80
7C00
7A00
7A00
7B00
FB80
ENDCHAR
STARTCHAR 043B
ENCODING 1083
SWIDTH 1040 0
DWIDTH 13 0
BBX 9 7 2 -1
BITMAP
7F80
3B00
3B00
3B00
3B00
EF00
EF80
ENDCHAR
STARTCHAR 043C
ENCODING 1084
SWIDTH 1040 0
DWIDTH 13 0
BBX 11 7 1 -1
BITMAP
F1E0
77C0
7DC0
6FC0
6EC0
6EC0
F1E0
ENDCHAR
STARTCHAR 043D
ENCODING 1085
SWIDTH 1040 0
DWIDTH 13 0
BBX 11 7 1 -1
BITMAP
F1E0
71C0
7FC0
71C0
71C0
71C0
F1E0
ENDCHAR
STARTCHAR 043E
ENCODING 1086
SWIDTH 1040 0
DWIDTH 13 0
BBX 9 7 2 -1
BITMAP
3E00
6300
E380
E380
E380
6300
3E00
ENDCHAR
STARTCHAR 043F
ENCODING 1087
SWIDTH 1040 0
DWIDTH 13 0
BBX 10 7 1 -1
BITMAP
FFC0
7780
7780
7780
7780
7780
F7C0
ENDCHAR
STARTCHAR 0440
ENCODING 1088
SWIDTH 1040 0
DWIDTH 13 0
BBX 9 8 2 -2
BITMAP
EF00
7B80
7B80
7B80
7B80
7F00
7800
FC00
ENDCHAR
STARTCHAR 0441
ENCODING 1089
SWIDTH 1040 0
DWIDTH 13 0
BBX 8 7 2 -1
BITMAP
3F
63
E0
E0
E0
63
3E
ENDCHAR
STARTCHAR 0442
ENCODING 1090
SWIDTH 1040 0
DWIDTH 13 0
BBX 10 7 1 -1
BITMAP
7F80
6E80
DEC0
DEC0
1E00
1E00
3F00
ENDCHAR
STARTCHAR 0443
ENCODING 1091
SWIDTH 1040 0
DWIDTH 13 0
BBX 10 8 1 -2
BITMAP
FDC0
7180
3D80
3D00
1F00
0F00
7600
7C00
ENDCHAR
STARTCHAR 0444
ENCODING 1092
SWIDTH 1040 0
DWIDTH 13 0
BBX 12 12 0 -2
BITMAP
0700
0F00
0F00
3740
6FA0
EF70
EF70
EFE0
6FA0
3740
0F00
1F80
ENDCHAR
STARTCHAR 0445
ENCODING 1093
SWIDTH 1040 0
DWIDTH 13 0
BBX 10 7 1 -1
BITMAP
F7C0
7D80
3F00
3F00
3F00
6F80
F7C0
ENDCHAR
STARTCHAR 0446
ENCODING 1094
SWIDTH 1040 0
DWIDTH 13 0
BBX 10 8 1 -2
BITMAP
F7C0
7780
7780
7780
7780
7780
7FC0
00C0
ENDCHAR
STARTCHAR 0447
ENCODING 1095
SWIDTH 1040 0
DWIDTH 13 0
BBX 10 7 1 -1
BITMAP
F7C0
7780
7780
7780
3F80
0780
0FC0
ENDCHAR
STARTCHAR 0448
ENCODING 1096
SWIDTH 1040 0
DWIDTH 13 0
BBX 12 7 0 -1
BITMAP
F770
7760
7760
7760
7760
7760
FFF0
ENDCHAR
STARTCHAR 0449
ENCODING 1097
SWIDTH 1040 0
DWIDTH 13 0
BBX 12 8 0 -2
BITMAP
F770
7760
7760
7760
7760
7760
FFF0
0030
ENDCHAR
STARTCHAR 044A
ENCODING 1098
SWIDTH 1040 0
DWIDTH 13 0
BBX 12 7 0 -1
BITMAP
7F80
6F00
CFE0
CF70
0F70
0F70
1FE0
ENDCHAR
STARTCHAR 044B
ENCODING 1099
SWIDTH 1040 0
DWIDTH 13 0
BBX 12 7 0 -1
BITMAP
FBF0
70E0
7EE0
7760
7760
7760
FEF0
ENDCHAR
STARTCHAR 044C
ENCODING 1100
SWIDTH 1040 0
DWIDTH 13 0
BBX 10 7 1 -1
BITMAP
FC00
7000
7F80
71C0
71C0
71C0
FF80
ENDCHAR
STARTCHAR 044D
ENCODING 1101
SWIDTH 1040 0
DWIDTH 13 0
BBX 10 7 1 -1
BITMAP
7F00
C180
3DC0
2FC0
6EC0
C180
7F00
ENDCHAR
STARTCHAR 044E
ENCODING 1102
SWIDTH 1040 0
DWIDTH 13 0
BBX 12 7 0 -1
BITMAP
FBC0
7760
7F70
7770
7770
7760
FBC0
ENDCHAR
STARTCHAR 044F
ENCODING 1103
SWIDTH 1040 0
DWIDTH 13 0
BBX 10 7 1 -1
BITMAP
3FC0
7780
7780
7780
3F80
7780
C7C0
ENDCHAR
STARTCHAR 0451
ENCODING 1105
SWIDTH 1040 0
DWIDTH 13 0
BBX 9 9 2 -1
BITMAP
7B00
7B00
3E00
6300
FF80
E000
E000
6300
3E00
ENDCHAR
STARTCHAR 1E3E
ENCODING 7742
SWIDTH 1040 0
DWIDTH 13 0
BBX 12 11 0 -1
BITMAP
0380
F770
76E0
7BE0
7BE0
6B60
6F60
6E60
6EE0
6EE0
F0F0
ENDCHAR
STARTCHAR 1E3F
ENCODING 7743
SWIDTH 1040 0
DWIDTH 13 0
BBX 12 10 1 -1
BITMAP
0700
0E00
1C00
EEC0
7760
7760
7760
7760
7760
F770
ENDCHAR
STARTCHAR 1F70
ENCODING 8048
SWIDTH 1040 0
DWIDTH 13 0
BBX 9 10 2 -1
BITMAP
3800
1C00
0E00
7D00
EF00
EF00
EF00
EF00
EF00
7D80
ENDCHAR
STARTCHAR 1F71
ENCODING 8049
SWIDTH 1040 0
DWIDTH 13 0
BBX 9 10 2 -1
BITMAP
0E00
1C00
3800
7D00
EF00
EF00
EF00
EF00
EF00
7D80
ENDCHAR
STARTCHAR 1F72
ENCODING 8050
SWIDTH 1040 0
DWIDTH 13 0
BBX 9 10 2 -1
BITMAP
3800
1C00
0E00
7F00
E180
7E00
6000
E000
E180
3F00
ENDCHAR
STARTCHAR 1F73
ENCODING 8051
SWIDTH 1040 0
DWIDTH 13 0
BBX 9 10 2 -1
BITMAP
0E00
1C00
3800
7F00
E180
7E00
6000
E000
E180
3F00
ENDCHAR
STARTCHAR 2000
ENCODING 8192
SWIDTH 1040 0
DWIDTH 13 0
BBX 0 0 0 0
BITMAP
ENDCHAR
STARTCHAR 2001
ENCODING 8193
SWIDTH 1040 0
DWIDTH 13 0
BBX 0 0 0 0
BITMAP
ENDCHAR
STARTCHAR 2002
ENCODING 8194
SWIDTH 1040 0
DWIDTH 13 0
BBX 0 0 0 0
BITMAP
ENDCHAR
STARTCHAR 2003
ENCODING 8195
SWIDTH 1040 0
DWIDTH 13 0
BBX 0 0 0 0
BITMAP
ENDCHAR
STARTCHAR 2004
ENCODING 8196
SWIDTH 1040 0
DWIDTH 13 0
BBX 0 0 0 0
BITMAP
ENDCHAR
STARTCHAR 2005
ENCODING 8197
SWIDTH 1040 0
DWIDTH 13 0
BBX 0 0 0 0
BITMAP
ENDCHAR
STARTCHAR 2006
ENCODING 8198
SWIDTH 1040 0
DWIDTH 13 0
BBX 0 0 0 0
BITMAP
ENDCHAR
STARTCHAR 2007
ENCODING 8199
SWIDTH 1040 0
DWIDTH 13 0
BBX 0 0 0 0
BITMAP
ENDCHAR
STARTCHAR 2008
ENCODING 8200
SWIDTH 1040 0
DWIDTH 13 0
BBX 0 0 0 0
BITMAP
ENDCHAR
STARTCHAR 2009
ENCODING 8201
SWIDTH 1040 0
DWIDTH 13 0
BBX 0 0 0 0
BITMAP
ENDCHAR
STARTCHAR 200A
ENCODING 8202
SWIDTH 1040 0
DWIDTH 13 0
BBX 0 0 0 0
BITMAP
ENDCHAR
STARTCHAR 200B
ENCODING 8203
SWIDTH 560 0
DWIDTH 7 0
BBX 0 0 0 0
BITMAP
ENDCHAR
STARTCHAR 200C
ENCODING 8204
SWIDTH 560 0
DWIDTH 7 0
BBX 0 0 0 0
BITMAP
ENDCHAR
STARTCHAR 200D
ENCODING 8205
SWIDTH 560 0
DWIDTH 7 0
BBX 0 0 0 0
BITMAP
ENDCHAR
STARTCHAR 200E
ENCODING 8206
SWIDTH 560 0
DWIDTH 7 0
BBX 0 0 0 0
BITMAP
ENDCHAR
STARTCHAR 200F
ENCODING 8207
SWIDTH 560 0
DWIDTH 7 0
BBX 0 0 0 0
BITMAP
ENDCHAR
STARTCHAR 2010
ENCODING 8208
SWIDTH 1040 0
DWIDTH 13 0
BBX 7 1 3 4
BITMAP
FE
ENDCHAR
STARTCHAR 2013
ENCODING 8211
SWIDTH 1040 0
DWIDTH 13 0
BBX 7 1 3 4
BITMAP
FE
ENDCHAR
STARTCHAR 2014
ENCODING 8212
SWIDTH 1040 0
DWIDTH 13 0
BBX 13 1 0 4
BITMAP
FFF8
ENDCHAR
STARTCHAR 2015
ENCODING 8213
SWIDTH 1040 0
DWIDTH 13 0
BBX 13 1 0 4
BITMAP
FFF8
ENDCHAR
STARTCHAR 2016
ENCODING 8214
SWIDTH 1040 0
DWIDTH 13 0
BBX 6 12 3 -2
BITMAP
DC
DC
DC
DC
DC
DC
DC
DC
DC
DC
DC
DC
ENDCHAR
STARTCHAR 2018
ENCODING 8216
SWIDTH 1040 0
DWIDTH 13 0
BBX 3 4 8 6
BITMAP
60
C0
E0
E0
ENDCHAR
STARTCHAR 2019
ENCODING 8217
SWIDTH 1040 0
DWIDTH 13 0
BBX 3 4 2 6
BITMAP
E0
E0
60
C0
ENDCHAR
STARTCHAR 201C
ENCODING 8220
SWIDTH 1040 0
DWIDTH 13 0
BBX 7 4 5 6
BITMAP
76
EC
F6
F6
ENDCHAR
STARTCHAR 201D
ENCODING 8221
SWIDTH 1040 0
DWIDTH 13 0
BBX 7 4 1 6
BITMAP
EE
EE
6E
DC
ENDCHAR
STARTCHAR 2020
ENCODING 8224
SWIDTH 1040 0
DWIDTH 13 0
BBX 9 13 2 -2
BITMAP
1C00
3E00
6D00
FF80
6D00
1C00
3E00
3E00
3C00
1C00
1C00
1C00
1C00
ENDCHAR
STARTCHAR 2021
ENCODING 8225
SWIDTH 1040 0
DWIDTH 13 0
BBX 9 12 2 -2
BITMAP
1C00
6D00
FF80
6D00
1C00
1C00
1C00
2D00
6D00
FF80
6D00
1C00
ENDCHAR
STARTCHAR 2022
ENCODING 8226
SWIDTH 1040 0
DWIDTH 13 0
BBX 7 6 3 2
BITMAP
7C
FE
FE
FE
7C
7C
ENDCHAR
STARTCHAR 2025
ENCODING 8229
SWIDTH 1040 0
DWIDTH 13 0
BBX 9 2 2 4
BITMAP
E380
E380
ENDCHAR
STARTCHAR 2026
ENCODING 8230
SWIDTH 1040 0
DWIDTH 13 0
BBX 12 2 0 4
BITMAP
EF70
EF70
ENDCHAR
STARTCHAR 2030
ENCODING 8240
SWIDTH 1040 0
DWIDTH 13 0
BBX 13 12 0 -2
BITMAP
3380
6B80
EB00
EB00
6E00
3F60
1ED0
16D8
36D8
36D8
6ED0
6760
ENDCHAR
STARTCHAR 2032
ENCODING 8242
SWIDTH 1040 0
DWIDTH 13 0
BBX 4 3 1 6
BITMAP
70
E0
C0
ENDCHAR
STARTCHAR 2033
ENCODING 8243
SWIDTH 1040 0
DWIDTH 13 0
BBX 8 4 0 6
BITMAP
30
77
EE
18
ENDCHAR
STARTCHAR 203B
ENCODING 8251
SWIDTH 1040 0
DWIDTH 13 0
BBX 11 10 1 -1
BITMAP
CE60
6EC0
3180
1D00
EEE0
1D00
1180
3180
6EC0
CE60
ENDCHAR
STARTCHAR 203C
ENCODING 8252
SWIDTH 1040 0
DWIDTH 13 0
BBX 7 11 3 -1
BITMAP
DC
F6
F6
F6
F4
DC
DC
DC
00
F6
F6
ENDCHAR
STARTCHAR 203E
ENCODING 8254
SWIDTH 1040 0
DWIDTH 13 0
BBX 13 1 0 9
BITMAP
FFF8
ENDCHAR
STARTCHAR 203F
ENCODING 8255
SWIDTH 1040 0
DWIDTH 13 0
BBX 11 3 1 -2
BITMAP
C060
60C0
3F80
ENDCHAR
STARTCHAR 2042
ENCODING 8258
SWIDTH 1040 0
DWIDTH 13 0
BBX 13 12 0 -2
BITMAP
0700
1B40
0F80
0F80
1B40
3760
D6A8
DEB8
78F0
78F0
D6A8
3060
ENDCHAR
STARTCHAR 2047
ENCODING 8263
SWIDTH 1040 0
DWIDTH 13 0
BBX 13 11 0 -1
BITMAP
38E0
6EB0
EFB8
EFB8
1E70
30C0
30C0
30C0
0000
30C0
30C0
ENDCHAR
STARTCHAR 2048
ENCODING 8264
SWIDTH 1040 0
DWIDTH 13 0
BBX 11 11 1 -1
BITMAP
3CC0
6EE0
EF60
EF60
1EE0
30C0
30C0
30C0
0000
30C0
30C0
ENDCHAR
STARTCHAR 2049
ENCODING 8265
SWIDTH 1040 0
DWIDTH 13 0
BBX 11 11 1 -1
BITMAP
C780
EEC0
EEE0
EEE0
E1C0
C700
C700
C700
0000
C700
C700
ENDCHAR
STARTCHAR 2051
ENCODING 8273
SWIDTH 1040 0
DWIDTH 13 0
BBX 7 12 3 -2
BITMAP
38
DA
7C
7C
DA
38
DA
DE
7C
7C
DA
38
ENDCHAR
STARTCHAR 20AC
ENCODING 8364
SWIDTH 1040 0
DWIDTH 13 0
BBX 11 11 0 -1
BITMAP
0F80
18E0
3860
FFC0
7000
FF80
7000
7860
3860
18E0
0F80
ENDCHAR
STARTCHAR 2103
ENCODING 8451
SWIDTH 1040 0
DWIDTH 13 0
BBX 13 11 0 -1
BITMAP
63C0
D768
DE38
6818
1800
1800
1800
1E18
1E18
0E30
07E0
ENDCHAR
STARTCHAR 210F
ENCODING 8463
SWIDTH 1040 0
DWIDTH 13 0
BBX 10 11 2 -1
BITMAP
FC00
3F00
3C00
F800
7F00
7980
6380
6300
E300
EF40
C380
ENDCHAR
STARTCHAR 2113
ENCODING 8467
SWIDTH 1040 0
DWIDTH 13 0
BBX 9 11 2 -1
BITMAP
0E00
1D00
3B00
3B00
6300
6E00
6E00
6D80
6D80
3B00
EE00
ENDCHAR
STARTCHAR 2116
ENCODING 8470
SWIDTH 1040 0
DWIDTH 13 0
BBX 13 11 0 -1
BITMAP
CE00
EE00
EE00
D6C0
D6A0
D730
D730
D730
DF30
DEB8
CED8
ENDCHAR
STARTCHAR 2121
ENCODING 8481
SWIDTH 1040 0
DWIDTH 13 0
BBX 13 11 0 -1
BITMAP
F7A0
EEA0
6E60
6E60
6FA0
6E60
6E60
6E60
6E60
6EA8
F7B8
ENDCHAR
STARTCHAR 2127
ENCODING 8487
SWIDTH 1040 0
DWIDTH 13 0
BBX 11 11 1 -1
BITMAP
FDE0
DD60
3180
71C0
E0E0
E0E0
E0E0
F0C0
71C0
3180
1F00
ENDCHAR
STARTCHAR 212B
ENCODING 8491
SWIDTH 1040 0
DWIDTH 13 0
BBX 11 11 1 -1
BITMAP
1F00
1D00
1F00
0E00
1D00
1D00
3180
3180
3F80
60C0
F1E0
ENDCHAR
STARTCHAR 2135
ENCODING 8501
SWIDTH 1040 0
DWIDTH 13 0
BBX 11 11 1 -1
BITMAP
6700
6180
71C0
3DE0
3F80
7F00
6780
67C0
61C0
71C0
E1C0
ENDCHAR
STARTCHAR 2153
ENCODING 8531
SWIDTH 1040 0
DWIDTH 13 0
BBX 11 12 1 -2
BITMAP
3000
F000
30C0
3180
3700
0E00
1DC0
11E0
3060
67C0
C060
07C0
ENDCHAR
STARTCHAR 2154
ENCODING 8532
SWIDTH 1040 0
DWIDTH 13 0
BBX 11 12 1 -2
BITMAP
F000
1C00
70C0
C180
FD00
0E00
1DC0
11E0
3060
67C0
C060
07C0
ENDCHAR
STARTCHAR 2155
ENCODING 8533
SWIDTH 1040 0
DWIDTH 13 0
BBX 11 12 1 -2
BITMAP
3000
F000
30C0
3180
3700
0E00
1DE0
1100
3700
67C0
C060
07C0
ENDCHAR
STARTCHAR 2160
ENCODING 8544
SWIDTH 1040 0
DWIDTH 13 0
BBX 6 11 3 -1
BITMAP
FC
78
78
78
78
78
78
78
78
78
FC
ENDCHAR
STARTCHAR 2161
ENCODING 8545
SWIDTH 1040 0
DWIDTH 13 0
BBX 10 11 1 -1
BITMAP
FFC0
7780
7780
7780
7780
7780
7780
7780
7780
7780
FFC0
ENDCHAR
STARTCHAR 2162
ENCODING 8546
SWIDTH 1040 0
DWIDTH 13 0
BBX 12 11 0 -1
BITMAP
FFF0
7760
7760
7760
7760
7760
7760
7760
7760
7760
FFF0
ENDCHAR
STARTCHAR 2163
ENCODING 8547
SWIDTH 1040 0
DWIDTH 13 0
BBX 12 11 0 -1
BITMAP
FEF0
7E60
7F60
7760
7740
77C0
77C0
7780
7780
7380
FB80
ENDCHAR
STARTCHAR 2164
ENCODING 8548
SWIDTH 1040 0
DWIDTH 13 0
BBX 11 11 1 -1
BITMAP
F1E0
70C0
70C0
3D80
3D80
3D80
1F00
1F00
1F00
0E00
0E00
ENDCHAR
STARTCHAR 2165
ENCODING 8549
SWIDTH 1040 0
DWIDTH 13 0
BBX 12 11 0 -1
BITMAP
F7F0
73E0
7BE0
3BE0
3B60
1F60
1F60
1F60
1EE0
0EE0
0EF0
ENDCHAR
STARTCHAR 2166
ENCODING 8550
SWIDTH 1040 0
DWIDTH 13 0
BBX 12 11 0 -1
BITMAP
F7F0
77A0
77A0
77A0
3EA0
3EA0
3EA0
38A0
1BA0
1BA0
1BF0
ENDCHAR
STARTCHAR 2167
ENCODING 8551
SWIDTH 1040 0
DWIDTH 13 0
BBX 13 11 0 -1
BITMAP
EFF8
EF50
EF50
7750
7B50
7B50
7B50
7350
3750
3750
37F8
ENDCHAR
STARTCHAR 2168
ENCODING 8552
SWIDTH 1040 0
DWIDTH 13 0
BBX 12 11 0 -1
BITMAP
FF70
7760
7740
77C0
7780
77C0
76C0
76E0
76E0
78E0
FEF0
ENDCHAR
STARTCHAR 2169
ENCODING 8553
SWIDTH 1040 0
DWIDTH 13 0
BBX 11 11 1 -1
BITMAP
F1E0
70C0
3D80
3F00
1F00
1F00
1D80
1180
3780
61C0
F1E0
ENDCHAR
STARTCHAR 216A
ENCODING 8554
SWIDTH 1040 0
DWIDTH 13 0
BBX 12 11 0 -1
BITMAP
F7F0
7760
76E0
3EE0
38E0
3EE0
6EE0
6F60
6F60
CF60
EFF0
ENDCHAR
STARTCHAR 216B
ENCODING 8555
SWIDTH 1040 0
DWIDTH 13 0
BBX 12 11 0 -1
BITMAP
F7F0
77A0
76A0
3EA0
3BA0
3EA0
6EA0
6EA0
6FA0
CFA0
EFF0
ENDCHAR
STARTCHAR 2170
ENCODING 8560
SWIDTH 1040 0
DWIDTH 13 0
BBX 6 10 3 -1
BITMAP
78
78
00
F8
78
78
78
78
78
FC
ENDCHAR
STARTCHAR 2171
ENCODING 8561
SWIDTH 1040 0
DWIDTH 13 0
BBX 9 10 2 -1
BITMAP
7B00
7B00
0000
FF00
7B00
7B00
7B00
7B00
7B00
FF80
ENDCHAR
STARTCHAR 2172
ENCODING 8562
SWIDTH 1040 0
DWIDTH 13 0
BBX 11 10 1 -1
BITMAP
76C0
76C0
0000
FFE0
76C0
76C0
76C0
76C0
76C0
FFE0
ENDCHAR
STARTCHAR 2173
ENCODING 8563
SWIDTH 1040 0
DWIDTH 13 0
BBX 11 10 1 -1
BITMAP
7000
7000
0000
FFE0
7740
7740
7740
77C0
7780
FD80
ENDCHAR
STARTCHAR 2174
ENCODING 8564
SWIDTH 1040 0
DWIDTH 13 0
BBX 10 7 1 -1
BITMAP
F7C0
7180
3D00
3D00
3F00
1E00
0E00
ENDCHAR
STARTCHAR 2175
ENCODING 8565
SWIDTH 1040 0
DWIDTH 13 0
BBX 11 10 1 -1
BITMAP
01C0
01C0
0000
FFC0
76C0
76C0
76C0
3EC0
3DC0
1DE0
ENDCHAR
STARTCHAR 2176
ENCODING 8566
SWIDTH 1040 0
DWIDTH 13 0
BBX 12 10 0 -1
BITMAP
03D0
03D0
0000
FFF0
76D0
76D0
76D0
3ED0
3BD0
1BF0
ENDCHAR
STARTCHAR 2177
ENCODING 8567
SWIDTH 1040 0
DWIDTH 13 0
BBX 13 10 0 -1
BITMAP
0750
0750
0000
FFF8
7750
7750
7F50
3B50
3B50
1BF8
ENDCHAR
STARTCHAR 2178
ENCODING 8568
SWIDTH 1040 0
DWIDTH 13 0
BBX 11 10 1 -1
BITMAP
7000
7000
0000
FFE0
7E80
7700
7780
7780
7DC0
FEE0
ENDCHAR
STARTCHAR 2179
ENCODING 8569
SWIDTH 1040 0
DWIDTH 13 0
BBX 11 7 1 -1
BITMAP
F1E0
7DC0
1F00
1F80
1F80
71C0
F1E0
ENDCHAR
STARTCHAR 217A
ENCODING 8570
SWIDTH 1040 0
DWIDTH 13 0
BBX 11 10 1 -1
BITMAP
01C0
01C0
0000
FFC0
76C0
3DC0
3EC0
3EC0
6FC0
F7E0
ENDCHAR
STARTCHAR 217B
ENCODING 8571
SWIDTH 1040 0
DWIDTH 13 0
BBX 13 10 0 -1
BITMAP
00D0
00D0
0000
FFF8
76D0
38D0
3ED0
3ED0
6F50
F7F8
ENDCHAR
STARTCHAR 2190
ENCODING 8592
SWIDTH 1040 0
DWIDTH 13 0
BBX 13 6 0 1
BITMAP
3000
6000
FFF8
6000
7000
3000
ENDCHAR
STARTCHAR 2191
ENCODING 8593
SWIDTH 1040 0
DWIDTH 13 0
BBX 7 12 3 -2
BITMAP
38
7C
DA
38
38
38
38
38
38
38
38
38
ENDCHAR
STARTCHAR 2192
ENCODING 8594
SWIDTH 1040 0
DWIDTH 13 0
BBX 13 6 0 1
BITMAP
0060
0030
FFF8
0030
0020
0060
ENDCHAR
STARTCHAR 2193
ENCODING 8595
SWIDTH 1040 0
DWIDTH 13 0
BBX 7 12 3 -2
BITMAP
38
38
38
38
38
38
38
38
38
DA
7C
38
ENDCHAR
STARTCHAR 2194
ENCODING 8596
SWIDTH 1040 0
DWIDTH 13 0
BBX 13 6 0 1
BITMAP
3060
6030
FFF8
6030
7020
3060
ENDCHAR
STARTCHAR 2196
ENCODING 8598
SWIDTH 1040 0
DWIDTH 13 0
BBX 12 11 0 -1
BITMAP
C000
7800
7000
6800
0E00
0700
0380
03C0
00C0
0060
0030
ENDCHAR
STARTCHAR 2197
ENCODING 8599
SWIDTH 1040 0
DWIDTH 13 0
BBX 12 11 0 -1
BITMAP
0030
03E0
00E0
03A0
0700
0E00
1800
1000
3000
6000
C000
ENDCHAR
STARTCHAR 2198
ENCODING 8600
SWIDTH 1040 0
DWIDTH 13 0
BBX 12 11 0 -1
BITMAP
C000
6000
3000
1800
0E00
0700
03A0
03A0
00E0
03E0
0030
ENDCHAR
STARTCHAR 2199
ENCODING 8601
SWIDTH 1040 0
DWIDTH 13 0
BBX 12 11 0 -1
BITMAP
0030
0060
00C0
0380
0700
0E00
6800
7800
7000
7800
C000
ENDCHAR
STARTCHAR 21C4
ENCODING 8644
SWIDTH 1040 0
DWIDTH 13 0
BBX 13 11 0 -1
BITMAP
0060
0030
FFF8
0030
0060
3000
6000
7FF8
FFF8
6000
3000
ENDCHAR
STARTCHAR 21D2
ENCODING 8658
SWIDTH 1040 0
DWIDTH 13 0
BBX 12 8 0 1
BITMAP
0380
00C0
FFE0
0030
FFE0
00C0
0080
0380
ENDCHAR
STARTCHAR 21D4
ENCODING 8660
SWIDTH 1040 0
DWIDTH 13 0
BBX 12 8 0 1
BITMAP
1B80
30C0
7FE0
C030
7FE0
30C0
3880
1B80
ENDCHAR
STARTCHAR 21E6
ENCODING 8678
SWIDTH 1040 0
DWIDTH 13 0
BBX 13 9 0 0
BITMAP
1800
3800
6FF8
C018
C018
6FF8
6800
3800
1800
ENDCHAR
STARTCHAR 21E7
ENCODING 8679
SWIDTH 1040 0
DWIDTH 13 0
BBX 10 12 1 -2
BITMAP
1E00
3700
6180
F7C0
3700
3700
3700
3700
3700
3700
3700
3F00
ENDCHAR
STARTCHAR 21E8
ENCODING 8680
SWIDTH 1040 0
DWIDTH 13 0
BBX 13 9 0 0
BITMAP
00C0
00E0
FFD0
C018
C018
FFD0
FFE0
00E0
00C0
ENDCHAR
STARTCHAR 21E9
ENCODING 8681
SWIDTH 1040 0
DWIDTH 13 0
BBX 10 12 1 -2
BITMAP
3F00
3700
3700
3700
3700
3700
3700
37C0
F7C0
6180
3700
1E00
ENDCHAR
STARTCHAR 2200
ENCODING 8704
SWIDTH 1040 0
DWIDTH 13 0
BBX 11 11 1 -1
BITMAP
C060
C060
7FC0
60C0
3180
3180
1D00
1D00
1D00
0E00
0E00
ENDCHAR
STARTCHAR 2202
ENCODING 8706
SWIDTH 1040 0
DWIDTH 13 0
BBX 9 11 2 -1
BITMAP
1E00
3B00
6180
0180
3E80
7B00
E300
E300
E300
EE00
7C00
ENDCHAR
STARTCHAR 2203
ENCODING 8707
SWIDTH 1040 0
DWIDTH 13 0
BBX 8 10 2 0
BITMAP
FF
03
03
03
FF
03
03
03
03
FF
ENDCHAR
STARTCHAR 2205
ENCODING 8709
SWIDTH 1040 0
DWIDTH 13 0
BBX 11 10 1 -1
BITMAP
0060
1F40
3180
6740
6EC0
6CC0
7C80
3180
6F00
C000
ENDCHAR
STARTCHAR 2207
ENCODING 8711
SWIDTH 1040 0
DWIDTH 13 0
BBX 11 11 1 -1
BITMAP
FFE0
FFE0
E060
70C0
70C0
3D80
3D80
3D00
1F00
1F00
0E00
ENDCHAR
STARTCHAR 2208
ENCODING 8712
SWIDTH 1040 0
DWIDTH 13 0
BBX 9 8 2 0
BITMAP
7F80
C000
C000
FF80
C000
C000
C000
7F80
ENDCHAR
STARTCHAR 2209
ENCODING 8713
SWIDTH 1040 0
DWIDTH 13 0
BBX 9 10 2 -1
BITMAP
1C00
7F80
DC00
DC00
FF80
DC00
DC00
DC00
7F80
1C00
ENDCHAR
STARTCHAR 220B
ENCODING 8715
SWIDTH 1040 0
DWIDTH 13 0
BBX 9 8 2 0
BITMAP
FF00
0180
0180
FF80
0180
0180
0180
FF00
ENDCHAR
STARTCHAR 2212
ENCODING 8722
SWIDTH 1040 0
DWIDTH 13 0
BBX 11 1 1 4
BITMAP
FFE0
ENDCHAR
STARTCHAR 2213
ENCODING 8723
SWIDTH 1040 0
DWIDTH 13 0
BBX 11 10 1 -1
BITMAP
FFE0
0000
0E00
0E00
0E00
FFE0
FE00
0E00
0E00
0E00
ENDCHAR
STARTCHAR 221A
ENCODING 8730
SWIDTH 1040 0
DWIDTH 13 0
BBX 13 11 0 -1
BITMAP
07F8
0700
0700
0700
0E00
0E00
6E00
6800
F800
3800
1800
ENDCHAR
STARTCHAR 221D
ENCODING 8733
SWIDTH 1040 0
DWIDTH 13 0
BBX 12 8 0 0
BITMAP
38E0
6EB0
C700
C700
C700
E6B0
6EB0
38E0
ENDCHAR
STARTCHAR 221E
ENCODING 8734
SWIDTH 1040 0
DWIDTH 13 0
BBX 13 8 0 0
BITMAP
38E0
6EB0
C718
C718
C718
E690
6EB0
38E0
ENDCHAR
STARTCHAR 221F
ENCODING 8735
SWIDTH 1040 0
DWIDTH 13 0
BBX 11 10 1 -1
BITMAP
C000
C000
C000
C000
C000
C000
C000
C000
C000
FFE0
ENDCHAR
STARTCHAR 2220
ENCODING 8736
SWIDTH 1040 0
DWIDTH 13 0
BBX 11 9 1 0
BITMAP
00C0
0180
0700
0E00
1C00
3000
2000
6000
FFE0
ENDCHAR
STARTCHAR 2225
ENCODING 8741
SWIDTH 1040 0
DWIDTH 13 0
BBX 11 12 1 -2
BITMAP
0700
0E60
0EC0
1CC0
1D80
3180
3700
2700
6700
6E00
CE00
1C00
ENDCHAR
STARTCHAR 2226
ENCODING 8742
SWIDTH 1040 0
DWIDTH 13 0
BBX 11 12 1 -2
BITMAP
0700
0E60
6EC0
3CC0
1D80
3F80
3700
2780
6780
6EC0
CE00
1C00
ENDCHAR
STARTCHAR 2227
ENCODING 8743
SWIDTH 1040 0
DWIDTH 13 0
BBX 11 9 1 0
BITMAP
0E00
1D00
1D00
3180
3180
60C0
60C0
60C0
C060
ENDCHAR
STARTCHAR 2228
ENCODING 8744
SWIDTH 1040 0
DWIDTH 13 0
BBX 11 9 1 0
BITMAP
C060
60C0
60C0
3180
3180
1D00
1D00
1D00
0E00
ENDCHAR
STARTCHAR 2229
ENCODING 8745
SWIDTH 1040 0
DWIDTH 13 0
BBX 9 10 2 -1
BITMAP
3E00
6300
C180
C180
C180
C180
C180
C180
C180
C180
ENDCHAR
STARTCHAR 222A
ENCODING 8746
SWIDTH 1040 0
DWIDTH 13 0
BBX 9 10 2 -1
BITMAP
C180
C180
C180
C180
C180
C180
C180
C180
6300
3E00
ENDCHAR
STARTCHAR 222B
ENCODING 8747
SWIDTH 1040 0
DWIDTH 13 0
BBX 5 12 4 -2
BITMAP
78
E8
E0
E0
70
70
70
78
38
38
E8
F0
ENDCHAR
STARTCHAR 222C
ENCODING 8748
SWIDTH 1040 0
DWIDTH 13 0
BBX 9 12 2 -2
BITMAP
7B80
DA80
CE00
CE00
6300
6300
6300
7B80
3980
3980
DA80
EF00
ENDCHAR
STARTCHAR 222E
ENCODING 8750
SWIDTH 1040 0
DWIDTH 13 0
BBX 7 12 3 -2
BITMAP
3C
74
70
7C
DA
DA
DA
DC
7C
1C
74
78
ENDCHAR
STARTCHAR 2234
ENCODING 8756
SWIDTH 1040 0
DWIDTH 13 0
BBX 10 8 1 0
BITMAP
1E00
1E00
0000
0000
0000
E1C0
E1C0
E1C0
ENDCHAR
STARTCHAR 2235
ENCODING 8757
SWIDTH 1040 0
DWIDTH 13 0
BBX 10 8 1 0
BITMAP
E1C0
E1C0
0000
0000
0000
1E00
1E00
1E00
ENDCHAR
STARTCHAR 223D
ENCODING 8765
SWIDTH 1040 0
DWIDTH 13 0
BBX 13 8 0 0
BITMAP
38E0
63B0
C398
C718
CE18
EE10
6E30
38E0
ENDCHAR
STARTCHAR 2243
ENCODING 8771
SWIDTH 1040 0
DWIDTH 13 0
BBX 13 7 0 1
BITMAP
3818
6FB0
C0E0
0000
0000
7FF0
7FF0
ENDCHAR
STARTCHAR 2245
ENCODING 8773
SWIDTH 1040 0
DWIDTH 13 0
BBX 13 8 0 0
BITMAP
3818
6FB0
C0E0
0000
7FF0
7FF0
0000
7FF0
ENDCHAR
STARTCHAR 2248
ENCODING 8776
SWIDTH 1040 0
DWIDTH 13 0
BBX 13 7 0 1
BITMAP
3818
6FB0
C0E0
3818
6FB0
4FA0
C0E0
ENDCHAR
STARTCHAR 2252
ENCODING 8786
SWIDTH 1040 0
DWIDTH 13 0
BBX 11 9 1 0
BITMAP
6000
6000
FFE0
0000
0000
FFE0
FF80
0180
0180
ENDCHAR
STARTCHAR 2260
ENCODING 8800
SWIDTH 1040 0
DWIDTH 13 0
BBX 11 9 1 0
BITMAP
0700
0700
FFE0
0E00
0E00
FFE0
FC00
1C00
1C00
ENDCHAR
STARTCHAR 2261
ENCODING 8801
SWIDTH 1040 0
DWIDTH 13 0
BBX 11 8 1 0
BITMAP
FFE0
0000
0000
FFE0
0000
0000
0000
FFE0
ENDCHAR
STARTCHAR 2262
ENCODING 8802
SWIDTH 1040 0
DWIDTH 13 0
BBX 11 12 1 -2
BITMAP
0180
0180
FFE0
0700
0E00
FFE0
0E00
0C00
1C00
FFE0
3000
3000
ENDCHAR
STARTCHAR 2266
ENCODING 8806
SWIDTH 1040 0
DWIDTH 13 0
BBX 11 11 1 -1
BITMAP
00E0
0780
1E00
F000
1E00
0780
00E0
00E0
FFE0
0000
FFE0
ENDCHAR
STARTCHAR 2267
ENCODING 8807
SWIDTH 1040 0
DWIDTH 13 0
BBX 11 11 1 -1
BITMAP
E000
3C00
0F00
01E0
0F00
3C00
E000
FFE0
FFE0
0000
FFE0
ENDCHAR
STARTCHAR 226A
ENCODING 8810
SWIDTH 1040 0
DWIDTH 13 0
BBX 10 10 1 0
BITMAP
0EC0
1D80
3700
6E00
DC00
6E00
3700
3F80
1D80
0EC0
ENDCHAR
STARTCHAR 226B
ENCODING 8811
SWIDTH 1040 0
DWIDTH 13 0
BBX 10 10 1 0
BITMAP
DC00
6E00
3700
1D80
0EC0
1D80
3700
2600
6E00
DC00
ENDCHAR
STARTCHAR 2276
ENCODING 8822
SWIDTH 1040 0
DWIDTH 13 0
BBX 11 11 1 -1
BITMAP
01E0
1F00
F000
1F00
01E0
F000
1F00
1FE0
01E0
1F00
F000
ENDCHAR
STARTCHAR 2277
ENCODING 8823
SWIDTH 1040 0
DWIDTH 13 0
BBX 11 11 1 -1
BITMAP
F000
1F00
01E0
1F00
F000
01E0
1F00
1000
F000
1F00
01E0
ENDCHAR
STARTCHAR 2282
ENCODING 8834
SWIDTH 1040 0
DWIDTH 13 0
BBX 11 8 1 0
BITMAP
3FE0
6000
C000
C000
C000
E000
6000
3FE0
ENDCHAR
STARTCHAR 2283
ENCODING 8835
SWIDTH 1040 0
DWIDTH 13 0
BBX 11 8 1 0
BITMAP
FF80
00C0
0060
0060
0060
0040
00C0
FF80
ENDCHAR
STARTCHAR 2284
ENCODING 8836
SWIDTH 1040 0
DWIDTH 13 0
BBX 11 10 1 -1
BITMAP
00C0
3FE0
6180
C700
CF00
CE00
EC00
6C00
3FE0
3000
ENDCHAR
STARTCHAR 2285
ENCODING 8837
SWIDTH 1040 0
DWIDTH 13 0
BBX 11 10 1 -1
BITMAP
0180
FF80
0740
0E60
1E60
1C60
1040
30C0
FF80
6000
ENDCHAR
STARTCHAR 2286
ENCODING 8838
SWIDTH 1040 0
DWIDTH 13 0
BBX 11 9 1 0
BITMAP
3FE0
6000
C000
C000
6000
3FE0
3FE0
0000
FFE0
ENDCHAR
STARTCHAR 2287
ENCODING 8839
SWIDTH 1040 0
DWIDTH 13 0
BBX 11 9 1 0
BITMAP
FF80
00C0
0060
0060
00C0
FF80
FF80
0000
FFE0
ENDCHAR
STARTCHAR 228A
ENCODING 8842
SWIDTH 1040 0
DWIDTH 13 0
BBX 11 11 1 -2
BITMAP
3FE0
6000
C000
C000
6000
3FE0
3F00
0700
FFE0
0E00
0E00
ENDCHAR
STARTCHAR 228B
ENCODING 8843
SWIDTH 1040 0
DWIDTH 13 0
BBX 11 11 1 -2
BITMAP
FF80
00C0
0060
0060
00C0
FF80
FF00
0700
FFE0
0E00
0E00
ENDCHAR
STARTCHAR 2295
ENCODING 8853
SWIDTH 1040 0
DWIDTH 13 0
BBX 13 12 0 -2
BITMAP
0F80
3B60
6730
6730
C718
FFF8
C718
E710
6730
6730
3B60
0F80
ENDCHAR
STARTCHAR 2296
ENCODING 8854
SWIDTH 1040 0
DWIDTH 13 0
BBX 13 12 0 -2
BITMAP
0F80
38E0
6030
6030
C018
FFF8
C018
E010
6030
6030
38E0
0F80
ENDCHAR
STARTCHAR 2297
ENCODING 8855
SWIDTH 1040 0
DWIDTH 13 0
BBX 13 12 0 -2
BITMAP
0F80
38E0
7070
68D0
CE98
C718
CE98
E8D0
68D0
7070
38E0
0F80
ENDCHAR
STARTCHAR 22A5
ENCODING 8869
SWIDTH 1040 0
DWIDTH 13 0
BBX 11 9 1 0
BITMAP
0E00
0E00
0E00
0E00
0E00
0E00
0E00
0E00
FFE0
ENDCHAR
STARTCHAR 22BF
ENCODING 8895
SWIDTH 1040 0
DWIDTH 13 0
BBX 11 10 1 -1
BITMAP
0060
00E0
01A0
0760
0E60
1C60
1060
3060
6060
FFE0
ENDCHAR
STARTCHAR 22DA
ENCODING 8922
SWIDTH 1040 0
DWIDTH 13 0
BBX 11 12 1 -2
BITMAP
01E0
1F00
F000
1F00
01E0
FFE0
F000
FF00
1F00
01E0
1F00
F000
ENDCHAR
STARTCHAR 22DB
ENCODING 8923
SWIDTH 1040 0
DWIDTH 13 0
BBX 11 12 1 -2
BITMAP
F000
1F00
01E0
1F00
F000
FFE0
01E0
0100
1F00
F000
1F00
01E0
ENDCHAR
STARTCHAR 2305
ENCODING 8965
SWIDTH 1040 0
DWIDTH 13 0
BBX 11 6 1 1
BITMAP
FFE0
0E00
1D00
3180
21C0
60C0
ENDCHAR
STARTCHAR 2306
ENCODING 8966
SWIDTH 1040 0
DWIDTH 13 0
BBX 11 8 1 0
BITMAP
FFE0
0000
FFE0
0E00
1D00
1180
3180
60C0
ENDCHAR
STARTCHAR 2312
ENCODING 8978
SWIDTH 1040 0
DWIDTH 13 0
BBX 13 2 0 8
BITMAP
3FE0
E038
ENDCHAR
STARTCHAR 2318
ENCODING 8984
SWIDTH 1040 0
DWIDTH 13 0
BBX 12 11 0 -1
BITMAP
70E0
DBB0
DBB0
7FF0
1B80
1B80
7FE0
5BB0
DBB0
DBB0
70E0
ENDCHAR
STARTCHAR 23BE
ENCODING 9150
SWIDTH 1040 0
DWIDTH 13 0
BBX 8 13 5 -2
BITMAP
FF
E0
E0
E0
E0
E0
E0
E0
E0
E0
E0
E0
E0
ENDCHAR
STARTCHAR 23BF
ENCODING 9151
SWIDTH 1040 0
DWIDTH 13 0
BBX 8 13 5 -2
BITMAP
E0
E0
E0
E0
E0
E0
E0
E0
E0
E0
E0
E0
FF
ENDCHAR
STARTCHAR 23C0
ENCODING 9152
SWIDTH 1040 0
DWIDTH 13 0
BBX 9 13 2 -2
BITMAP
1C00
1C00
1C00
3E00
6D00
DD80
DD80
DD80
ED00
6D00
3E00
1C00
1C00
ENDCHAR
STARTCHAR 23C1
ENCODING 9153
SWIDTH 1040 0
DWIDTH 13 0
BBX 13 13 0 -2
BITMAP
FFF8
0700
0700
0F80
1B40
3760
3760
3760
3B40
1B40
0F80
0700
0700
ENDCHAR
STARTCHAR 23C2
ENCODING 9154
SWIDTH 1040 0
DWIDTH 13 0
BBX 13 13 0 -2
BITMAP
0700
0700
0700
0F80
1B40
3760
3760
3760
3B40
1B40
0F80
0700
FFF8
ENDCHAR
STARTCHAR 23C3
ENCODING 9155
SWIDTH 1040 0
DWIDTH 13 0
BBX 11 13 1 -2
BITMAP
0E00
0E00
0E00
0E00
1F00
1F00
3680
6EC0
6EC0
6EC0
FFE0
0E00
0E00
ENDCHAR
STARTCHAR 23C4
ENCODING 9156
SWIDTH 1040 0
DWIDTH 13 0
BBX 13 13 0 -2
BITMAP
FFF8
0700
0700
0700
0F80
0F80
1B40
3760
3760
3760
7FF0
0700
0700
ENDCHAR
STARTCHAR 23C5
ENCODING 9157
SWIDTH 1040 0
DWIDTH 13 0
BBX 13 13 0 -2
BITMAP
0700
0700
0700
0700
0F80
0F80
1B40
3760
3760
3760
7FF0
0700
FFF8
ENDCHAR
STARTCHAR 23C6
ENCODING 9158
SWIDTH 1040 0
DWIDTH 13 0
BBX 11 13 1 -2
BITMAP
0E00
0E00
0E00
0E00
0E00
7600
DF60
0EC0
0EC0
0E00
0E00
0E00
0E00
ENDCHAR
STARTCHAR 23C7
ENCODING 9159
SWIDTH 1040 0
DWIDTH 13 0
BBX 13 13 0 -2
BITMAP
FFF8
0700
0700
0700
0700
3B00
6FB0
0760
0760
0700
0700
0700
0700
ENDCHAR
STARTCHAR 23C8
ENCODING 9160
SWIDTH 1040 0
DWIDTH 13 0
BBX 13 13 0 -2
BITMAP
0700
0700
0700
0700
0700
3B00
6FB0
0760
0760
0700
0700
0700
FFF8
ENDCHAR
STARTCHAR 23C9
ENCODING 9161
SWIDTH 1040 0
DWIDTH 13 0
BBX 13 13 0 -2
BITMAP
FFF8
0700
0700
0700
0700
0700
0700
0700
0700
0700
0700
0700
0700
ENDCHAR
STARTCHAR 23CA
ENCODING 9162
SWIDTH 1040 0
DWIDTH 13 0
BBX 13 13 0 -2
BITMAP
0700
0700
0700
0700
0700
0700
0700
0700
0700
0700
0700
0700
FFF8
ENDCHAR
STARTCHAR 23CB
ENCODING 9163
SWIDTH 1040 0
DWIDTH 13 0
BBX 8 13 0 -2
BITMAP
FF
07
07
07
07
07
07
07
07
07
07
07
07
ENDCHAR
STARTCHAR 23CC
ENCODING 9164
SWIDTH 1040 0
DWIDTH 13 0
BBX 8 13 0 -2
BITMAP
07
07
07
07
07
07
07
07
07
07
07
07
FF
ENDCHAR
STARTCHAR 23CE
ENCODING 9166
SWIDTH 1040 0
DWIDTH 13 0
BBX 12 11 0 -2
BITMAP
00F0
00D0
00D0
18D0
3BB0
6F30
4F20
C060
6FC0
3800
1800
ENDCHAR
STARTCHAR 2423
ENCODING 9251
SWIDTH 1040 0
DWIDTH 13 0
BBX 10 3 1 -2
BITMAP
C0C0
C0C0
FFC0
ENDCHAR
STARTCHAR 2460
ENCODING 9312
SWIDTH 1040 0
DWIDTH 13 0
BBX 13 12 0 -2
BITMAP
1FC0
3060
6730
CF18
C718
C718
C718
C718
C718
6FD0
3060
1FC0
ENDCHAR
STARTCHAR 2461
ENCODING 9313
SWIDTH 1040 0
DWIDTH 13 0
BBX 13 12 0 -2
BITMAP
1FC0
3060
6FB0
D8D8
C398
C718
CE18
C818
D818
6FD0
3060
1FC0
ENDCHAR
STARTCHAR 2462
ENCODING 9314
SWIDTH 1040 0
DWIDTH 13 0
BBX 13 12 0 -2
BITMAP
1FC0
3060
6FB0
D8D8
C0D8
C798
C0D8
D8D8
D8D8
6FB0
3060
1FC0
ENDCHAR
STARTCHAR 2463
ENCODING 9315
SWIDTH 1040 0
DWIDTH 13 0
BBX 13 12 0 -2
BITMAP
1FC0
3060
6730
CF18
DB18
DB18
DFD8
DF18
C718
6FB0
3060
1FC0
ENDCHAR
STARTCHAR 2464
ENCODING 9316
SWIDTH 1040 0
DWIDTH 13 0
BBX 13 12 0 -2
BITMAP
1FC0
3060
6FD0
D818
D818
DF98
C0D8
D8D8
D8D8
6FB0
3060
1FC0
ENDCHAR
STARTCHAR 2465
ENCODING 9317
SWIDTH 1040 0
DWIDTH 13 0
BBX 13 12 0 -2
BITMAP
1FC0
3060
6FB0
D8D8
D818
DF98
D8D8
D8D8
D8D8
6FB0
3060
1FC0
ENDCHAR
STARTCHAR 2466
ENCODING 9318
SWIDTH 1040 0
DWIDTH 13 0
BBX 13 12 0 -2
BITMAP
1FC0
3060
6FD0
D8D8
C398
C398
C718
C718
C718
6730
3060
1FC0
ENDCHAR
STARTCHAR 2467
ENCODING 9319
SWIDTH 1040 0
DWIDTH 13 0
BBX 13 12 0 -2
BITMAP
1FC0
3060
6FB0
D8D8
D8D8
CF98
D8D8
D8D8
D8D8
6FB0
3060
1FC0
ENDCHAR
STARTCHAR 2468
ENCODING 9320
SWIDTH 1040 0
DWIDTH 13 0
BBX 13 12 0 -2
BITMAP
1FC0
3060
6FB0
D8D8
D8D8
CFD8
C0D8
D8D8
D8D8
6FB0
3060
1FC0
ENDCHAR
STARTCHAR 2469
ENCODING 9321
SWIDTH 1040 0
DWIDTH 13 0
BBX 13 12 0 -2
BITMAP
3FE0
6030
DBD8
DB68
DB68
DB68
DB68
DB68
DB68
DED8
6030
3FE0
ENDCHAR
STARTCHAR 246A
ENCODING 9322
SWIDTH 1040 0
DWIDTH 13 0
BBX 13 12 0 -2
BITMAP
3FE0
6030
D8D8
DBD8
D8D8
D8D8
D8D8
D8D8
D8D8
DEE8
6030
3FE0
ENDCHAR
STARTCHAR 246B
ENCODING 9323
SWIDTH 1040 0
DWIDTH 13 0
BBX 13 12 0 -2
BITMAP
3FE0
6030
DBD8
DB68
D868
D8D8
DB98
DB18
DB18
DFE8
6030
3FE0
ENDCHAR
STARTCHAR 246C
ENCODING 9324
SWIDTH 1040 0
DWIDTH 13 0
BBX 13 12 0 -2
BITMAP
3FE0
6030
DBD8
DB68
D868
DBD8
D868
DB68
DB68
DED8
6030
3FE0
ENDCHAR
STARTCHAR 246D
ENCODING 9325
SWIDTH 1040 0
DWIDTH 13 0
BBX 13 12 0 -2
BITMAP
3FE0
6030
D8D8
DBD8
DB58
DED8
DFE8
D8C8
D8D8
DEE8
6030
3FE0
ENDCHAR
STARTCHAR 246E
ENCODING 9326
SWIDTH 1040 0
DWIDTH 13 0
BBX 13 12 0 -2
BITMAP
3FE0
6030
DBD8
DB18
DB18
DBD8
D868
DB68
DB68
DED8
6030
3FE0
ENDCHAR
STARTCHAR 246F
ENCODING 9327
SWIDTH 1040 0
DWIDTH 13 0
BBX 13 12 0 -2
BITMAP
3FE0
6030
DBD8
DB68
DB18
DBD8
DB68
DB68
DB68
DED8
6030
3FE0
ENDCHAR
STARTCHAR 2470
ENCODING 9328
SWIDTH 1040 0
DWIDTH 13 0
BBX 13 12 0 -2
BITMAP
3FE0
6030
DBE8
DB68
D8D8
DBD8
DB98
DB98
DB98
DE98
6030
3FE0
ENDCHAR
STARTCHAR 2471
ENCODING 9329
SWIDTH 1040 0
DWIDTH 13 0
BBX 13 12 0 -2
BITMAP
3FE0
6030
DBD8
DB68
DB68
DBD8
DB68
DB68
DB68
DED8
6030
3FE0
ENDCHAR
STARTCHAR 2472
ENCODING 9330
SWIDTH 1040 0
DWIDTH 13 0
BBX 13 12 0 -2
BITMAP
3FE0
6030
DBD8
DB68
DB68
DBE8
D868
DB68
DB68
DFD8
6030
3FE0
ENDCHAR
STARTCHAR 2473
ENCODING 9331
SWIDTH 1040 0
DWIDTH 13 0
BBX 13 12 0 -2
BITMAP
3FE0
6030
DEE8
D7A8
CFA8
DEA8
DBA8
D3A8
D3A8
DFE8
6030
3FE0
ENDCHAR
STARTCHAR 24D0
ENCODING 9424
SWIDTH 1040 0
DWIDTH 13 0
BBX 13 12 0 -2
BITMAP
1FC0
3060
6F30
C398
C398
DF98
D398
D398
D398
6F50
3060
1FC0
ENDCHAR
STARTCHAR 24D1
ENCODING 9425
SWIDTH 1040 0
DWIDTH 13 0
BBX 13 12 0 -2
BITMAP
1FC0
3060
6830
D818
DBD8
DE68
D868
DE68
DE68
6BD0
3060
1FC0
ENDCHAR
STARTCHAR 24D2
ENCODING 9426
SWIDTH 1040 0
DWIDTH 13 0
BBX 13 12 0 -2
BITMAP
1FC0
3060
6030
CF98
D8D8
D018
D018
D8D8
D8D8
6FB0
3060
1FC0
ENDCHAR
STARTCHAR 24D3
ENCODING 9427
SWIDTH 1040 0
DWIDTH 13 0
BBX 13 12 0 -2
BITMAP
1FC0
3060
60D0
C0D8
DF58
D3D8
D0D8
D0D8
D3D8
6F50
3060
1FC0
ENDCHAR
STARTCHAR 24D4
ENCODING 9428
SWIDTH 1040 0
DWIDTH 13 0
BBX 13 12 0 -2
BITMAP
1FC0
3060
6030
DF98
D0D8
DFD8
D018
D8D8
D8D8
6FB0
3060
1FC0
ENDCHAR
STARTCHAR 24D5
ENCODING 9429
SWIDTH 1040 0
DWIDTH 13 0
BBX 13 12 0 -2
BITMAP
1FC0
3060
63D0
C718
C718
DFD8
C718
C718
C718
6FB0
3060
1FC0
ENDCHAR
STARTCHAR 24D6
ENCODING 9430
SWIDTH 1040 0
DWIDTH 13 0
BBX 13 12 0 -2
BITMAP
1FC0
3060
6F50
DB98
DB98
DF18
D398
D3D8
D0D8
6FB0
3060
1FC0
ENDCHAR
STARTCHAR 24D7
ENCODING 9431
SWIDTH 1040 0
DWIDTH 13 0
BBX 13 12 0 -2
BITMAP
1FC0
3060
6830
D818
DB98
DED8
D8D8
D8D8
D8D8
68D0
3060
1FC0
ENDCHAR
STARTCHAR 24D8
ENCODING 9432
SWIDTH 1040 0
DWIDTH 13 0
BBX 13 12 0 -2
BITMAP
1FC0
3060
6730
C018
CF18
C718
C718
C718
C718
6FB0
3060
1FC0
ENDCHAR
STARTCHAR 24D9
ENCODING 9433
SWIDTH 1040 0
DWIDTH 13 0
BBX 13 12 0 -2
BITMAP
1FC0
3060
63B0
C018
C798
C398
C398
DB98
DB98
6BB0
3760
1FC0
ENDCHAR
STARTCHAR 24DA
ENCODING 9434
SWIDTH 1040 0
DWIDTH 13 0
BBX 13 12 0 -2
BITMAP
1FC0
3060
6830
DBD8
DB98
DB18
DF18
DB98
DB98
6BF0
3060
1FC0
ENDCHAR
STARTCHAR 24DB
ENCODING 9435
SWIDTH 1040 0
DWIDTH 13 0
BBX 13 12 0 -2
BITMAP
1FC0
3060
6F30
C718
C718
C718
C718
C718
C718
6FB0
3060
1FC0
ENDCHAR
STARTCHAR 24DC
ENCODING 9436
SWIDTH 1040 0
DWIDTH 13 0
BBX 13 12 0 -2
BITMAP
1FC0
3060
6030
DED8
D768
D768
D768
D768
D768
7BB0
3060
1FC0
ENDCHAR
STARTCHAR 24DD
ENCODING 9437
SWIDTH 1040 0
DWIDTH 13 0
BBX 13 12 0 -2
BITMAP
1FC0
3060
6030
DB98
DED8
D8D8
D8D8
D8D8
D8D8
7EF0
3060
1FC0
ENDCHAR
STARTCHAR 24DE
ENCODING 9438
SWIDTH 1040 0
DWIDTH 13 0
BBX 13 12 0 -2
BITMAP
1FC0
3060
6030
CF98
D8D8
D068
D068
D868
D8D8
6FB0
3060
1FC0
ENDCHAR
STARTCHAR 24DF
ENCODING 9439
SWIDTH 1040 0
DWIDTH 13 0
BBX 13 12 0 -2
BITMAP
1FC0
3060
6BD0
DE68
D868
DE68
DBD8
DBD8
D818
7E30
3060
1FC0
ENDCHAR
STARTCHAR 24E0
ENCODING 9440
SWIDTH 1040 0
DWIDTH 13 0
BBX 13 12 0 -2
BITMAP
1FC0
3060
6F50
D3D8
D0D8
D3D8
DF58
DF58
C0D8
63F0
3060
1FC0
ENDCHAR
STARTCHAR 24E1
ENCODING 9441
SWIDTH 1040 0
DWIDTH 13 0
BBX 13 12 0 -2
BITMAP
1FC0
3060
6030
DED8
CF68
CE18
CE18
CE18
CE18
6F30
3060
1FC0
ENDCHAR
STARTCHAR 24E2
ENCODING 9442
SWIDTH 1040 0
DWIDTH 13 0
BBX 13 12 0 -2
BITMAP
1FC0
3060
6FB0
D8D8
D818
CF98
C0D8
D8D8
D8D8
6FB0
3060
1FC0
ENDCHAR
STARTCHAR 24E3
ENCODING 9443
SWIDTH 1040 0
DWIDTH 13 0
BBX 13 12 0 -2
BITMAP
1FC0
3060
6E30
CE18
DFD8
CE18
CE18
CED8
CED8
67B0
3060
1FC0
ENDCHAR
STARTCHAR 24E4
ENCODING 9444
SWIDTH 1040 0
DWIDTH 13 0
BBX 13 12 0 -2
BITMAP
1FC0
3060
6030
D8D8
D8D8
D8D8
D8D8
D8D8
DBD8
6F50
3060
1FC0
ENDCHAR
STARTCHAR 24E5
ENCODING 9445
SWIDTH 1040 0
DWIDTH 13 0
BBX 13 12 0 -2
BITMAP
1FC0
3060
6030
DBE8
D8D8
DB98
CE98
CF98
CF18
6730
3060
1FC0
ENDCHAR
STARTCHAR 24E6
ENCODING 9446
SWIDTH 1040 0
DWIDTH 13 0
BBX 13 12 0 -2
BITMAP
1FC0
3060
6030
FB78
D768
D6A8
D6A8
D8E8
D8D8
68D0
3060
1FC0
ENDCHAR
STARTCHAR 24E7
ENCODING 9447
SWIDTH 1040 0
DWIDTH 13 0
BBX 13 12 0 -2
BITMAP
1FC0
3060
6030
DEE8
D8D8
CF98
CE98
C8D8
D8D8
7EF0
3060
1FC0
ENDCHAR
STARTCHAR 24E8
ENCODING 9448
SWIDTH 1040 0
DWIDTH 13 0
BBX 13 12 0 -2
BITMAP
1FC0
3060
6030
DEE8
D8D8
CED8
C798
D718
D718
6E30
3060
1FC0
ENDCHAR
STARTCHAR 24E9
ENCODING 9449
SWIDTH 1040 0
DWIDTH 13 0
BBX 13 12 0 -2
BITMAP
1FC0
3060
6030
DFD8
D398
C718
CE68
C848
D8D8
7FD0
3060
1FC0
ENDCHAR
STARTCHAR 24EB
ENCODING 9451
SWIDTH 1040 0
DWIDTH 13 0
BBX 13 12 0 -2
BITMAP
3FE0
7FF0
F7B8
EF78
F7B8
F7B8
F7B8
F7B8
F7B8
E738
7FF0
3FE0
ENDCHAR
STARTCHAR 24EC
ENCODING 9452
SWIDTH 1040 0
DWIDTH 13 0
BBX 13 12 0 -2
BITMAP
3FE0
7FF0
F778
EED8
F7D8
F7B8
F778
F678
F6F8
E038
7FF0
3FE0
ENDCHAR
STARTCHAR 24ED
ENCODING 9453
SWIDTH 1040 0
DWIDTH 13 0
BBX 13 12 0 -2
BITMAP
3FE0
7FF0
F778
EED8
F7D8
F778
F7D8
F6D8
F6D8
E778
7FF0
3FE0
ENDCHAR
STARTCHAR 24EE
ENCODING 9454
SWIDTH 1040 0
DWIDTH 13 0
BBX 13 12 0 -2
BITMAP
3FE0
7FF0
F7B8
EF78
F6B8
F7B8
F038
F7B8
F7B8
E738
7FF0
3FE0
ENDCHAR
STARTCHAR 24EF
ENCODING 9455
SWIDTH 1040 0
DWIDTH 13 0
BBX 13 12 0 -2
BITMAP
3FE0
7FF0
F678
EEF8
F6F8
F678
F7D8
F6D8
F6D8
E778
7FF0
3FE0
ENDCHAR
STARTCHAR 24F0
ENCODING 9456
SWIDTH 1040 0
DWIDTH 13 0
BBX 13 12 0 -2
BITMAP
3FE0
7FF0
F778
EED8
F6F8
F678
F6D8
F6D8
F6D8
E778
7FF0
3FE0
ENDCHAR
STARTCHAR 24F1
ENCODING 9457
SWIDTH 1040 0
DWIDTH 13 0
BBX 13 12 0 -2
BITMAP
3FE0
7FF0
F638
EED8
F7B8
F7B8
F778
F778
F778
E778
7FF0
3FE0
ENDCHAR
STARTCHAR 24F2
ENCODING 9458
SWIDTH 1040 0
DWIDTH 13 0
BBX 13 12 0 -2
BITMAP
3FE0
7FF0
F778
EED8
F6D8
F778
F6D8
F6D8
F6D8
E778
7FF0
3FE0
ENDCHAR
STARTCHAR 24F3
ENCODING 9459
SWIDTH 1040 0
DWIDTH 13 0
BBX 13 12 0 -2
BITMAP
3FE0
7FF0
F778
EED8
F6D8
F738
F7D8
F6D8
F6D8
E778
7FF0
3FE0
ENDCHAR
STARTCHAR 24F4
ENCODING 9460
SWIDTH 1040 0
DWIDTH 13 0
BBX 13 12 0 -2
BITMAP
3FE0
7FF0
F738
EED8
FED8
FB58
F758
F758
EF58
E038
7FF0
3FE0
ENDCHAR
STARTCHAR 24F5
ENCODING 9461
SWIDTH 1040 0
DWIDTH 13 0
BBX 13 12 0 -2
BITMAP
3FE0
6FD0
D068
EF38
E738
E738
E738
E7B8
EFB8
D068
6FD0
3FE0
ENDCHAR
STARTCHAR 24F6
ENCODING 9462
SWIDTH 1040 0
DWIDTH 13 0
BBX 13 12 0 -2
BITMAP
3FE0
6FD0
D068
EFB8
E3B8
E738
EE38
EFB8
EFB8
D068
6FD0
3FE0
ENDCHAR
STARTCHAR 24F7
ENCODING 9463
SWIDTH 1040 0
DWIDTH 13 0
BBX 13 12 0 -2
BITMAP
3FE0
6FD0
D068
EFB8
E3B8
EF38
E3B8
E3B8
EFB8
D068
6FD0
3FE0
ENDCHAR
STARTCHAR 24F8
ENCODING 9464
SWIDTH 1040 0
DWIDTH 13 0
BBX 13 12 0 -2
BITMAP
3FE0
6FD0
D068
E738
EF38
EB38
EFB8
EF38
E738
D068
6FD0
3FE0
ENDCHAR
STARTCHAR 24F9
ENCODING 9465
SWIDTH 1040 0
DWIDTH 13 0
BBX 13 12 0 -2
BITMAP
3FE0
6FD0
D068
EFB8
EE38
EFB8
E3B8
E3B8
EFB8
D068
6FD0
3FE0
ENDCHAR
STARTCHAR 24FA
ENCODING 9466
SWIDTH 1040 0
DWIDTH 13 0
BBX 13 12 0 -2
BITMAP
3FE0
6FD0
D068
E7B8
EE38
EFB8
EEB8
EEB8
EFB8
D068
6FD0
3FE0
ENDCHAR
STARTCHAR 24FB
ENCODING 9467
SWIDTH 1040 0
DWIDTH 13 0
BBX 13 12 0 -2
BITMAP
3FE0
6FD0
D068
EFB8
EEB8
E3B8
E738
E738
E738
D068
6FD0
3FE0
ENDCHAR
STARTCHAR 24FC
ENCODING 9468
SWIDTH 1040 0
DWIDTH 13 0
BBX 13 12 0 -2
BITMAP
3FE0
6FD0
D068
EFB8
EEB8
EFB8
EEB8
EEB8
EFB8
D068
6FD0
3FE0
ENDCHAR
STARTCHAR 24FD
ENCODING 9469
SWIDTH 1040 0
DWIDTH 13 0
BBX 13 12 0 -2
BITMAP
3FE0
6FD0
D068
EFB8
EEB8
EFB8
E3B8
E338
EF38
D068
6FD0
3FE0
ENDCHAR
STARTCHAR 24FE
ENCODING 9470
SWIDTH 1040 0
DWIDTH 13 0
BBX 13 12 0 -2
BITMAP
3FE0
6FD0
D068
EED8
EED8
EED8
EED8
EED8
EFD8
D068
6FD0
3FE0
ENDCHAR
STARTCHAR 2500
ENCODING 9472
SWIDTH 1040 0
DWIDTH 13 0
BBX 13 1 0 4
BITMAP
FFF8
ENDCHAR
STARTCHAR 2501
ENCODING 9473
SWIDTH 1040 0
DWIDTH 13 0
BBX 13 2 0 4
BITMAP
FFF8
FFF8
ENDCHAR
STARTCHAR 2502
ENCODING 9474
SWIDTH 1040 0
DWIDTH 13 0
BBX 3 13 5 -2
BITMAP
E0
E0
E0
E0
E0
E0
E0
E0
E0
E0
E0
E0
E0
ENDCHAR
STARTCHAR 2503
ENCODING 9475
SWIDTH 1040 0
DWIDTH 13 0
BBX 4 13 4 -2
BITMAP
F0
F0
F0
F0
F0
F0
F0
F0
F0
F0
F0
F0
F0
ENDCHAR
STARTCHAR 250C
ENCODING 9484
SWIDTH 1040 0
DWIDTH 13 0
BBX 8 7 5 -2
BITMAP
FF
E0
E0
E0
E0
E0
E0
ENDCHAR
STARTCHAR 250F
ENCODING 9487
SWIDTH 1040 0
DWIDTH 13 0
BBX 9 8 4 -2
BITMAP
FF80
FF80
F000
F000
F000
F000
F000
F000
ENDCHAR
STARTCHAR 2510
ENCODING 9488
SWIDTH 1040 0
DWIDTH 13 0
BBX 8 7 0 -2
BITMAP
FF
07
07
07
07
07
07
ENDCHAR
STARTCHAR 2513
ENCODING 9491
SWIDTH 1040 0
DWIDTH 13 0
BBX 8 8 0 -2
BITMAP
FF
FF
0F
0F
0F
0F
0F
0F
ENDCHAR
STARTCHAR 2514
ENCODING 9492
SWIDTH 1040 0
DWIDTH 13 0
BBX 8 7 5 4
BITMAP
E0
E0
E0
E0
E0
E0
FF
ENDCHAR
STARTCHAR 2517
ENCODING 9495
SWIDTH 1040 0
DWIDTH 13 0
BBX 9 7 4 4
BITMAP
F000
F000
F000
F000
F000
FF80
FF80
ENDCHAR
STARTCHAR 2518
ENCODING 9496
SWIDTH 1040 0
DWIDTH 13 0
BBX 8 7 0 4
BITMAP
07
07
07
07
07
07
FF
ENDCHAR
STARTCHAR 251B
ENCODING 9499
SWIDTH 1040 0
DWIDTH 13 0
BBX 8 7 0 4
BITMAP
0F
0F
0F
0F
0F
FF
FF
ENDCHAR
STARTCHAR 251C
ENCODING 9500
SWIDTH 1040 0
DWIDTH 13 0
BBX 8 13 5 -2
BITMAP
E0
E0
E0
E0
E0
E0
FF
E0
E0
E0
E0
E0
E0
ENDCHAR
STARTCHAR 251D
ENCODING 9501
SWIDTH 1040 0
DWIDTH 13 0
BBX 8 13 5 -2
BITMAP
E0
E0
E0
E0
E0
FF
FF
E0
E0
E0
E0
E0
E0
ENDCHAR
STARTCHAR 2520
ENCODING 9504
SWIDTH 1040 0
DWIDTH 13 0
BBX 9 13 4 -2
BITMAP
F000
F000
F000
F000
F000
F000
FF80
F000
F000
F000
F000
F000
F000
ENDCHAR
STARTCHAR 2523
ENCODING 9507
SWIDTH 1040 0
DWIDTH 13 0
BBX 9 13 4 -2
BITMAP
F000
F000
F000
F000
F000
FF80
FF80
F000
F000
F000
F000
F000
F000
ENDCHAR
STARTCHAR 2524
ENCODING 9508
SWIDTH 1040 0
DWIDTH 13 0
BBX 8 13 0 -2
BITMAP
07
07
07
07
07
07
FF
07
07
07
07
07
07
ENDCHAR
STARTCHAR 2525
ENCODING 9509
SWIDTH 1040 0
DWIDTH 13 0
BBX 8 13 0 -2
BITMAP
07
07
07
07
07
FF
FF
07
07
07
07
07
07
ENDCHAR
STARTCHAR 2528
ENCODING 9512
SWIDTH 1040 0
DWIDTH 13 0
BBX 8 13 0 -2
BITMAP
0F
0F
0F
0F
0F
0F
FF
0F
0F
0F
0F
0F
0F
ENDCHAR
STARTCHAR 252B
ENCODING 9515
SWIDTH 1040 0
DWIDTH 13 0
BBX 8 13 0 -2
BITMAP
0F
0F
0F
0F
0F
FF
FF
0F
0F
0F
0F
0F
0F
ENDCHAR
STARTCHAR 252C
ENCODING 9516
SWIDTH 1040 0
DWIDTH 13 0
BBX 13 7 0 -2
BITMAP
FFF8
0700
0700
0700
0700
0700
0700
ENDCHAR
STARTCHAR 252F
ENCODING 9519
SWIDTH 1040 0
DWIDTH 13 0
BBX 13 8 0 -2
BITMAP
FFF8
FFF8
0700
0700
0700
0700
0700
0700
ENDCHAR
STARTCHAR 2530
ENCODING 9520
SWIDTH 1040 0
DWIDTH 13 0
BBX 13 7 0 -2
BITMAP
FFF8
0F00
0F00
0F00
0F00
0F00
0F00
ENDCHAR
STARTCHAR 2533
ENCODING 9523
SWIDTH 1040 0
DWIDTH 13 0
BBX 13 8 0 -2
BITMAP
FFF8
FFF8
0F00
0F00
0F00
0F00
0F00
0F00
ENDCHAR
STARTCHAR 2534
ENCODING 9524
SWIDTH 1040 0
DWIDTH 13 0
BBX 13 7 0 4
BITMAP
0700
0700
0700
0700
0700
0700
FFF8
ENDCHAR
STARTCHAR 2537
ENCODING 9527
SWIDTH 1040 0
DWIDTH 13 0
BBX 13 7 0 4
BITMAP
0700
0700
0700
0700
0700
FFF8
FFF8
ENDCHAR
STARTCHAR 2538
ENCODING 9528
SWIDTH 1040 0
DWIDTH 13 0
BBX 13 7 0 4
BITMAP
0F00
0F00
0F00
0F00
0F00
0F00
FFF8
ENDCHAR
STARTCHAR 253B
ENCODING 9531
SWIDTH 1040 0
DWIDTH 13 0
BBX 13 7 0 4
BITMAP
0F00
0F00
0F00
0F00
0F00
FFF8
FFF8
ENDCHAR
STARTCHAR 253C
ENCODING 9532
SWIDTH 1040 0
DWIDTH 13 0
BBX 13 13 0 -2
BITMAP
0700
0700
0700
0700
0700
0700
FFF8
0700
0700
0700
0700
0700
0700
ENDCHAR
STARTCHAR 253F
ENCODING 9535
SWIDTH 1040 0
DWIDTH 13 0
BBX 13 13 0 -2
BITMAP
0700
0700
0700
0700
0700
FFF8
FFF8
0700
0700
0700
0700
0700
0700
ENDCHAR
STARTCHAR 2542
ENCODING 9538
SWIDTH 1040 0
DWIDTH 13 0
BBX 13 13 0 -2
BITMAP
0F00
0F00
0F00
0F00
0F00
0F00
FFF8
0F00
0F00
0F00
0F00
0F00
0F00
ENDCHAR
STARTCHAR 254B
ENCODING 9547
SWIDTH 1040 0
DWIDTH 13 0
BBX 13 13 0 -2
BITMAP
0F00
0F00
0F00
0F00
0F00
FFF8
FFF8
0F00
0F00
0F00
0F00
0F00
0F00
ENDCHAR
STARTCHAR 25A0
ENCODING 9632
SWIDTH 1040 0
DWIDTH 13 0
BBX 12 11 0 -1
BITMAP
FFF0
FFF0
FFF0
FFF0
FFF0
FFF0
FFF0
FFF0
FFF0
FFF0
FFF0
ENDCHAR
STARTCHAR 25A1
ENCODING 9633
SWIDTH 1040 0
DWIDTH 13 0
BBX 12 11 0 -1
BITMAP
FFF0
C030
C030
C030
C030
C030
C030
C030
C030
C030
FFF0
ENDCHAR
STARTCHAR 25B1
ENCODING 9649
SWIDTH 1040 0
DWIDTH 13 0
BBX 13 8 0 0
BITMAP
1FF8
3018
3030
6030
6060
4060
C060
FFC0
ENDCHAR
STARTCHAR 25B2
ENCODING 9650
SWIDTH 1040 0
DWIDTH 13 0
BBX 11 10 1 -1
BITMAP
0E00
1F00
1F00
3F80
3F80
7FC0
7FC0
7FC0
FFE0
FFE0
ENDCHAR
STARTCHAR 25B3
ENCODING 9651
SWIDTH 1040 0
DWIDTH 13 0
BBX 11 10 1 -1
BITMAP
0E00
1D00
1D00
3180
3180
60C0
60C0
60C0
C060
FFE0
ENDCHAR
STARTCHAR 25B6
ENCODING 9654
SWIDTH 1040 0
DWIDTH 13 0
BBX 11 10 1 -1
BITMAP
C000
F000
FE00
FF80
FFE0
FF80
FE00
FE00
F000
C000
ENDCHAR
STARTCHAR 25B7
ENCODING 9655
SWIDTH 1040 0
DWIDTH 13 0
BBX 11 10 1 -1
BITMAP
C000
F000
DE00
C780
C0E0
C780
C600
DE00
F000
C000
ENDCHAR
STARTCHAR 25BC
ENCODING 9660
SWIDTH 1040 0
DWIDTH 13 0
BBX 11 10 1 -1
BITMAP
FFE0
FFE0
7FC0
7FC0
3F80
3F80
3F00
1F00
1F00
0E00
ENDCHAR
STARTCHAR 25BD
ENCODING 9661
SWIDTH 1040 0
DWIDTH 13 0
BBX 11 10 1 -1
BITMAP
FFE0
C060
60C0
60C0
3180
3180
3D00
1D00
1D00
0E00
ENDCHAR
STARTCHAR 25C0
ENCODING 9664
SWIDTH 1040 0
DWIDTH 13 0
BBX 11 10 1 -1
BITMAP
0060
01E0
0FE0
3FE0
FFE0
3FE0
3FE0
0FE0
01E0
0060
ENDCHAR
STARTCHAR 25C1
ENCODING 9665
SWIDTH 1040 0
DWIDTH 13 0
BBX 11 10 1 -1
BITMAP
0060
01E0
0F60
3C60
E060
3C60
3F60
0F60
01E0
0060
ENDCHAR
STARTCHAR 25C6
ENCODING 9670
SWIDTH 1040 0
DWIDTH 13 0
BBX 13 12 0 -2
BITMAP
0700
0F80
1FC0
3FE0
7FF0
FFF8
7FF0
7FE0
3FE0
1FC0
0F80
0700
ENDCHAR
STARTCHAR 25C7
ENCODING 9671
SWIDTH 1040 0
DWIDTH 13 0
BBX 13 12 0 -2
BITMAP
0700
0E80
18C0
3060
6030
C018
6030
7020
3060
18C0
0E80
0700
ENDCHAR
STARTCHAR 25C9
ENCODING 9673
SWIDTH 1040 0
DWIDTH 13 0
BBX 13 12 0 -2
BITMAP
0F80
38E0
6FB0
6FD0
DFE8
DFE8
DFE8
EFD8
6FD0
6FB0
38E0
0F80
ENDCHAR
STARTCHAR 25CB
ENCODING 9675
SWIDTH 1040 0
DWIDTH 13 0
BBX 12 11 0 -1
BITMAP
0F00
3BC0
6060
6060
C030
C030
6060
6060
6060
3BC0
0F00
ENDCHAR
STARTCHAR 25CE
ENCODING 9678
SWIDTH 1040 0
DWIDTH 13 0
BBX 12 11 0 -1
BITMAP
0F00
3BC0
6F60
6BA0
D0D0
D0D0
6BA0
6BA0
6F60
3BC0
0F00
ENDCHAR
STARTCHAR 25CF
ENCODING 9679
SWIDTH 1040 0
DWIDTH 13 0
BBX 12 11 0 -1
BITMAP
0F00
3FC0
7FE0
7FE0
FFF0
FFF0
7FE0
7FE0
7FE0
3FC0
0F00
ENDCHAR
STARTCHAR 25D0
ENCODING 9680
SWIDTH 1040 0
DWIDTH 13 0
BBX 13 12 0 -2
BITMAP
0F80
3F60
7F30
7F30
FF18
FF18
FF18
FF10
7F30
7F30
3F60
0F80
ENDCHAR
STARTCHAR 25D1
ENCODING 9681
SWIDTH 1040 0
DWIDTH 13 0
BBX 13 12 0 -2
BITMAP
0F80
3BE0
67F0
67F0
C7F8
C7F8
C7F8
E7F0
67F0
67E0
3BC0
0F80
ENDCHAR
STARTCHAR 25D2
ENCODING 9682
SWIDTH 1040 0
DWIDTH 13 0
BBX 13 12 0 -2
BITMAP
0F80
38E0
6030
6030
C018
FFF8
FFF8
FFF0
7FF0
7FF0
3FE0
0F80
ENDCHAR
STARTCHAR 25D3
ENCODING 9683
SWIDTH 1040 0
DWIDTH 13 0
BBX 13 12 0 -2
BITMAP
0F80
3FE0
7FF0
7FF0
FFF8
FFF8
C018
E010
6030
6030
38E0
0F80
ENDCHAR
STARTCHAR 25E6
ENCODING 9702
SWIDTH 1040 0
DWIDTH 13 0
BBX 7 6 3 2
BITMAP
7C
F6
C6
F6
7C
7C
ENDCHAR
STARTCHAR 25EF
ENCODING 9711
SWIDTH 1040 0
DWIDTH 13 0
BBX 12 11 0 -1
BITMAP
1F80
30C0
6060
C030
C030
C030
C030
E020
6060
30C0
1F80
ENDCHAR
STARTCHAR 2600
ENCODING 9728
SWIDTH 1040 0
DWIDTH 13 0
BBX 13 12 0 -2
BITMAP
0700
6730
3060
0F80
1FC0
EFD8
1FC0
1F80
0F80
3060
6730
0700
ENDCHAR
STARTCHAR 2601
ENCODING 9729
SWIDTH 1040 0
DWIDTH 13 0
BBX 13 9 0 0
BITMAP
1F00
3F80
7FF0
FFF8
FFF0
FFF8
FBF0
7BF0
03E0
ENDCHAR
STARTCHAR 2602
ENCODING 9730
SWIDTH 1040 0
DWIDTH 13 0
BBX 13 12 0 -2
BITMAP
0700
0700
3FE0
7FF0
FFF8
DB58
0700
0700
0700
0700
3700
1E00
ENDCHAR
STARTCHAR 2603
ENCODING 9731
SWIDTH 1040 0
DWIDTH 13 0
BBX 13 12 0 -2
BITMAP
1BE8
6FF0
DBE8
6EF0
6ED0
D6A8
6730
4738
C018
C718
C718
7FF0
ENDCHAR
STARTCHAR 2605
ENCODING 9733
SWIDTH 1040 0
DWIDTH 13 0
BBX 13 11 0 -1
BITMAP
0700
0700
0F80
FFF8
7FF0
1FC0
3FE0
3EE0
3EE0
78F0
6030
ENDCHAR
STARTCHAR 2606
ENCODING 9734
SWIDTH 1040 0
DWIDTH 13 0
BBX 13 11 0 -1
BITMAP
0700
0700
0E80
F8F8
7070
18C0
3760
36A0
36A0
78F0
6030
ENDCHAR
STARTCHAR 260E
ENCODING 9742
SWIDTH 1040 0
DWIDTH 13 0
BBX 13 10 0 -1
BITMAP
7FF0
E8D8
EFD8
3FE0
78F0
78F0
78F8
F8F8
FFF8
FFF8
ENDCHAR
STARTCHAR 2616
ENCODING 9750
SWIDTH 1040 0
DWIDTH 13 0
BBX 12 11 0 -1
BITMAP
0F00
3BC0
30C0
6060
6060
6060
C030
C030
C030
C030
FFF0
ENDCHAR
STARTCHAR 2617
ENCODING 9751
SWIDTH 1040 0
DWIDTH 13 0
BBX 12 11 0 -1
BITMAP
0F00
3FC0
3FC0
7FE0
7FE0
7FE0
FFF0
FFF0
FFF0
FFF0
FFF0
ENDCHAR
STARTCHAR 261E
ENCODING 9758
SWIDTH 1040 0
DWIDTH 13 0
BBX 13 8 0 0
BITMAP
7FF0
E818
DF70
D380
EE80
EF80
6700
3E00
ENDCHAR
STARTCHAR 2640
ENCODING 9792
SWIDTH 1040 0
DWIDTH 13 0
BBX 9 12 2 -2
BITMAP
3E00
6300
C180
C180
6300
3E00
1C00
1F80
FF80
1C00
1C00
1C00
ENDCHAR
STARTCHAR 2642
ENCODING 9794
SWIDTH 1040 0
DWIDTH 13 0
BBX 12 11 0 -2
BITMAP
03F0
0070
00D0
03B0
3B00
6E00
4F00
C700
C700
6E00
3800
ENDCHAR
STARTCHAR 2660
ENCODING 9824
SWIDTH 1040 0
DWIDTH 13 0
BBX 11 11 1 -1
BITMAP
0E00
1F00
3F80
7FC0
FFE0
FFE0
FFE0
F6C0
76C0
0E00
1F00
ENDCHAR
STARTCHAR 2661
ENCODING 9825
SWIDTH 1040 0
DWIDTH 13 0
BBX 11 11 1 -1
BITMAP
3D80
6EC0
CE60
C060
C060
60C0
3180
3D00
1D00
0E00
0E00
ENDCHAR
STARTCHAR 2662
ENCODING 9826
SWIDTH 1040 0
DWIDTH 13 0
BBX 11 11 1 -1
BITMAP
0E00
1D00
3180
60C0
C060
C060
60C0
7080
3180
1D00
0E00
ENDCHAR
STARTCHAR 2663
ENCODING 9827
SWIDTH 1040 0
DWIDTH 13 0
BBX 11 11 1 -1
BITMAP
1F00
3F80
3F80
6F40
F6E0
FFE0
FFE0
F6C0
76C0
0E00
1F00
ENDCHAR
STARTCHAR 2664
ENCODING 9828
SWIDTH 1040 0
DWIDTH 13 0
BBX 11 11 1 -1
BITMAP
0E00
1D00
3180
60C0
C060
C060
DF60
D640
76C0
0E00
1F00
ENDCHAR
STARTCHAR 2665
ENCODING 9829
SWIDTH 1040 0
DWIDTH 13 0
BBX 11 11 1 -1
BITMAP
3D80
7FC0
FFE0
FFE0
FFE0
7FC0
3F80
3F00
1F00
0E00
0E00
ENDCHAR
STARTCHAR 2666
ENCODING 9830
SWIDTH 1040 0
DWIDTH 13 0
BBX 11 11 1 -1
BITMAP
0E00
1F00
3F80
7FC0
FFE0
FFE0
7FC0
7F80
3F80
1F00
0E00
ENDCHAR
STARTCHAR 2667
ENCODING 9831
SWIDTH 1040 0
DWIDTH 13 0
BBX 11 11 1 -1
BITMAP
1F00
3180
3180
71C0
DD60
C060
DF60
D740
76C0
0E00
1F00
ENDCHAR
STARTCHAR 2668
ENCODING 9832
SWIDTH 1040 0
DWIDTH 13 0
BBX 13 12 0 -2
BITMAP
0700
3760
3660
6EC0
6EC0
7770
D768
D768
D768
EED8
6030
3FE0
ENDCHAR
STARTCHAR 2669
ENCODING 9833
SWIDTH 1040 0
DWIDTH 13 0
BBX 7 12 1 -2
BITMAP
0E
0E
0E
0E
0E
0E
0E
0E
0E
7E
FE
7C
ENDCHAR
STARTCHAR 266A
ENCODING 9834
SWIDTH 1040 0
DWIDTH 13 0
BBX 11 12 1 -2
BITMAP
0E00
0F00
0F80
0FC0
0EE0
0E60
0EC0
0E80
0E80
7E00
FE00
7C00
ENDCHAR
STARTCHAR 266B
ENCODING 9835
SWIDTH 1040 0
DWIDTH 13 0
BBX 12 12 0 -2
BITMAP
1F80
1FF0
18F0
1830
1830
1830
1830
1830
7830
F8F0
73F0
03E0
ENDCHAR
STARTCHAR 266C
ENCODING 9836
SWIDTH 1040 0
DWIDTH 13 0
BBX 12 12 0 -2
BITMAP
1F80
1FF0
18F0
1F30
1FF0
1BF0
1830
1830
7830
F8F0
73F0
03E0
ENDCHAR
STARTCHAR 266D
ENCODING 9837
SWIDTH 1040 0
DWIDTH 13 0
BBX 8 12 3 -2
BITMAP
C0
C0
C0
C0
DE
F7
C7
C6
DE
DC
D8
F0
ENDCHAR
STARTCHAR 266E
ENCODING 9838
SWIDTH 1040 0
DWIDTH 13 0
BBX 8 12 3 -2
BITMAP
C0
C3
DF
FF
FB
C3
DF
DF
FF
FB
C3
03
ENDCHAR
STARTCHAR 266F
ENCODING 9839
SWIDTH 1040 0
DWIDTH 13 0
BBX 11 12 1 -2
BITMAP
0180
3180
3FE0
FFE0
FD80
3180
3DE0
3DE0
FFE0
FF80
3180
3000
ENDCHAR
STARTCHAR 2713
ENCODING 10003
SWIDTH 1040 0
DWIDTH 13 0
BBX 12 10 0 -1
BITMAP
0030
0060
00C0
0380
0700
E700
F600
3600
1800
1800
ENDCHAR
STARTCHAR 2756
ENCODING 10070
SWIDTH 1040 0
DWIDTH 13 0
BBX 12 12 0 -2
BITMAP
0F00
1F80
1F80
3740
7BE0
FFF0
7BE0
7B40
3740
1F80
1F80
0F00
ENDCHAR
STARTCHAR 2776
ENCODING 10102
SWIDTH 1040 0
DWIDTH 13 0
BBX 13 12 0 -2
BITMAP
3FE0
7FF0
FEF8
FBF8
FEF8
FEF8
FEF8
FEF8
FEF8
F078
7FF0
3FE0
ENDCHAR
STARTCHAR 2777
ENCODING 10103
SWIDTH 1040 0
DWIDTH 13 0
BBX 13 12 0 -2
BITMAP
3FE0
7FF0
F8F8
F7B8
FF78
FEF8
FBF8
FBF8
F7F8
F078
7FF0
3FE0
ENDCHAR
STARTCHAR 2778
ENCODING 10104
SWIDTH 1040 0
DWIDTH 13 0
BBX 13 12 0 -2
BITMAP
3FE0
7FF0
F8F8
F7B8
FFB8
FEF8
FFB8
F7B8
F7B8
F8F8
7FF0
3FE0
ENDCHAR
STARTCHAR 2779
ENCODING 10105
SWIDTH 1040 0
DWIDTH 13 0
BBX 13 12 0 -2
BITMAP
3FE0
7FF0
FEF8
FBF8
F6F8
EEF8
E078
FE78
FEF8
F8F8
7FF0
3FE0
ENDCHAR
STARTCHAR 277A
ENCODING 10106
SWIDTH 1040 0
DWIDTH 13 0
BBX 13 12 0 -2
BITMAP
3FE0
7FF0
F078
F7F8
F7F8
F0F8
FFB8
F7B8
F7B8
F8F8
7FF0
3FE0
ENDCHAR
STARTCHAR 277B
ENCODING 10107
SWIDTH 1040 0
DWIDTH 13 0
BBX 13 12 0 -2
BITMAP
3FE0
7FF0
F8F8
F7B8
F7F8
F0F8
F7B8
F7B8
F7B8
F8F8
7FF0
3FE0
ENDCHAR
STARTCHAR 277C
ENCODING 10108
SWIDTH 1040 0
DWIDTH 13 0
BBX 13 12 0 -2
BITMAP
3FE0
7FF0
F078
F7B8
FF78
FF78
FEF8
FEF8
FEF8
FEF8
7FF0
3FE0
ENDCHAR
STARTCHAR 277D
ENCODING 10109
SWIDTH 1040 0
DWIDTH 13 0
BBX 13 12 0 -2
BITMAP
3FE0
7FF0
F8F8
F7B8
F7B8
F8F8
F7B8
F7B8
F7B8
F8F8
7FF0
3FE0
ENDCHAR
STARTCHAR 277E
ENCODING 10110
SWIDTH 1040 0
DWIDTH 13 0
BBX 13 12 0 -2
BITMAP
3FE0
7FF0
F8F8
F7B8
F7B8
F878
FFB8
F7B8
F7B8
F8F8
7FF0
3FE0
ENDCHAR
STARTCHAR 277F
ENCODING 10111
SWIDTH 1040 0
DWIDTH 13 0
BBX 13 12 0 -2
BITMAP
3FE0
7FF0
F778
EED8
F6D8
F6D8
F6D8
F6D8
F6D8
E778
7FF0
3FE0
ENDCHAR
STARTCHAR 2934
ENCODING 10548
SWIDTH 1040 0
DWIDTH 13 0
BBX 13 10 0 0
BITMAP
0060
0060
00F0
03A8
0060
0060
00C0
0080
0380
FF00
ENDCHAR
STARTCHAR 2935
ENCODING 10549
SWIDTH 1040 0
DWIDTH 13 0
BBX 12 10 1 -1
BITMAP
FE00
0700
0180
00C0
00C0
0750
0770
01E0
00C0
00C0
ENDCHAR
STARTCHAR 29BF
ENCODING 10687
SWIDTH 1040 0
DWIDTH 13 0
BBX 13 12 0 -2
BITMAP
0F80
38E0
6030
6730
CF98
DFD8
CF98
EF10
6730
6030
38E0
0F80
ENDCHAR
STARTCHAR 29FA
ENCODING 10746
SWIDTH 1040 0
DWIDTH 13 0
BBX 11 10 1 -1
BITMAP
3180
3180
3180
3180
FFE0
3180
3180
3180
3180
3180
ENDCHAR
STARTCHAR 29FB
ENCODING 10747
SWIDTH 1040 0
DWIDTH 13 0
BBX 11 10 1 -1
BITMAP
3680
3680
3680
3680
FFE0
3680
3680
3680
3680
3680
ENDCHAR
STARTCHAR 3000
ENCODING 12288
SWIDTH 1040 0
DWIDTH 13 0
BBX 0 0 0 0
BITMAP
ENDCHAR
STARTCHAR 3001
ENCODING 12289
SWIDTH 1040 0
DWIDTH 13 0
BBX 5 5 0 -2
BITMAP
C0
C0
70
38
38
ENDCHAR
STARTCHAR 3002
ENCODING 12290
SWIDTH 1040 0
DWIDTH 13 0
BBX 5 5 0 -2
BITMAP
70
70
D8
D8
70
ENDCHAR
STARTCHAR 3003
ENCODING 12291
SWIDTH 1040 0
DWIDTH 13 0
BBX 8 8 2 0
BITMAP
3B
3B
3B
3B
6E
6E
6E
DC
ENDCHAR
STARTCHAR 3005
ENCODING 12293
SWIDTH 1040 0
DWIDTH 13 0
BBX 10 11 1 -1
BITMAP
1C00
1C00
1C00
3FC0
3180
6180
DD00
DF00
0E00
0700
0180
ENDCHAR
STARTCHAR 3006
ENCODING 12294
SWIDTH 1040 0
DWIDTH 13 0
BBX 11 11 1 -1
BITMAP
0060
0060
00C0
3D80
6F00
CE80
DC00
D000
D000
E000
C000
ENDCHAR
STARTCHAR 3007
ENCODING 12295
SWIDTH 1040 0
DWIDTH 13 0
BBX 13 10 0 -1
BITMAP
1FC0
3060
6030
C018
C018
C018
E010
6030
3060
1FC0
ENDCHAR
STARTCHAR 3008
ENCODING 12296
SWIDTH 1040 0
DWIDTH 13 0
BBX 6 12 5 -2
BITMAP
0C
18
18
70
70
E0
70
70
70
18
18
0C
ENDCHAR
STARTCHAR 3009
ENCODING 12297
SWIDTH 1040 0
DWIDTH 13 0
BBX 6 12 2 -2
BITMAP
C0
60
60
38
38
1C
38
38
38
60
60
C0
ENDCHAR
STARTCHAR 300A
ENCODING 12298
SWIDTH 1040 0
DWIDTH 13 0
BBX 9 12 4 -2
BITMAP
0D80
3B00
3B00
7600
7600
EC00
7600
7600
7600
3B00
3B00
0D80
ENDCHAR
STARTCHAR 300B
ENCODING 12299
SWIDTH 1040 0
DWIDTH 13 0
BBX 9 12 0 -2
BITMAP
D800
6E00
6E00
3700
3700
1B80
3700
3700
3700
6E00
6E00
D800
ENDCHAR
STARTCHAR 300C
ENCODING 12300
SWIDTH 1040 0
DWIDTH 13 0
BBX 6 10 5 0
BITMAP
FC
E0
E0
E0
E0
E0
E0
E0
E0
E0
ENDCHAR
STARTCHAR 300D
ENCODING 12301
SWIDTH 1040 0
DWIDTH 13 0
BBX 6 10 2 -2
BITMAP
1C
1C
1C
1C
1C
1C
1C
1C
1C
FC
ENDCHAR
STARTCHAR 300E
ENCODING 12302
SWIDTH 1040 0
DWIDTH 13 0
BBX 8 11 5 -1
BITMAP
FF
E3
EF
E8
E8
E8
E8
E8
E8
E8
F8
ENDCHAR
STARTCHAR 300F
ENCODING 12303
SWIDTH 1040 0
DWIDTH 13 0
BBX 8 11 0 -2
BITMAP
1F
1B
1B
1B
1B
1B
1B
1B
FB
C7
FF
ENDCHAR
STARTCHAR 3010
ENCODING 12304
SWIDTH 1040 0
DWIDTH 13 0
BBX 6 12 5 -2
BITMAP
FC
F8
F0
F0
E0
E0
E0
F0
F0
F0
F8
FC
ENDCHAR
STARTCHAR 3011
ENCODING 12305
SWIDTH 1040 0
DWIDTH 13 0
BBX 6 12 2 -2
BITMAP
FC
7C
3C
3C
1C
1C
1C
1C
3C
3C
7C
FC
ENDCHAR
STARTCHAR 3012
ENCODING 12306
SWIDTH 1040 0
DWIDTH 13 0
BBX 13 12 0 -2
BITMAP
7FF0
7FF0
0000
FFF8
FFF8
0700
0700
0700
0700
0700
0700
0700
ENDCHAR
STARTCHAR 3013
ENCODING 12307
SWIDTH 1040 0
DWIDTH 13 0
BBX 11 7 1 1
BITMAP
FFE0
FFE0
0000
0000
FFE0
FFE0
FFE0
ENDCHAR
STARTCHAR 3014
ENCODING 12308
SWIDTH 1040 0
DWIDTH 13 0
BBX 6 12 5 -2
BITMAP
1C
F0
E0
E0
E0
E0
E0
E0
E0
E0
F0
1C
ENDCHAR
STARTCHAR 3015
ENCODING 12309
SWIDTH 1040 0
DWIDTH 13 0
BBX 6 12 2 -2
BITMAP
E0
3C
1C
1C
1C
1C
1C
1C
1C
1C
3C
E0
ENDCHAR
STARTCHAR 3016
ENCODING 12310
SWIDTH 1040 0
DWIDTH 13 0
BBX 7 13 5 -2
BITMAP
FE
EC
E8
E8
F0
F0
F0
F0
E8
E8
E8
EC
FE
ENDCHAR
STARTCHAR 3017
ENCODING 12311
SWIDTH 1040 0
DWIDTH 13 0
BBX 7 13 1 -2
BITMAP
FE
6E
36
36
1E
1E
1E
1E
16
36
36
6E
FE
ENDCHAR
STARTCHAR 3018
ENCODING 12312
SWIDTH 1040 0
DWIDTH 13 0
BBX 7 13 5 -2
BITMAP
0E
F8
EE
E8
E8
E8
E8
E8
E8
E8
EE
F8
0E
ENDCHAR
STARTCHAR 3019
ENCODING 12313
SWIDTH 1040 0
DWIDTH 13 0
BBX 7 13 1 -2
BITMAP
E0
3E
EE
36
36
36
36
36
36
36
EE
3E
E0
ENDCHAR
STARTCHAR 301C
ENCODING 12316
SWIDTH 1040 0
DWIDTH 13 0
BBX 12 4 0 2
BITMAP
7800
CF30
03E0
03E0
ENDCHAR
STARTCHAR 301D
ENCODING 12317
SWIDTH 1040 0
DWIDTH 13 0
BBX 8 4 4 6
BITMAP
0E
F6
73
38
ENDCHAR
STARTCHAR 301F
ENCODING 12319
SWIDTH 1040 0
DWIDTH 13 0
BBX 8 5 0 -2
BITMAP
18
18
CE
6F
70
ENDCHAR
STARTCHAR 3020
ENCODING 12320
SWIDTH 1040 0
DWIDTH 13 0
BBX 13 12 0 -2
BITMAP
7FF0
0000
7FF0
6730
DB68
EFB8
DB68
EB58
68D0
6FB0
3060
1FC0
ENDCHAR
STARTCHAR 3033
ENCODING 12339
SWIDTH 1040 0
DWIDTH 13 0
BBX 12 7 1 0
BITMAP
7000
DE00
0780
00C0
00E0
0060
0030
ENDCHAR
STARTCHAR 3034
ENCODING 12340
SWIDTH 1040 0
DWIDTH 13 0
BBX 12 10 1 0
BITMAP
0F00
1C00
0780
7600
DE00
0780
00C0
00E0
0060
0030
ENDCHAR
STARTCHAR 3035
ENCODING 12341
SWIDTH 1040 0
DWIDTH 13 0
BBX 11 7 0 0
BITMAP
03E0
0700
1E00
7000
4000
C000
8000
ENDCHAR
STARTCHAR 303B
ENCODING 12347
SWIDTH 1040 0
DWIDTH 13 0
BBX 6 9 4 0
BITMAP
E0
70
3C
70
E0
F0
F8
78
3C
ENDCHAR
STARTCHAR 303C
ENCODING 12348
SWIDTH 1040 0
DWIDTH 13 0
BBX 13 13 0 -2
BITMAP
FFF8
8038
8068
80D8
8398
8718
8E18
9818
9018
B018
A018
C018
FFF8
ENDCHAR
STARTCHAR 303D
ENCODING 12349
SWIDTH 1040 0
DWIDTH 13 0
BBX 12 11 0 -1
BITMAP
3000
6B80
EB40
0EC0
0060
0060
0060
0070
0070
0070
0030
ENDCHAR
STARTCHAR 3041
ENCODING 12353
SWIDTH 1040 0
DWIDTH 13 0
BBX 9 10 2 -2
BITMAP
3800
1F00
FC00
3A00
3F00
3A80
7A80
DD80
DD80
6300
ENDCHAR
STARTCHAR 3042
ENCODING 12354
SWIDTH 1040 0
DWIDTH 13 0
BBX 13 12 0 -2
BITMAP
1800
0FC0
7E80
1B80
1FE0
3B30
6B18
6F18
DE18
D630
6060
03C0
ENDCHAR
STARTCHAR 3043
ENCODING 12355
SWIDTH 1040 0
DWIDTH 13 0
BBX 10 8 1 -1
BITMAP
C000
6180
60C0
60C0
60C0
61C0
6C00
3000
ENDCHAR
STARTCHAR 3044
ENCODING 12356
SWIDTH 1040 0
DWIDTH 13 0
BBX 12 10 0 -1
BITMAP
C000
63C0
6060
6030
6030
6070
7670
3630
3800
1800
ENDCHAR
STARTCHAR 3045
ENCODING 12357
SWIDTH 1040 0
DWIDTH 13 0
BBX 9 10 2 -2
BITMAP
3800
1E00
0000
DF00
7980
7980
0180
0180
0300
1E00
ENDCHAR
STARTCHAR 3046
ENCODING 12358
SWIDTH 1040 0
DWIDTH 13 0
BBX 10 12 1 -2
BITMAP
3000
1F00
0000
DF80
70C0
00C0
00C0
0080
0180
0180
0700
0E00
ENDCHAR
STARTCHAR 3047
ENCODING 12359
SWIDTH 1040 0
DWIDTH 13 0
BBX 9 10 2 -2
BITMAP
3800
1F00
0000
DF00
7A00
7E00
1C00
3800
6C00
CF80
ENDCHAR
STARTCHAR 3048
ENCODING 12360
SWIDTH 1040 0
DWIDTH 13 0
BBX 11 12 1 -2
BITMAP
3000
1F00
0000
DF80
7700
0E00
1C00
1E00
3E00
6700
C700
C1E0
ENDCHAR
STARTCHAR 3049
ENCODING 12361
SWIDTH 1040 0
DWIDTH 13 0
BBX 11 10 1 -2
BITMAP
6000
3E80
F0E0
30C0
3780
3FC0
7CC0
D0C0
70C0
3780
ENDCHAR
STARTCHAR 304A
ENCODING 12362
SWIDTH 1040 0
DWIDTH 13 0
BBX 13 12 0 -2
BITMAP
3000
1B60
1E30
7838
18E0
1BB0
1E18
1818
3818
EB98
38F0
1800
ENDCHAR
STARTCHAR 304B
ENCODING 12363
SWIDTH 1040 0
DWIDTH 13 0
BBX 12 12 1 -2
BITMAP
3000
31C0
3E60
F730
3770
6700
6700
6700
6700
C700
0E00
1E00
ENDCHAR
STARTCHAR 304C
ENCODING 12364
SWIDTH 1040 0
DWIDTH 13 0
BBX 13 12 0 -2
BITMAP
30D0
3068
3E68
F7E0
3730
6770
6700
6700
6700
C700
0E00
1E00
ENDCHAR
STARTCHAR 304D
ENCODING 12365
SWIDTH 1040 0
DWIDTH 13 0
BBX 11 12 1 -2
BITMAP
1C00
6FC0
3E00
CFE0
7D00
0180
3F80
20C0
60C0
6000
3C00
0F80
ENDCHAR
STARTCHAR 304E
ENCODING 12366
SWIDTH 1040 0
DWIDTH 13 0
BBX 13 12 0 -2
BITMAP
18D0
6FA8
3E68
0FC0
FB00
0380
3F80
20C0
60C0
6000
3800
0F80
ENDCHAR
STARTCHAR 304F
ENCODING 12367
SWIDTH 1040 0
DWIDTH 13 0
BBX 7 12 2 -2
BITMAP
1C
0E
0E
1C
78
E0
38
3C
1C
0E
0E
0E
ENDCHAR
STARTCHAR 3050
ENCODING 12368
SWIDTH 1040 0
DWIDTH 13 0
BBX 12 12 1 -2
BITMAP
1DA0
0ED0
0ED0
1C00
7000
E000
3000
3C00
1C00
0E00
0E00
0E00
ENDCHAR
STARTCHAR 3051
ENCODING 12369
SWIDTH 1040 0
DWIDTH 13 0
BBX 11 12 1 -2
BITMAP
0700
C180
60E0
6FC0
C0C0
C0C0
C0C0
D0C0
D0C0
6180
6180
0700
ENDCHAR
STARTCHAR 3052
ENCODING 12370
SWIDTH 1040 0
DWIDTH 13 0
BBX 12 12 1 -2
BITMAP
0EA0
C750
61F0
6FC0
C0C0
C0C0
C0C0
D0C0
D0C0
6180
6180
0700
ENDCHAR
STARTCHAR 3053
ENCODING 12371
SWIDTH 1040 0
DWIDTH 13 0
BBX 11 11 1 -1
BITMAP
6000
3FC0
0180
0700
0000
0000
0000
C000
C000
6060
3FC0
ENDCHAR
STARTCHAR 3054
ENCODING 12372
SWIDTH 1040 0
DWIDTH 13 0
BBX 12 11 1 -1
BITMAP
61A0
3F50
0750
0E00
0000
0000
0000
C000
C000
6060
3FC0
ENDCHAR
STARTCHAR 3055
ENCODING 12373
SWIDTH 1040 0
DWIDTH 13 0
BBX 10 12 1 -2
BITMAP
1C00
CEC0
7F00
0700
0700
3F80
6180
4180
C000
C000
7000
1F00
ENDCHAR
STARTCHAR 3056
ENCODING 12374
SWIDTH 1040 0
DWIDTH 13 0
BBX 12 12 1 -2
BITMAP
31A0
DD50
7ED0
0E00
0700
3F80
6180
4180
C000
C000
7000
1F00
ENDCHAR
STARTCHAR 3057
ENCODING 12375
SWIDTH 1040 0
DWIDTH 13 0
BBX 10 12 2 -2
BITMAP
C000
6000
6000
6000
6000
6000
6000
60C0
60C0
6180
3B00
1E00
ENDCHAR
STARTCHAR 3058
ENCODING 12376
SWIDTH 1040 0
DWIDTH 13 0
BBX 11 12 1 -2
BITMAP
C740
61A0
61A0
6000
6000
6000
6000
60C0
60C0
6180
3700
1E00
ENDCHAR
STARTCHAR 3059
ENCODING 12377
SWIDTH 1040 0
DWIDTH 13 0
BBX 13 12 0 -2
BITMAP
0E00
C7F8
7F00
0700
1F00
3380
3380
3380
1F80
0380
0700
1E00
ENDCHAR
STARTCHAR 305A
ENCODING 12378
SWIDTH 1040 0
DWIDTH 13 0
BBX 13 12 0 -2
BITMAP
0ED0
C768
7FA8
0700
1F00
3380
3380
3380
1F80
0380
0700
1E00
ENDCHAR
STARTCHAR 305B
ENCODING 12379
SWIDTH 1040 0
DWIDTH 13 0
BBX 13 12 0 -2
BITMAP
0380
60C0
30C0
D3F8
7F40
30C0
30C0
30C0
33C0
30C0
1800
0FE0
ENDCHAR
STARTCHAR 305C
ENCODING 12380
SWIDTH 1040 0
DWIDTH 13 0
BBX 13 12 0 -2
BITMAP
0750
63A8
33A8
D7F0
7E80
3380
3380
3380
3780
3380
1800
0FE0
ENDCHAR
STARTCHAR 305D
ENCODING 12381
SWIDTH 1040 0
DWIDTH 13 0
BBX 11 12 1 -2
BITMAP
6F80
3D00
0E00
1CE0
3F80
E700
0E00
0C00
1C00
1C00
0E00
0780
ENDCHAR
STARTCHAR 305E
ENCODING 12382
SWIDTH 1040 0
DWIDTH 13 0
BBX 12 12 1 -2
BITMAP
DFA0
76D0
0ED0
1C00
3F80
EE00
1C00
1000
3000
3000
1C00
0F00
ENDCHAR
STARTCHAR 305F
ENCODING 12383
SWIDTH 1040 0
DWIDTH 13 0
BBX 11 12 1 -2
BITMAP
6000
3700
3E00
F000
37C0
3060
60C0
60C0
6000
6E00
CE00
C7E0
ENDCHAR
STARTCHAR 3060
ENCODING 12384
SWIDTH 1040 0
DWIDTH 13 0
BBX 12 12 1 -2
BITMAP
61A0
36D0
3CD0
F000
37C0
3060
60C0
60C0
6000
6E00
CE00
C7E0
ENDCHAR
STARTCHAR 3061
ENCODING 12385
SWIDTH 1040 0
DWIDTH 13 0
BBX 11 12 1 -2
BITMAP
3000
DF80
7C00
3000
3780
3CC0
7060
6060
6060
00C0
01C0
1F00
ENDCHAR
STARTCHAR 3062
ENCODING 12386
SWIDTH 1040 0
DWIDTH 13 0
BBX 12 12 1 -2
BITMAP
31A0
DF50
7CD0
3000
3780
3CC0
7060
6060
6060
00C0
01C0
1F00
ENDCHAR
STARTCHAR 3063
ENCODING 12387
SWIDTH 1040 0
DWIDTH 13 0
BBX 10 7 1 -2
BITMAP
0F80
DCC0
D0C0
70C0
00C0
0180
0F00
ENDCHAR
STARTCHAR 3064
ENCODING 12388
SWIDTH 1040 0
DWIDTH 13 0
BBX 12 8 0 0
BITMAP
0FC0
D860
7030
0030
0030
0020
0060
07C0
ENDCHAR
STARTCHAR 3065
ENCODING 12389
SWIDTH 1040 0
DWIDTH 13 0
BBX 13 10 0 0
BITMAP
00D0
0068
0FA8
D8C0
7060
0060
0060
0040
00C0
0F80
ENDCHAR
STARTCHAR 3066
ENCODING 12390
SWIDTH 1040 0
DWIDTH 13 0
BBX 11 12 1 -2
BITMAP
0060
CFC0
7D00
0700
0E00
0E00
0E00
0E00
0E00
0E00
0700
01C0
ENDCHAR
STARTCHAR 3067
ENCODING 12391
SWIDTH 1040 0
DWIDTH 13 0
BBX 12 12 1 -2
BITMAP
01A0
DF50
76D0
0E00
0E00
1C00
1C00
1C00
1C00
1C00
0E00
0780
ENDCHAR
STARTCHAR 3068
ENCODING 12392
SWIDTH 1040 0
DWIDTH 13 0
BBX 9 12 2 -2
BITMAP
C000
6000
6000
6380
3E00
3800
6000
4000
C000
C000
C000
7F80
ENDCHAR
STARTCHAR 3069
ENCODING 12393
SWIDTH 1040 0
DWIDTH 13 0
BBX 11 12 2 -2
BITMAP
C340
61A0
61A0
6300
3E00
3800
6000
4000
C000
C000
C000
7F80
ENDCHAR
STARTCHAR 306A
ENCODING 12394
SWIDTH 1040 0
DWIDTH 13 0
BBX 12 12 0 -2
BITMAP
3000
1B00
FEE0
1830
3060
30C0
60C0
60C0
6FC0
18E0
18D0
0F80
ENDCHAR
STARTCHAR 306B
ENCODING 12395
SWIDTH 1040 0
DWIDTH 13 0
BBX 11 12 1 -2
BITMAP
C000
6FC0
60E0
C180
C000
C000
C000
DC00
DC00
DC00
6FE0
6000
ENDCHAR
STARTCHAR 306C
ENCODING 12396
SWIDTH 1040 0
DWIDTH 13 0
BBX 13 12 0 -2
BITMAP
0E00
0700
37C0
3F60
7730
6B30
DE30
DE20
CEE0
DB30
7768
03C0
ENDCHAR
STARTCHAR 306D
ENCODING 12397
SWIDTH 1040 0
DWIDTH 13 0
BBX 13 12 0 -2
BITMAP
3000
1800
1BE0
6B30
3E30
1830
3830
3830
3BF0
6B30
DB68
1BC0
ENDCHAR
STARTCHAR 306E
ENCODING 12398
SWIDTH 1040 0
DWIDTH 13 0
BBX 11 10 1 -1
BITMAP
1F80
36C0
6E60
CE60
DC60
DC60
D060
D060
60C0
0780
ENDCHAR
STARTCHAR 306F
ENCODING 12399
SWIDTH 1040 0
DWIDTH 13 0
BBX 12 12 1 -2
BITMAP
0700
C180
6DF0
6F80
C180
C180
C180
D1C0
D7C0
EDA0
6DB0
6F00
ENDCHAR
STARTCHAR 3070
ENCODING 12400
SWIDTH 1040 0
DWIDTH 13 0
BBX 12 12 1 -2
BITMAP
0EA0
C750
6D50
6FE0
C180
C180
C180
D1C0
D7C0
EDA0
6DB0
6F00
ENDCHAR
STARTCHAR 3071
ENCODING 12401
SWIDTH 1040 0
DWIDTH 13 0
BBX 12 12 1 -2
BITMAP
0EE0
C7B0
6DB0
6FE0
C180
C180
C180
D1C0
D7C0
EDA0
6DB0
6F00
ENDCHAR
STARTCHAR 3072
ENCODING 12402
SWIDTH 1040 0
DWIDTH 13 0
BBX 12 12 1 -2
BITMAP
0180
3180
F0C0
30E0
60D0
60C0
60C0
60C0
60C0
6180
3700
1E00
ENDCHAR
STARTCHAR 3073
ENCODING 12403
SWIDTH 1040 0
DWIDTH 13 0
BBX 12 12 1 -2
BITMAP
07A0
3750
F750
3180
60E0
60D0
60C0
60C0
60C0
6180
3700
1E00
ENDCHAR
STARTCHAR 3074
ENCODING 12404
SWIDTH 1040 0
DWIDTH 13 0
BBX 12 12 1 -2
BITMAP
0760
37B0
F1B0
31E0
60E0
60D0
60C0
60C0
60C0
6180
3700
1E00
ENDCHAR
STARTCHAR 3075
ENCODING 12405
SWIDTH 1040 0
DWIDTH 13 0
BBX 13 12 0 -2
BITMAP
0E00
0780
0380
0700
0E00
0760
CEB0
E8B8
6B98
73B8
6E80
0700
ENDCHAR
STARTCHAR 3076
ENCODING 12406
SWIDTH 1040 0
DWIDTH 13 0
BBX 13 12 0 -2
BITMAP
0ED0
07A8
03A8
0700
0E00
0760
CEB0
EAB8
6B98
73B8
6E80
0700
ENDCHAR
STARTCHAR 3077
ENCODING 12407
SWIDTH 1040 0
DWIDTH 13 0
BBX 13 12 0 -2
BITMAP
0E70
07D8
03D8
0770
0E00
0760
CEB0
EAB8
6B98
73B8
6E80
0700
ENDCHAR
STARTCHAR 3078
ENCODING 12408
SWIDTH 1040 0
DWIDTH 13 0
BBX 11 8 1 0
BITMAP
3000
3C00
6C00
6E00
C700
C780
C180
00E0
ENDCHAR
STARTCHAR 3079
ENCODING 12409
SWIDTH 1040 0
DWIDTH 13 0
BBX 12 9 1 0
BITMAP
01A0
30D0
3CD0
6C00
6E00
C700
C780
C180
00E0
ENDCHAR
STARTCHAR 307A
ENCODING 12410
SWIDTH 1040 0
DWIDTH 13 0
BBX 11 9 1 0
BITMAP
01C0
3760
3D60
6DC0
6E00
C700
C780
C180
00E0
ENDCHAR
STARTCHAR 307B
ENCODING 12411
SWIDTH 1040 0
DWIDTH 13 0
BBX 12 11 1 -2
BITMAP
DDE0
6F00
6180
DDF0
CF80
C180
D1C0
D7C0
EDA0
6DB0
6F00
ENDCHAR
STARTCHAR 307C
ENCODING 12412
SWIDTH 1040 0
DWIDTH 13 0
BBX 12 12 1 -2
BITMAP
01A0
DCD0
6FD0
6180
DDF0
CF80
C180
D1C0
D7C0
EDA0
6DB0
6F00
ENDCHAR
STARTCHAR 307D
ENCODING 12413
SWIDTH 1040 0
DWIDTH 13 0
BBX 12 12 1 -2
BITMAP
00E0
DDB0
6FB0
61E0
DDF0
CF80
C180
D1C0
D7C0
EDA0
6DB0
6F00
ENDCHAR
STARTCHAR 307E
ENCODING 12414
SWIDTH 1040 0
DWIDTH 13 0
BBX 10 12 1 -2
BITMAP
1C00
CFC0
7E00
0E00
CF80
7E00
0E00
0E00
7E00
CF80
CEC0
7C00
ENDCHAR
STARTCHAR 307F
ENCODING 12415
SWIDTH 1040 0
DWIDTH 13 0
BBX 13 12 0 -2
BITMAP
3700
1F00
0700
0740
0E60
3FE0
6E70
6868
D868
D8C0
70C0
0380
ENDCHAR
STARTCHAR 3080
ENCODING 12416
SWIDTH 1040 0
DWIDTH 13 0
BBX 12 12 1 -2
BITMAP
3000
1C00
DEC0
7C60
1C70
7C00
DCC0
DCE0
DC60
7060
3060
1FC0
ENDCHAR
STARTCHAR 3081
ENCODING 12417
SWIDTH 1040 0
DWIDTH 13 0
BBX 12 12 0 -2
BITMAP
0E00
0700
37C0
3F60
7730
6B30
DE30
DE30
CE30
DB30
7060
03C0
ENDCHAR
STARTCHAR 3082
ENCODING 12418
SWIDTH 1040 0
DWIDTH 13 0
BBX 11 12 1 -2
BITMAP
1C00
CE00
7F00
1C00
DC00
7EC0
3060
3060
3060
3060
1CC0
0F80
ENDCHAR
STARTCHAR 3083
ENCODING 12419
SWIDTH 1040 0
DWIDTH 13 0
BBX 11 10 1 -2
BITMAP
0700
3180
3180
1DC0
DE60
DC60
7C60
0EC0
0E00
0E00
ENDCHAR
STARTCHAR 3084
ENCODING 12420
SWIDTH 1040 0
DWIDTH 13 0
BBX 12 12 0 -2
BITMAP
0780
30C0
3060
1BE0
DE30
7630
0EE0
0EE0
0E00
0700
0700
0700
ENDCHAR
STARTCHAR 3085
ENCODING 12421
SWIDTH 1040 0
DWIDTH 13 0
BBX 11 10 1 -2
BITMAP
0E00
C700
6FC0
6D60
7760
6760
6760
6FC0
0700
0E00
ENDCHAR
STARTCHAR 3086
ENCODING 12422
SWIDTH 1040 0
DWIDTH 13 0
BBX 13 12 0 -2
BITMAP
0700
C380
67E0
6EB0
7398
6398
6398
6290
6EB0
07E0
0380
0700
ENDCHAR
STARTCHAR 3087
ENCODING 12423
SWIDTH 1040 0
DWIDTH 13 0
BBX 9 9 2 -2
BITMAP
3800
1D80
1F00
1C00
1C00
1C00
7C00
DF00
7980
ENDCHAR
STARTCHAR 3088
ENCODING 12424
SWIDTH 1040 0
DWIDTH 13 0
BBX 11 12 1 -2
BITMAP
1C00
0E00
0EE0
0F80
0E00
0E00
0E00
0F00
7F00
CEC0
CE60
7C00
ENDCHAR
STARTCHAR 3089
ENCODING 12425
SWIDTH 1040 0
DWIDTH 13 0
BBX 10 12 2 -2
BITMAP
3800
1F00
7800
6000
C000
DF80
E0C0
C0C0
C0C0
00C0
0380
1E00
ENDCHAR
STARTCHAR 308A
ENCODING 12426
SWIDTH 1040 0
DWIDTH 13 0
BBX 9 12 2 -2
BITMAP
0300
C380
6180
7980
6180
6180
6180
6100
0300
0300
0E00
1C00
ENDCHAR
STARTCHAR 308B
ENCODING 12427
SWIDTH 1040 0
DWIDTH 13 0
BBX 10 12 1 -2
BITMAP
6F00
3D00
0E00
1C00
3F00
3180
60C0
40C0
C0C0
1EC0
3780
1F00
ENDCHAR
STARTCHAR 308C
ENCODING 12428
SWIDTH 1040 0
DWIDTH 13 0
BBX 12 12 1 -2
BITMAP
6000
3000
3780
F6C0
3CC0
30C0
70C0
50C0
D0C0
30D0
7060
3000
ENDCHAR
STARTCHAR 308D
ENCODING 12429
SWIDTH 1040 0
DWIDTH 13 0
BBX 10 12 1 -2
BITMAP
6700
3E00
0E00
1C00
3F00
3180
60C0
40C0
C0C0
00C0
0180
1F00
ENDCHAR
STARTCHAR 308E
ENCODING 12430
SWIDTH 1040 0
DWIDTH 13 0
BBX 10 10 1 -2
BITMAP
6000
3000
3000
F780
3CC0
30C0
30C0
70C0
D180
3700
ENDCHAR
STARTCHAR 308F
ENCODING 12431
SWIDTH 1040 0
DWIDTH 13 0
BBX 12 12 1 -2
BITMAP
6000
3000
37C0
F660
3C30
3030
7030
5030
D030
3060
71C0
3000
ENDCHAR
STARTCHAR 3090
ENCODING 12432
SWIDTH 1040 0
DWIDTH 13 0
BBX 12 12 1 -2
BITMAP
6F00
3D00
0E00
0FC0
3C60
6C30
DC30
D030
D030
D7D0
6E60
07C0
ENDCHAR
STARTCHAR 3091
ENCODING 12433
SWIDTH 1040 0
DWIDTH 13 0
BBX 13 12 0 -2
BITMAP
1B80
0F00
0700
1FC0
7060
0F60
1BC0
1B00
3700
3EF0
6798
C038
ENDCHAR
STARTCHAR 3092
ENCODING 12434
SWIDTH 1040 0
DWIDTH 13 0
BBX 11 12 1 -2
BITMAP
3000
DD80
7E00
3060
3EC0
6700
CF00
CD00
1D00
3000
3000
1FC0
ENDCHAR
STARTCHAR 3093
ENCODING 12435
SWIDTH 1040 0
DWIDTH 13 0
BBX 12 12 1 -2
BITMAP
3000
1C00
1C00
3000
3000
3E00
6700
6700
6700
6730
C760
C1C0
ENDCHAR
STARTCHAR 3094
ENCODING 12436
SWIDTH 1040 0
DWIDTH 13 0
BBX 12 12 1 -2
BITMAP
31A0
1ED0
00D0
DF00
7180
0180
0180
0100
0700
0700
0E00
1C00
ENDCHAR
STARTCHAR 3095
ENCODING 12437
SWIDTH 1040 0
DWIDTH 13 0
BBX 10 9 2 -2
BITMAP
3800
3B00
FD80
3AC0
22C0
6EC0
6E00
DC00
3C00
ENDCHAR
STARTCHAR 3096
ENCODING 12438
SWIDTH 1040 0
DWIDTH 13 0
BBX 10 9 2 -2
BITMAP
CE00
6300
DBC0
DF00
DF00
C300
DB00
6300
6E00
ENDCHAR
STARTCHAR 309B
ENCODING 12443
SWIDTH 1040 0
DWIDTH 13 0
BBX 6 3 1 7
BITMAP
30
DC
60
ENDCHAR
STARTCHAR 309C
ENCODING 12444
SWIDTH 1040 0
DWIDTH 13 0
BBX 6 4 1 6
BITMAP
70
DC
DC
70
ENDCHAR
STARTCHAR 309D
ENCODING 12445
SWIDTH 1040 0
DWIDTH 13 0
BBX 8 6 2 1
BITMAP
E0
3C
0E
0F
0C
1C
ENDCHAR
STARTCHAR 309E
ENCODING 12446
SWIDTH 1040 0
DWIDTH 13 0
BBX 9 9 2 1
BITMAP
0300
1D80
0E80
EE00
3C00
0E00
0F00
0C00
1C00
ENDCHAR
STARTCHAR 309F
ENCODING 12447
SWIDTH 1040 0
DWIDTH 13 0
BBX 9 12 2 -2
BITMAP
1C00
1C00
1F80
3800
3800
3F00
6180
6180
6180
E180
DB00
DE00
ENDCHAR
STARTCHAR 30A0
ENCODING 12448
SWIDTH 1040 0
DWIDTH 13 0
BBX 7 5 3 2
BITMAP
FE
00
00
FE
FE
ENDCHAR
STARTCHAR 30A1
ENCODING 12449
SWIDTH 1040 0
DWIDTH 13 0
BBX 9 8 2 -2
BITMAP
DF80
7980
1D00
1D00
1C00
1C00
3800
6000
ENDCHAR
STARTCHAR 30A2
ENCODING 12450
SWIDTH 1040 0
DWIDTH 13 0
BBX 11 11 1 -2
BITMAP
CFE0
7C60
0EC0
0E80
0E00
0E00
0C00
1C00
1C00
3000
6000
ENDCHAR
STARTCHAR 30A3
ENCODING 12451
SWIDTH 1040 0
DWIDTH 13 0
BBX 8 8 2 -2
BITMAP
03
0E
3C
2C
EC
1C
1C
1C
ENDCHAR
STARTCHAR 30A4
ENCODING 12452
SWIDTH 1040 0
DWIDTH 13 0
BBX 10 12 1 -2
BITMAP
00C0
00C0
0180
0700
1E00
F700
0700
0700
0700
0700
0700
0700
ENDCHAR
STARTCHAR 30A5
ENCODING 12453
SWIDTH 1040 0
DWIDTH 13 0
BBX 9 9 2 -2
BITMAP
3800
1F80
FD80
6180
6100
0300
0300
1E00
7800
ENDCHAR
STARTCHAR 30A6
ENCODING 12454
SWIDTH 1040 0
DWIDTH 13 0
BBX 11 12 1 -2
BITMAP
1C00
0E00
0FE0
FE60
6060
6060
00C0
00C0
00C0
0180
0F00
3C00
ENDCHAR
STARTCHAR 30A7
ENCODING 12455
SWIDTH 1040 0
DWIDTH 13 0
BBX 9 7 2 -2
BITMAP
CF00
7C00
7C00
1C00
1C00
1F00
F980
ENDCHAR
STARTCHAR 30A8
ENCODING 12456
SWIDTH 1040 0
DWIDTH 13 0
BBX 13 9 0 -1
BITMAP
63F0
3F00
0700
0700
0700
0700
0700
0FF0
F818
ENDCHAR
STARTCHAR 30A9
ENCODING 12457
SWIDTH 1040 0
DWIDTH 13 0
BBX 11 9 1 -2
BITMAP
0E00
6700
3FE0
0F00
0D00
1D00
3700
E700
0F00
ENDCHAR
STARTCHAR 30AA
ENCODING 12458
SWIDTH 1040 0
DWIDTH 13 0
BBX 12 12 0 -2
BITMAP
0700
0380
63F0
3F80
0780
0E80
1B80
1380
3380
E380
0780
0380
ENDCHAR
STARTCHAR 30AB
ENCODING 12459
SWIDTH 1040 0
DWIDTH 13 0
BBX 11 12 1 -2
BITMAP
1C00
0E00
CFE0
7E60
0E60
1C60
1C60
1060
3060
60C0
C740
0180
ENDCHAR
STARTCHAR 30AC
ENCODING 12460
SWIDTH 1040 0
DWIDTH 13 0
BBX 12 12 1 -2
BITMAP
1DA0
0ED0
CFF0
7E60
0E60
1C60
1C60
1060
3060
60C0
C740
0180
ENDCHAR
STARTCHAR 30AD
ENCODING 12461
SWIDTH 1040 0
DWIDTH 13 0
BBX 11 12 1 -2
BITMAP
3000
1C00
1DC0
1F00
F600
0EE0
1F80
1700
F700
0700
0180
0180
ENDCHAR
STARTCHAR 30AE
ENCODING 12462
SWIDTH 1040 0
DWIDTH 13 0
BBX 12 12 1 -2
BITMAP
31A0
1CD0
1DD0
1F00
F600
0EE0
1F80
1700
F700
0700
0180
0180
ENDCHAR
STARTCHAR 30AF
ENCODING 12463
SWIDTH 1040 0
DWIDTH 13 0
BBX 9 12 2 -2
BITMAP
1C00
1C00
1F80
3980
6180
C300
0300
0200
0E00
1C00
3800
E000
ENDCHAR
STARTCHAR 30B0
ENCODING 12464
SWIDTH 1040 0
DWIDTH 13 0
BBX 11 12 2 -2
BITMAP
1D40
1DA0
1FA0
3980
6180
C300
0300
0200
0E00
1C00
3800
E000
ENDCHAR
STARTCHAR 30B1
ENCODING 12465
SWIDTH 1040 0
DWIDTH 13 0
BBX 11 12 1 -2
BITMAP
6000
3000
31E0
7F00
6180
C180
0180
0100
0700
0700
0E00
1C00
ENDCHAR
STARTCHAR 30B2
ENCODING 12466
SWIDTH 1040 0
DWIDTH 13 0
BBX 12 12 1 -2
BITMAP
61A0
30D0
31D0
7F00
6180
C180
0180
0100
0700
0700
0E00
1C00
ENDCHAR
STARTCHAR 30B3
ENCODING 12467
SWIDTH 1040 0
DWIDTH 13 0
BBX 10 9 1 -1
BITMAP
CFC0
7CC0
00C0
00C0
00C0
00C0
00C0
1FC0
F0C0
ENDCHAR
STARTCHAR 30B4
ENCODING 12468
SWIDTH 1040 0
DWIDTH 13 0
BBX 12 11 1 -1
BITMAP
01A0
00D0
CFD0
7CC0
00C0
00C0
00C0
00C0
00C0
1FC0
F0C0
ENDCHAR
STARTCHAR 30B5
ENCODING 12469
SWIDTH 1040 0
DWIDTH 13 0
BBX 13 12 0 -2
BITMAP
0380
30C0
18C0
DBF8
7F40
18C0
18C0
1880
0380
0380
0700
1E00
ENDCHAR
STARTCHAR 30B6
ENCODING 12470
SWIDTH 1040 0
DWIDTH 13 0
BBX 13 12 0 -2
BITMAP
0750
33A8
1BA8
DBF0
7F80
1B80
1B80
1B80
0380
0380
0700
1E00
ENDCHAR
STARTCHAR 30B7
ENCODING 12471
SWIDTH 1040 0
DWIDTH 13 0
BBX 11 11 1 -2
BITMAP
7000
1C00
0000
E000
3060
00C0
0080
0180
0700
DE00
7000
ENDCHAR
STARTCHAR 30B8
ENCODING 12472
SWIDTH 1040 0
DWIDTH 13 0
BBX 12 11 1 -2
BITMAP
71A0
1CD0
00D0
E000
3060
00C0
0080
0180
0700
DE00
7000
ENDCHAR
STARTCHAR 30B9
ENCODING 12473
SWIDTH 1040 0
DWIDTH 13 0
BBX 11 11 1 -2
BITMAP
6FC0
3CC0
0180
0180
0700
0700
0680
0E80
1CC0
3060
E060
ENDCHAR
STARTCHAR 30BA
ENCODING 12474
SWIDTH 1040 0
DWIDTH 13 0
BBX 12 12 1 -2
BITMAP
01A0
DF50
7750
0700
0700
0E00
0F00
0D80
1D80
30C0
6060
C060
ENDCHAR
STARTCHAR 30BB
ENCODING 12475
SWIDTH 1040 0
DWIDTH 13 0
BBX 12 11 0 -1
BITMAP
6000
3000
33F0
D760
7860
30C0
3380
3380
3000
1800
0FE0
ENDCHAR
STARTCHAR 30BC
ENCODING 12476
SWIDTH 1040 0
DWIDTH 13 0
BBX 13 11 0 -1
BITMAP
60D0
3068
33E8
D760
7860
30C0
3380
3380
3000
1800
0FE0
ENDCHAR
STARTCHAR 30BD
ENCODING 12477
SWIDTH 1040 0
DWIDTH 13 0
BBX 11 11 1 -2
BITMAP
C0C0
6060
3060
3060
00C0
00C0
0080
0180
0700
0E00
1C00
ENDCHAR
STARTCHAR 30BE
ENCODING 12478
SWIDTH 1040 0
DWIDTH 13 0
BBX 12 12 1 -2
BITMAP
01A0
C0D0
60D0
3180
3180
0180
0700
0700
0700
0E00
1C00
3000
ENDCHAR
STARTCHAR 30BF
ENCODING 12479
SWIDTH 1040 0
DWIDTH 13 0
BBX 10 12 2 -2
BITMAP
1C00
1C00
1FC0
38C0
7D80
CE80
0380
0300
0300
0E00
3C00
E000
ENDCHAR
STARTCHAR 30C0
ENCODING 12480
SWIDTH 1040 0
DWIDTH 13 0
BBX 12 12 1 -2
BITMAP
1DA0
1CD0
1FD0
3180
7D80
CE80
0700
0700
0700
0E00
3C00
E000
ENDCHAR
STARTCHAR 30C1
ENCODING 12481
SWIDTH 1040 0
DWIDTH 13 0
BBX 13 12 0 -2
BITMAP
0060
03C0
3F00
0700
C7F8
7E80
0380
0300
0700
0700
0E00
1800
ENDCHAR
STARTCHAR 30C2
ENCODING 12482
SWIDTH 1040 0
DWIDTH 13 0
BBX 13 12 0 -2
BITMAP
00D0
03A8
3F68
0700
C7F8
7E80
0380
0300
0700
0700
0E00
1800
ENDCHAR
STARTCHAR 30C3
ENCODING 12483
SWIDTH 1040 0
DWIDTH 13 0
BBX 9 8 2 -2
BITMAP
3800
DD80
6D80
6D00
6300
0300
0E00
1C00
ENDCHAR
STARTCHAR 30C4
ENCODING 12484
SWIDTH 1040 0
DWIDTH 13 0
BBX 12 11 0 -2
BITMAP
1860
CE30
6730
3730
3060
0060
0040
00C0
0380
0700
0E00
ENDCHAR
STARTCHAR 30C5
ENCODING 12485
SWIDTH 1040 0
DWIDTH 13 0
BBX 13 12 0 -2
BITMAP
00D0
1868
CE68
6740
3760
3060
00C0
00C0
00C0
0380
0700
0E00
ENDCHAR
STARTCHAR 30C6
ENCODING 12486
SWIDTH 1040 0
DWIDTH 13 0
BBX 13 11 0 -2
BITMAP
37E0
1E00
0000
C3F8
7F00
0380
0300
0700
0700
0E00
1800
ENDCHAR
STARTCHAR 30C7
ENCODING 12487
SWIDTH 1040 0
DWIDTH 13 0
BBX 13 12 0 -2
BITMAP
00D0
37A8
1E68
0000
C3F8
7F00
0380
0300
0700
0700
0E00
1800
ENDCHAR
STARTCHAR 30C8
ENCODING 12488
SWIDTH 1040 0
DWIDTH 13 0
BBX 9 12 3 -2
BITMAP
C000
7000
7000
7000
7E00
7380
7000
7000
7000
7000
7000
7000
ENDCHAR
STARTCHAR 30C9
ENCODING 12489
SWIDTH 1040 0
DWIDTH 13 0
BBX 10 12 3 -2
BITMAP
C680
7340
7340
7000
7E00
7380
7000
7000
7000
7000
7000
7000
ENDCHAR
STARTCHAR 30CA
ENCODING 12490
SWIDTH 1040 0
DWIDTH 13 0
BBX 13 12 0 -2
BITMAP
0E00
0700
0700
C7F8
7F00
0700
0700
0600
0E00
0E00
1800
3000
ENDCHAR
STARTCHAR 30CB
ENCODING 12491
SWIDTH 1040 0
DWIDTH 13 0
BBX 13 8 0 0
BITMAP
03E0
3F00
0000
0000
0000
03F0
03F0
FF18
ENDCHAR
STARTCHAR 30CC
ENCODING 12492
SWIDTH 1040 0
DWIDTH 13 0
BBX 11 10 1 -1
BITMAP
67C0
3EC0
00C0
3D80
0E80
0700
0680
0E80
3CC0
E060
ENDCHAR
STARTCHAR 30CD
ENCODING 12493
SWIDTH 1040 0
DWIDTH 13 0
BBX 11 12 1 -2
BITMAP
1C00
0E00
CFC0
7D80
0700
0E80
3EC0
2EE0
EE60
0E00
0E00
0E00
ENDCHAR
STARTCHAR 30CE
ENCODING 12494
SWIDTH 1040 0
DWIDTH 13 0
BBX 9 10 2 -1
BITMAP
0300
0180
0180
0300
0300
0E00
0C00
1C00
3800
E000
ENDCHAR
STARTCHAR 30CF
ENCODING 12495
SWIDTH 1040 0
DWIDTH 13 0
BBX 11 9 1 -1
BITMAP
0700
3180
30C0
30C0
3060
2060
6060
6060
C060
ENDCHAR
STARTCHAR 30D0
ENCODING 12496
SWIDTH 1040 0
DWIDTH 13 0
BBX 12 11 1 -1
BITMAP
01A0
00D0
0750
3180
30C0
30C0
3060
2060
6060
6060
C060
ENDCHAR
STARTCHAR 30D1
ENCODING 12497
SWIDTH 1040 0
DWIDTH 13 0
BBX 12 11 1 -1
BITMAP
00E0
01B0
07B0
31E0
30C0
30C0
3060
2060
6060
6060
C060
ENDCHAR
STARTCHAR 30D2
ENCODING 12498
SWIDTH 1040 0
DWIDTH 13 0
BBX 11 11 1 -1
BITMAP
C000
6000
60C0
6F80
7C00
6000
6000
6000
6000
3000
1FE0
ENDCHAR
STARTCHAR 30D3
ENCODING 12499
SWIDTH 1040 0
DWIDTH 13 0
BBX 12 11 1 -1
BITMAP
C1A0
60D0
61D0
6F00
7C00
6000
6000
6000
6000
3000
1FE0
ENDCHAR
STARTCHAR 30D4
ENCODING 12500
SWIDTH 1040 0
DWIDTH 13 0
BBX 12 11 1 -1
BITMAP
C0E0
61B0
61B0
6F60
7C00
6000
6000
6000
6000
3000
1FE0
ENDCHAR
STARTCHAR 30D5
ENCODING 12501
SWIDTH 1040 0
DWIDTH 13 0
BBX 11 10 1 -1
BITMAP
CFE0
7C60
0060
00C0
00C0
0180
0100
0700
1E00
7000
ENDCHAR
STARTCHAR 30D6
ENCODING 12502
SWIDTH 1040 0
DWIDTH 13 0
BBX 13 11 0 -1
BITMAP
00D0
CFA8
7BA8
0380
0380
0380
0700
0700
0700
0E00
3800
ENDCHAR
STARTCHAR 30D7
ENCODING 12503
SWIDTH 1040 0
DWIDTH 13 0
BBX 13 11 0 -1
BITMAP
0070
CFD8
7BD8
03B0
0380
0380
0700
0700
0700
0E00
3800
ENDCHAR
STARTCHAR 30D8
ENCODING 12504
SWIDTH 1040 0
DWIDTH 13 0
BBX 13 8 0 0
BITMAP
0E00
0E00
1B00
3380
E0C0
E0E0
0060
0038
ENDCHAR
STARTCHAR 30D9
ENCODING 12505
SWIDTH 1040 0
DWIDTH 13 0
BBX 13 9 0 0
BITMAP
03A0
0ED0
0ED0
1B00
3380
E0C0
E0E0
0060
0038
ENDCHAR
STARTCHAR 30DA
ENCODING 12506
SWIDTH 1040 0
DWIDTH 13 0
BBX 13 9 0 0
BITMAP
0070
0ED8
0ED8
1B70
3380
E0C0
E0E0
0060
0038
ENDCHAR
STARTCHAR 30DB
ENCODING 12507
SWIDTH 1040 0
DWIDTH 13 0
BBX 11 12 1 -2
BITMAP
1C00
0E00
CFE0
7E00
0E00
3680
36C0
26E0
6E60
CE60
1E00
0E00
ENDCHAR
STARTCHAR 30DC
ENCODING 12508
SWIDTH 1040 0
DWIDTH 13 0
BBX 12 12 1 -2
BITMAP
1DA0
0ED0
CFD0
7E00
0E00
3680
36C0
26E0
6E60
CE60
1E00
0E00
ENDCHAR
STARTCHAR 30DD
ENCODING 12509
SWIDTH 1040 0
DWIDTH 13 0
BBX 12 12 1 -2
BITMAP
1CE0
0EB0
CFB0
7EE0
0E00
3680
36C0
26E0
6E60
CE60
1E00
0E00
ENDCHAR
STARTCHAR 30DE
ENCODING 12510
SWIDTH 1040 0
DWIDTH 13 0
BBX 11 9 1 -1
BITMAP
CFE0
7CC0
0180
3700
1E00
1F00
0700
0180
0180
ENDCHAR
STARTCHAR 30DF
ENCODING 12511
SWIDTH 1040 0
DWIDTH 13 0
BBX 9 12 2 -2
BITMAP
7800
1E00
0380
0000
7800
1C00
0F00
0F00
0000
E000
3E00
0380
ENDCHAR
STARTCHAR 30E0
ENCODING 12512
SWIDTH 1040 0
DWIDTH 13 0
BBX 11 11 1 -1
BITMAP
1C00
0E00
0E00
1C00
1C00
1D80
30C0
30C0
30C0
3FA0
E060
ENDCHAR
STARTCHAR 30E1
ENCODING 12513
SWIDTH 1040 0
DWIDTH 13 0
BBX 11 11 1 -2
BITMAP
0180
00C0
00C0
3D80
0E80
0780
06C0
0EC0
1C60
3060
E000
ENDCHAR
STARTCHAR 30E2
ENCODING 12514
SWIDTH 1040 0
DWIDTH 13 0
BBX 11 10 1 -1
BITMAP
C7C0
7E00
1C00
1C00
DFE0
7C00
7C00
1C00
1C00
0FE0
ENDCHAR
STARTCHAR 30E3
ENCODING 12515
SWIDTH 1040 0
DWIDTH 13 0
BBX 10 9 2 -2
BITMAP
6000
3800
1FC0
FCC0
FC80
1D80
0E00
0E00
0E00
ENDCHAR
STARTCHAR 30E4
ENCODING 12516
SWIDTH 1040 0
DWIDTH 13 0
BBX 13 12 0 -2
BITMAP
1800
0E00
0EF8
DFB0
7660
0760
0700
0700
0700
0380
0380
0380
ENDCHAR
STARTCHAR 30E5
ENCODING 12517
SWIDTH 1040 0
DWIDTH 13 0
BBX 9 7 2 -1
BITMAP
3E00
EE00
0E00
0E00
0E00
1F00
F980
ENDCHAR
STARTCHAR 30E6
ENCODING 12518
SWIDTH 1040 0
DWIDTH 13 0
BBX 13 8 0 0
BITMAP
37C0
1EC0
00C0
00C0
00C0
00F0
07F0
FE18
ENDCHAR
STARTCHAR 30E7
ENCODING 12519
SWIDTH 1040 0
DWIDTH 13 0
BBX 9 9 3 -2
BITMAP
1F00
FB00
0300
1F00
1B00
FB00
0300
1F00
F980
ENDCHAR
STARTCHAR 30E8
ENCODING 12520
SWIDTH 1040 0
DWIDTH 13 0
BBX 11 10 1 -1
BITMAP
CFC0
7CC0
00C0
0FC0
7CC0
00C0
00C0
00C0
0FC0
7C60
ENDCHAR
STARTCHAR 30E9
ENCODING 12521
SWIDTH 1040 0
DWIDTH 13 0
BBX 11 11 1 -2
BITMAP
67C0
3E00
0000
C7E0
7EC0
00C0
0080
0180
0700
0E00
3C00
ENDCHAR
STARTCHAR 30EA
ENCODING 12522
SWIDTH 1040 0
DWIDTH 13 0
BBX 9 12 2 -2
BITMAP
0300
C180
6180
6180
6180
6180
6180
6100
0300
0300
0E00
1C00
ENDCHAR
STARTCHAR 30EB
ENCODING 12523
SWIDTH 1040 0
DWIDTH 13 0
BBX 12 11 0 -1
BITMAP
0700
3380
1B80
1B80
1B80
1BB0
1BB0
13A0
33A0
33C0
E380
ENDCHAR
STARTCHAR 30EC
ENCODING 12524
SWIDTH 1040 0
DWIDTH 13 0
BBX 10 11 2 -1
BITMAP
C000
6000
6000
6000
6000
60C0
6180
6100
6300
6E00
7800
ENDCHAR
STARTCHAR 30ED
ENCODING 12525
SWIDTH 1040 0
DWIDTH 13 0
BBX 10 8 1 0
BITMAP
CFC0
7CC0
60C0
60C0
60C0
60C0
67C0
7EC0
ENDCHAR
STARTCHAR 30EE
ENCODING 12526
SWIDTH 1040 0
DWIDTH 13 0
BBX 10 9 1 -2
BITMAP
C7C0
7EC0
60C0
3180
3180
3180
0700
0700
0E00
ENDCHAR
STARTCHAR 30EF
ENCODING 12527
SWIDTH 1040 0
DWIDTH 13 0
BBX 11 10 1 -1
BITMAP
CFE0
7C60
6060
30C0
30C0
0180
0100
0700
0E00
1C00
ENDCHAR
STARTCHAR 30F0
ENCODING 12528
SWIDTH 1040 0
DWIDTH 13 0
BBX 11 12 1 -2
BITMAP
0E00
0700
0FE0
FD00
6700
3700
37C0
3560
FD60
0700
0700
0700
ENDCHAR
STARTCHAR 30F1
ENCODING 12529
SWIDTH 1040 0
DWIDTH 13 0
BBX 13 8 0 0
BITMAP
07F0
7E60
0EC0
0700
0700
07F0
07F0
FF18
ENDCHAR
STARTCHAR 30F2
ENCODING 12530
SWIDTH 1040 0
DWIDTH 13 0
BBX 11 10 1 -1
BITMAP
C7E0
7E60
0060
07E0
3EC0
00C0
0080
0180
0F00
3C00
ENDCHAR
STARTCHAR 30F3
ENCODING 12531
SWIDTH 1040 0
DWIDTH 13 0
BBX 11 10 1 -1
BITMAP
E000
3000
1C60
0060
00C0
0180
0100
0700
6E00
3C00
ENDCHAR
STARTCHAR 30F4
ENCODING 12532
SWIDTH 1040 0
DWIDTH 13 0
BBX 12 12 1 -2
BITMAP
1DA0
0ED0
0FD0
FEC0
60C0
60C0
0180
0180
0180
0700
0E00
3C00
ENDCHAR
STARTCHAR 30F5
ENCODING 12533
SWIDTH 1040 0
DWIDTH 13 0
BBX 9 9 2 -2
BITMAP
3800
1C00
DF80
7D80
7980
3980
3980
6E80
C300
ENDCHAR
STARTCHAR 30F6
ENCODING 12534
SWIDTH 1040 0
DWIDTH 13 0
BBX 10 9 1 -2
BITMAP
6000
3000
37C0
6E00
4F00
C700
0700
0E00
1C00
ENDCHAR
STARTCHAR 30F7
ENCODING 12535
SWIDTH 1040 0
DWIDTH 13 0
BBX 13 11 0 -1
BITMAP
00D0
CFA8
7BA8
6380
3380
3380
0700
0700
0700
0E00
1800
ENDCHAR
STARTCHAR 30F8
ENCODING 12536
SWIDTH 1040 0
DWIDTH 13 0
BBX 12 12 1 -2
BITMAP
0EA0
0750
0FD0
FD00
6700
3700
37C0
3560
FD60
0700
0700
0700
ENDCHAR
STARTCHAR 30F9
ENCODING 12537
SWIDTH 1040 0
DWIDTH 13 0
BBX 13 10 0 0
BITMAP
00D0
0068
07E8
7E60
0EC0
0700
0700
07F0
07F0
FF18
ENDCHAR
STARTCHAR 30FA
ENCODING 12538
SWIDTH 1040 0
DWIDTH 13 0
BBX 13 11 0 -1
BITMAP
00D0
CFA8
7BA8
0380
0F80
7B80
0380
0300
0700
0E00
3800
ENDCHAR
STARTCHAR 30FB
ENCODING 12539
SWIDTH 1040 0
DWIDTH 13 0
BBX 4 2 4 4
BITMAP
F0
F0
ENDCHAR
STARTCHAR 30FC
ENCODING 12540
SWIDTH 1040 0
DWIDTH 13 0
BBX 12 3 0 2
BITMAP
C3F0
7F00
7F00
ENDCHAR
STARTCHAR 30FD
ENCODING 12541
SWIDTH 1040 0
DWIDTH 13 0
BBX 8 5 2 2
BITMAP
E0
3C
0E
03
03
ENDCHAR
STARTCHAR 30FE
ENCODING 12542
SWIDTH 1040 0
DWIDTH 13 0
BBX 9 8 2 2
BITMAP
0300
1D80
0E80
EE00
3C00
0E00
0300
0300
ENDCHAR
STARTCHAR 30FF
ENCODING 12543
SWIDTH 1040 0
DWIDTH 13 0
BBX 9 11 2 -1
BITMAP
FF80
0180
0180
0180
0180
0180
0180
0180
0180
0180
0180
ENDCHAR
STARTCHAR 31F0
ENCODING 12784
SWIDTH 1040 0
DWIDTH 13 0
BBX 9 9 2 -2
BITMAP
1C00
1F80
3980
E180
E100
0300
0E00
1C00
F800
ENDCHAR
STARTCHAR 31F1
ENCODING 12785
SWIDTH 1040 0
DWIDTH 13 0
BBX 10 9 2 -2
BITMAP
7800
1C00
E0C0
38C0
3880
0180
0300
DE00
7800
ENDCHAR
STARTCHAR 31F2
ENCODING 12786
SWIDTH 1040 0
DWIDTH 13 0
BBX 10 9 2 -2
BITMAP
6F80
3D80
0300
0300
0200
0E00
1D00
3980
E0C0
ENDCHAR
STARTCHAR 31F3
ENCODING 12787
SWIDTH 1040 0
DWIDTH 13 0
BBX 8 9 3 -2
BITMAP
C0
70
70
7C
77
77
70
70
70
ENDCHAR
STARTCHAR 31F4
ENCODING 12788
SWIDTH 1040 0
DWIDTH 13 0
BBX 9 9 2 -2
BITMAP
6F80
3D80
0180
6300
7A00
3A00
1E00
3B00
E180
ENDCHAR
STARTCHAR 31F5
ENCODING 12789
SWIDTH 1040 0
DWIDTH 13 0
BBX 9 8 2 -2
BITMAP
6E00
3B00
3B00
3B80
3980
6180
6180
C180
ENDCHAR
STARTCHAR 31F6
ENCODING 12790
SWIDTH 1040 0
DWIDTH 13 0
BBX 9 9 2 -2
BITMAP
C000
6300
6E00
7C00
6000
6000
6000
6000
3F80
ENDCHAR
STARTCHAR 31F7
ENCODING 12791
SWIDTH 1040 0
DWIDTH 13 0
BBX 9 9 2 -2
BITMAP
DF80
7980
0180
0300
0300
0300
0E00
1C00
7800
ENDCHAR
STARTCHAR 31F8
ENCODING 12792
SWIDTH 1040 0
DWIDTH 13 0
BBX 11 7 1 -1
BITMAP
1C00
1C00
3600
3700
3700
E180
00E0
ENDCHAR
STARTCHAR 31F9
ENCODING 12793
SWIDTH 1040 0
DWIDTH 13 0
BBX 10 9 2 -2
BITMAP
3800
DF80
7C00
1C00
2D80
6D80
6CC0
DCC0
3C00
ENDCHAR
STARTCHAR 31FA
ENCODING 12794
SWIDTH 1040 0
DWIDTH 13 0
BBX 9 9 2 -2
BITMAP
3800
1C00
1C00
3800
3B00
3B00
6180
6F80
F980
ENDCHAR
STARTCHAR 31FB
ENCODING 12795
SWIDTH 1040 0
DWIDTH 13 0
BBX 9 9 2 -2
BITMAP
6F00
3800
CF80
7D80
7D80
0180
0300
0E00
3C00
ENDCHAR
STARTCHAR 31FC
ENCODING 12796
SWIDTH 1040 0
DWIDTH 13 0
BBX 8 9 2 -2
BITMAP
CE
63
63
63
63
63
0E
0E
1C
ENDCHAR
STARTCHAR 31FD
ENCODING 12797
SWIDTH 1040 0
DWIDTH 13 0
BBX 11 9 1 -2
BITMAP
0E00
6700
3700
3700
3760
3760
6760
6740
C780
ENDCHAR
STARTCHAR 31FE
ENCODING 12798
SWIDTH 1040 0
DWIDTH 13 0
BBX 9 9 2 -2
BITMAP
C000
6000
6000
6000
6180
6180
6300
6E00
7800
ENDCHAR
STARTCHAR 31FF
ENCODING 12799
SWIDTH 1040 0
DWIDTH 13 0
BBX 10 8 1 -2
BITMAP
CFC0
7CC0
60C0
60C0
60C0
60C0
67C0
7EC0
ENDCHAR
STARTCHAR 3231
ENCODING 12849
SWIDTH 1040 0
DWIDTH 13 0
BBX 13 12 0 -2
BITMAP
6030
DB98
FFF8
DBD8
DF58
DFF8
EBD8
EBE8
EBE8
DB58
DED8
68D0
ENDCHAR
STARTCHAR 3232
ENCODING 12850
SWIDTH 1040 0
DWIDTH 13 0
BBX 13 12 0 -2
BITMAP
6E30
CE18
FFF8
CE18
DFE8
D868
DFE8
E868
E868
DFE8
D868
70F0
ENDCHAR
STARTCHAR 3239
ENCODING 12857
SWIDTH 1040 0
DWIDTH 13 0
BBX 13 12 0 -2
BITMAP
63B0
DBD8
DBA8
D7F8
D398
F398
D0D8
D0D8
D0D8
D0D8
D068
7030
ENDCHAR
STARTCHAR 3251
ENCODING 12881
SWIDTH 1040 0
DWIDTH 13 0
BBX 13 12 0 -2
BITMAP
3FE0
6030
DED8
D7D8
C758
CED8
D8D8
D0D8
D0D8
DFE8
6030
3FE0
ENDCHAR
STARTCHAR 3252
ENCODING 12882
SWIDTH 1040 0
DWIDTH 13 0
BBX 13 12 0 -2
BITMAP
3FE0
6030
DED8
D768
C768
CED8
D8D8
D098
D398
DFE8
6030
3FE0
ENDCHAR
STARTCHAR 3253
ENCODING 12883
SWIDTH 1040 0
DWIDTH 13 0
BBX 13 12 0 -2
BITMAP
3FE0
6030
DED8
D7A8
C768
CED8
D868
D0A8
D3A8
DFD8
6030
3FE0
ENDCHAR
STARTCHAR 3254
ENCODING 12884
SWIDTH 1040 0
DWIDTH 13 0
BBX 13 12 0 -2
BITMAP
3FE0
6030
DE68
D768
C7A8
CF68
DBE8
D3E8
D068
DF68
6030
3FE0
ENDCHAR
STARTCHAR 3255
ENCODING 12885
SWIDTH 1040 0
DWIDTH 13 0
BBX 13 12 0 -2
BITMAP
3FE0
6030
DEE8
D798
C798
CEE8
D868
D3E8
D3A8
DFD8
6030
3FE0
ENDCHAR
STARTCHAR 3256
ENCODING 12886
SWIDTH 1040 0
DWIDTH 13 0
BBX 13 12 0 -2
BITMAP
3FE0
6030
DED8
D7A8
C798
CEE8
DBA8
D3A8
D3A8
DFE8
6030
3FE0
ENDCHAR
STARTCHAR 3257
ENCODING 12887
SWIDTH 1040 0
DWIDTH 13 0
BBX 13 12 0 -2
BITMAP
3FE0
6030
DFE8
D768
C768
CED8
D8D8
D0D8
D0D8
DF58
6030
3FE0
ENDCHAR
STARTCHAR 3258
ENCODING 12888
SWIDTH 1040 0
DWIDTH 13 0
BBX 13 12 0 -2
BITMAP
3FE0
6030
DED8
D7A8
C7A8
CED8
DBA8
D3A8
D3A8
DFD8
6030
3FE0
ENDCHAR
STARTCHAR 3259
ENCODING 12889
SWIDTH 1040 0
DWIDTH 13 0
BBX 13 12 0 -2
BITMAP
3FE0
6030
DED8
D7A8
C7A8
CEE8
D868
D3E8
D3A8
DFD8
6030
3FE0
ENDCHAR
STARTCHAR 325A
ENCODING 12890
SWIDTH 1040 0
DWIDTH 13 0
BBX 13 12 0 -2
BITMAP
3FE0
6030
DED8
D7A8
C7A8
DEA8
C7A8
D7A8
D7A8
DED8
6030
3FE0
ENDCHAR
STARTCHAR 325B
ENCODING 12891
SWIDTH 1040 0
DWIDTH 13 0
BBX 13 12 0 -2
BITMAP
3FE0
6030
DED8
D7D8
C758
DED8
C758
D758
D758
DEE8
6030
3FE0
ENDCHAR
STARTCHAR 325C
ENCODING 12892
SWIDTH 1040 0
DWIDTH 13 0
BBX 13 12 0 -2
BITMAP
3FE0
6030
DED8
D768
C768
DED8
C758
D798
D798
DEE8
6030
3FE0
ENDCHAR
STARTCHAR 325D
ENCODING 12893
SWIDTH 1040 0
DWIDTH 13 0
BBX 13 12 0 -2
BITMAP
3FE0
6030
DED8
D768
C768
DED8
C768
D768
D768
DED8
6030
3FE0
ENDCHAR
STARTCHAR 325E
ENCODING 12894
SWIDTH 1040 0
DWIDTH 13 0
BBX 13 12 0 -2
BITMAP
3FE0
6030
DE68
D768
C7A8
DEA8
C7E8
D768
D768
DEE8
6030
3FE0
ENDCHAR
STARTCHAR 325F
ENCODING 12895
SWIDTH 1040 0
DWIDTH 13 0
BBX 13 12 0 -2
BITMAP
3FE0
6030
DEE8
D798
C798
DEE8
C768
D7A8
D7A8
DEE8
6030
3FE0
ENDCHAR
STARTCHAR 32A4
ENCODING 12964
SWIDTH 1040 0
DWIDTH 13 0
BBX 13 12 0 -2
BITMAP
1FC0
3760
6730
C718
C7E8
C718
C718
C718
C718
7FF0
3060
1FC0
ENDCHAR
STARTCHAR 32A5
ENCODING 12965
SWIDTH 1040 0
DWIDTH 13 0
BBX 13 12 0 -2
BITMAP
1FC0
3760
6730
DFE8
D768
D768
DFE8
D768
D768
6730
3760
1FC0
ENDCHAR
STARTCHAR 32A6
ENCODING 12966
SWIDTH 1040 0
DWIDTH 13 0
BBX 13 12 0 -2
BITMAP
1FC0
3060
7FF0
C718
C798
C758
C768
C768
C718
6730
3760
1FC0
ENDCHAR
STARTCHAR 32A7
ENCODING 12967
SWIDTH 1040 0
DWIDTH 13 0
BBX 13 12 0 -2
BITMAP
1FC0
3660
6E30
FFF8
CE18
DFE8
D398
D398
F398
6FF0
3060
1FC0
ENDCHAR
STARTCHAR 32A8
ENCODING 12968
SWIDTH 1040 0
DWIDTH 13 0
BBX 13 12 0 -2
BITMAP
1FC0
3660
6E30
FFF8
D818
DFE8
D668
D668
F668
6FF0
3060
1FC0
ENDCHAR
STARTCHAR 32B1
ENCODING 12977
SWIDTH 1040 0
DWIDTH 13 0
BBX 13 12 0 -2
BITMAP
3FE0
6030
DED8
D7A8
C798
DEE8
C7A8
D7A8
D7A8
DEE8
6030
3FE0
ENDCHAR
STARTCHAR 32B2
ENCODING 12978
SWIDTH 1040 0
DWIDTH 13 0
BBX 13 12 0 -2
BITMAP
3FE0
6030
DEE8
D768
C768
DED8
C758
D758
D758
DED8
6030
3FE0
ENDCHAR
STARTCHAR 32B3
ENCODING 12979
SWIDTH 1040 0
DWIDTH 13 0
BBX 13 12 0 -2
BITMAP
3FE0
6030
DED8
D7A8
C7A8
DED8
C7A8
D7A8
D7A8
DED8
6030
3FE0
ENDCHAR
STARTCHAR 32B4
ENCODING 12980
SWIDTH 1040 0
DWIDTH 13 0
BBX 13 12 0 -2
BITMAP
3FE0
6030
DED8
D7A8
C7A8
DEE8
C768
D768
D768
DED8
6030
3FE0
ENDCHAR
STARTCHAR 32B5
ENCODING 12981
SWIDTH 1040 0
DWIDTH 13 0
BBX 13 12 0 -2
BITMAP
3FE0
6030
CED8
DEA8
D6A8
D6A8
DFA8
DEA8
CEA8
DF58
6030
3FE0
ENDCHAR
STARTCHAR 32B6
ENCODING 12982
SWIDTH 1040 0
DWIDTH 13 0
BBX 13 12 0 -2
BITMAP
3FE0
6030
CED8
DED8
D6D8
D6D8
DF58
DF58
CED8
DFE8
6030
3FE0
ENDCHAR
STARTCHAR 32B7
ENCODING 12983
SWIDTH 1040 0
DWIDTH 13 0
BBX 13 12 0 -2
BITMAP
3FE0
6030
CED8
DF68
D668
D6D8
DF58
DF98
CE98
DFE8
6030
3FE0
ENDCHAR
STARTCHAR 32B8
ENCODING 12984
SWIDTH 1040 0
DWIDTH 13 0
BBX 13 12 0 -2
BITMAP
3FE0
6030
CED8
DF68
D668
D6D8
DF68
DFA8
CEA8
DFD8
6030
3FE0
ENDCHAR
STARTCHAR 32B9
ENCODING 12985
SWIDTH 1040 0
DWIDTH 13 0
BBX 13 12 0 -2
BITMAP
3FE0
6030
CE68
DEE8
D6A8
D768
DFE8
DE68
CE68
DF68
6030
3FE0
ENDCHAR
STARTCHAR 32BA
ENCODING 12986
SWIDTH 1040 0
DWIDTH 13 0
BBX 13 12 0 -2
BITMAP
3FE0
6030
CEE8
DE98
D698
D6E8
DF68
DFA8
CEA8
DFD8
6030
3FE0
ENDCHAR
STARTCHAR 32BB
ENCODING 12987
SWIDTH 1040 0
DWIDTH 13 0
BBX 13 12 0 -2
BITMAP
3FE0
6030
CED8
DEA8
D698
D6E8
DFA8
DEA8
CEA8
DFE8
6030
3FE0
ENDCHAR
STARTCHAR 32BC
ENCODING 12988
SWIDTH 1040 0
DWIDTH 13 0
BBX 13 12 0 -2
BITMAP
3FE0
6030
CFE8
DF68
D668
D6D8
DF58
DF58
CED8
DF58
6030
3FE0
ENDCHAR
STARTCHAR 32BD
ENCODING 12989
SWIDTH 1040 0
DWIDTH 13 0
BBX 13 12 0 -2
BITMAP
3FE0
6030
CED8
DEA8
D6A8
D6D8
DFA8
DEA8
CEA8
DFD8
6030
3FE0
ENDCHAR
STARTCHAR 32BE
ENCODING 12990
SWIDTH 1040 0
DWIDTH 13 0
BBX 13 12 0 -2
BITMAP
3FE0
6030
CED8
DEA8
D6A8
D6E8
DF68
DFA8
CEA8
DFD8
6030
3FE0
ENDCHAR
STARTCHAR 32BF
ENCODING 12991
SWIDTH 1040 0
DWIDTH 13 0
BBX 13 12 0 -2
BITMAP
3FE0
6030
DF58
D3A8
D3A8
DFA8
C7A8
D7A8
D7A8
DED8
6030
3FE0
ENDCHAR
STARTCHAR 32D0
ENCODING 13008
SWIDTH 1040 0
DWIDTH 13 0
BBX 13 12 0 -2
BITMAP
1FC0
3060
67F0
DE68
C758
C798
C718
C618
CE18
6E30
3860
1FC0
ENDCHAR
STARTCHAR 32D1
ENCODING 13009
SWIDTH 1040 0
DWIDTH 13 0
BBX 13 12 0 -2
BITMAP
1FC0
30E0
60D0
C398
C718
DE18
C718
C718
C718
6730
3760
1FC0
ENDCHAR
STARTCHAR 32D2
ENCODING 13010
SWIDTH 1040 0
DWIDTH 13 0
BBX 13 12 0 -2
BITMAP
1FC0
3660
6730
C7E8
DE68
D868
D8D8
D8D8
C0D8
63B0
3760
1FC0
ENDCHAR
STARTCHAR 32D3
ENCODING 13011
SWIDTH 1040 0
DWIDTH 13 0
BBX 13 12 0 -2
BITMAP
1FC0
3060
6030
D3E8
DF18
C718
C718
C7F8
CFE8
7830
3060
1FC0
ENDCHAR
STARTCHAR 32D4
ENCODING 13012
SWIDTH 1040 0
DWIDTH 13 0
BBX 13 12 0 -2
BITMAP
1FC0
3760
63B0
D3E8
DF98
C798
CE98
CA98
DB98
67B0
33A0
1FC0
ENDCHAR
STARTCHAR 32D5
ENCODING 13013
SWIDTH 1040 0
DWIDTH 13 0
BBX 13 12 0 -2
BITMAP
1FC0
3660
6730
D7E8
DF68
CE68
CE68
C868
D868
7750
33A0
1FC0
ENDCHAR
STARTCHAR 32D6
ENCODING 13014
SWIDTH 1040 0
DWIDTH 13 0
BBX 13 12 0 -2
BITMAP
1FC0
3860
6E30
C7D8
CF18
DB68
C798
C698
DE98
63B0
33A0
1FC0
ENDCHAR
STARTCHAR 32D7
ENCODING 13015
SWIDTH 1040 0
DWIDTH 13 0
BBX 13 12 0 -2
BITMAP
1FC0
3660
6730
C7D8
CED8
D8D8
C398
C398
C398
6730
3E60
1FC0
ENDCHAR
STARTCHAR 32D8
ENCODING 13016
SWIDTH 1040 0
DWIDTH 13 0
BBX 13 12 0 -2
BITMAP
1FC0
3860
6E30
CEE8
DF98
D398
C398
C318
C718
6730
3660
1FC0
ENDCHAR
STARTCHAR 32D9
ENCODING 13017
SWIDTH 1040 0
DWIDTH 13 0
BBX 13 12 0 -2
BITMAP
1FC0
3060
6070
D7D8
DED8
C0D8
C0D8
C0D8
C7D8
6ED0
3060
1FC0
ENDCHAR
STARTCHAR 32DA
ENCODING 13018
SWIDTH 1040 0
DWIDTH 13 0
BBX 13 12 0 -2
BITMAP
1FC0
33A0
68D0
CED8
EEF8
DF58
CED8
CE98
C398
63B0
3760
1FC0
ENDCHAR
STARTCHAR 32DB
ENCODING 13019
SWIDTH 1040 0
DWIDTH 13 0
BBX 13 12 0 -2
BITMAP
1FC0
3060
6030
DE18
C738
D868
CE68
CE68
C0D8
6BB0
3760
1FC0
ENDCHAR
STARTCHAR 32DC
ENCODING 13020
SWIDTH 1040 0
DWIDTH 13 0
BBX 13 12 0 -2
BITMAP
1FC0
3060
77D0
DED8
C0D8
C398
C798
C6D8
CED8
6870
3060
1FC0
ENDCHAR
STARTCHAR 32DD
ENCODING 13021
SWIDTH 1040 0
DWIDTH 13 0
BBX 13 12 0 -2
BITMAP
1FC0
3060
7030
DBE8
DED8
DB98
D818
DE18
CE18
67D0
3060
1FC0
ENDCHAR
STARTCHAR 32DE
ENCODING 13022
SWIDTH 1040 0
DWIDTH 13 0
BBX 13 12 0 -2
BITMAP
1FC0
3060
6030
D868
CE68
CED8
C0D8
C098
C398
6730
3660
1FC0
ENDCHAR
STARTCHAR 32DF
ENCODING 13023
SWIDTH 1040 0
DWIDTH 13 0
BBX 13 12 0 -2
BITMAP
1FC0
3660
6730
C7D8
CED8
DB58
C398
C318
C718
6E30
3860
1FC0
ENDCHAR
STARTCHAR 32E0
ENCODING 13024
SWIDTH 1040 0
DWIDTH 13 0
BBX 13 12 0 -2
BITMAP
1FC0
30E0
63B0
DF18
E7F8
DE98
C398
C398
C398
6730
3660
1FC0
ENDCHAR
STARTCHAR 32E1
ENCODING 13025
SWIDTH 1040 0
DWIDTH 13 0
BBX 13 12 0 -2
BITMAP
1FC0
3060
6ED0
D768
DB68
D868
C0D8
C0D8
C0D8
63B0
3760
1FC0
ENDCHAR
STARTCHAR 32E2
ENCODING 13026
SWIDTH 1040 0
DWIDTH 13 0
BBX 13 12 0 -2
BITMAP
1FC0
3060
6BD0
CE18
E3F8
DF18
C398
C398
C398
6730
3660
1FC0
ENDCHAR
STARTCHAR 32E3
ENCODING 13027
SWIDTH 1040 0
DWIDTH 13 0
BBX 13 12 0 -2
BITMAP
1FC0
3860
6E30
CE18
CF98
CEE8
CE18
CE18
CE18
6E30
3660
1FC0
ENDCHAR
STARTCHAR 32E5
ENCODING 13029
SWIDTH 1040 0
DWIDTH 13 0
BBX 13 12 0 -2
BITMAP
1FC0
3060
6030
D7D8
DE18
C018
C018
C7F8
C7E8
7E30
3060
1FC0
ENDCHAR
STARTCHAR 32E9
ENCODING 13033
SWIDTH 1040 0
DWIDTH 13 0
BBX 13 12 0 -2
BITMAP
1FC0
3060
6030
C398
D8D8
D8D8
D868
D068
D068
7030
3060
1FC0
ENDCHAR
STARTCHAR 32EC
ENCODING 13036
SWIDTH 1040 0
DWIDTH 13 0
BBX 13 12 0 -2
BITMAP
1FC0
3060
6E30
CE18
DB18
D398
E0D8
C0D8
C078
6030
3060
1FC0
ENDCHAR
STARTCHAR 32ED
ENCODING 13037
SWIDTH 1040 0
DWIDTH 13 0
BBX 13 12 0 -2
BITMAP
1FC0
3660
6730
D7E8
DF18
DB58
DB68
DB68
D768
6F30
3760
1FC0
ENDCHAR
STARTCHAR 32FA
ENCODING 13050
SWIDTH 1040 0
DWIDTH 13 0
BBX 13 12 0 -2
BITMAP
1FC0
3060
6030
E7E8
DE68
D068
D3E8
D368
DF68
6030
3060
1FC0
ENDCHAR
STARTCHAR 3303
ENCODING 13059
SWIDTH 1040 0
DWIDTH 13 0
BBX 12 12 0 -2
BITMAP
FF00
3700
3600
3BF0
6000
C000
1800
2B80
6B80
6B80
6B00
DE00
ENDCHAR
STARTCHAR 330D
ENCODING 13069
SWIDTH 1040 0
DWIDTH 13 0
BBX 13 12 0 -2
BITMAP
6000
FEF0
6EB0
6EB0
DBF0
0000
D800
D800
D800
DBF8
1800
3000
ENDCHAR
STARTCHAR 3314
ENCODING 13076
SWIDTH 1040 0
DWIDTH 13 0
BBX 12 11 0 -1
BITMAP
3000
3E00
F000
1F00
F800
1BF0
1BB0
1BB0
03B0
03B0
03F0
ENDCHAR
STARTCHAR 3318
ENCODING 13080
SWIDTH 1040 0
DWIDTH 13 0
BBX 13 12 0 -2
BITMAP
1B70
7B00
6BF8
D818
3030
60E0
3000
3000
3000
6E00
6B00
F700
ENDCHAR
STARTCHAR 3322
ENCODING 13090
SWIDTH 1040 0
DWIDTH 13 0
BBX 13 12 0 -2
BITMAP
6000
7E80
EED8
6818
6030
3EE0
0E00
0800
7800
FF00
1800
3000
ENDCHAR
STARTCHAR 3323
ENCODING 13091
SWIDTH 1040 0
DWIDTH 13 0
BBX 13 12 0 -2
BITMAP
6000
7E80
EED8
6818
6030
3EE0
6000
7800
7800
6E00
6000
6000
ENDCHAR
STARTCHAR 3326
ENCODING 13094
SWIDTH 1040 0
DWIDTH 13 0
BBX 12 12 1 -2
BITMAP
D600
D600
F000
DC00
C000
CE80
0E80
0EB0
0EB0
0EA0
0EC0
1D80
ENDCHAR
STARTCHAR 3327
ENCODING 13095
SWIDTH 1040 0
DWIDTH 13 0
BBX 12 12 1 -2
BITMAP
C000
C000
F000
DC00
C000
CE00
0700
0730
0730
0060
00C0
0780
ENDCHAR
STARTCHAR 332B
ENCODING 13099
SWIDTH 1040 0
DWIDTH 13 0
BBX 13 12 0 -2
BITMAP
0700
6E80
6B00
CEF0
CE00
0060
DE60
EB70
EB70
D0E8
C3A0
7B60
ENDCHAR
STARTCHAR 3336
ENCODING 13110
SWIDTH 1040 0
DWIDTH 13 0
BBX 13 12 0 -2
BITMAP
30F8
30D8
6B98
6E30
0730
7860
6BA0
6BA8
EBA8
3FA8
33B0
E760
ENDCHAR
STARTCHAR 333B
ENCODING 13115
SWIDTH 1040 0
DWIDTH 13 0
BBX 12 12 0 -2
BITMAP
0E00
6B00
D6F0
D800
0F00
0740
E740
E740
0000
EE00
1800
7000
ENDCHAR
STARTCHAR 3349
ENCODING 13129
SWIDTH 1040 0
DWIDTH 13 0
BBX 11 11 1 -2
BITMAP
E000
3C00
E000
3D60
E760
3D60
3D60
0760
0060
00C0
0180
ENDCHAR
STARTCHAR 334A
ENCODING 13130
SWIDTH 1040 0
DWIDTH 13 0
BBX 13 12 0 -2
BITMAP
E3B0
3BB0
E3B0
3860
E060
3EC0
7660
6660
60E0
D7E8
D8F0
DBA0
ENDCHAR
STARTCHAR 334D
ENCODING 13133
SWIDTH 1040 0
DWIDTH 13 0
BBX 13 12 0 -2
BITMAP
0E00
7600
1BF0
3800
EE00
6000
60C0
7140
7740
6B58
6750
6EE0
ENDCHAR
STARTCHAR 3351
ENCODING 13137
SWIDTH 1040 0
DWIDTH 13 0
BBX 13 12 0 -2
BITMAP
D800
D800
DBA8
1BA8
3030
60E0
6740
6B40
7B40
6F58
6750
6EE0
ENDCHAR
STARTCHAR 3357
ENCODING 13143
SWIDTH 1040 0
DWIDTH 13 0
BBX 13 12 0 -2
BITMAP
FE00
CE00
CEA8
1BA8
3030
60E0
6000
7800
7800
6E00
6000
6000
ENDCHAR
STARTCHAR 337B
ENCODING 13179
SWIDTH 1040 0
DWIDTH 13 0
BBX 13 12 0 -2
BITMAP
FF60
30D0
D6D0
D7F8
7B60
FF68
37E8
3770
3750
3758
36E8
36D8
ENDCHAR
STARTCHAR 337C
ENCODING 13180
SWIDTH 1040 0
DWIDTH 13 0
BBX 13 12 0 -2
BITMAP
3EC0
F7B8
D6A8
D7E8
F6A8
DBE8
DFE8
D7A8
D7A8
F6A8
DEB8
36A8
ENDCHAR
STARTCHAR 337D
ENCODING 13181
SWIDTH 1040 0
DWIDTH 13 0
BBX 13 12 0 -2
BITMAP
37F8
3060
3060
FEA0
33A0
33B8
33A0
2BA0
6BA0
6EA0
6FA0
C7F8
ENDCHAR
STARTCHAR 337E
ENCODING 13182
SWIDTH 1040 0
DWIDTH 13 0
BBX 13 12 0 -2
BITMAP
3E60
F760
D6B0
DED8
F778
D698
DE00
D6F8
F6F8
D6D8
3778
6F58
ENDCHAR
STARTCHAR 338E
ENCODING 13198
SWIDTH 1040 0
DWIDTH 13 0
BBX 13 9 0 -2
BITMAP
0018
E8F8
D6B0
D6B0
D6A0
D6E0
D6F0
D798
07F0
ENDCHAR
STARTCHAR 338F
ENCODING 13199
SWIDTH 1040 0
DWIDTH 13 0
BBX 13 12 0 -2
BITMAP
6000
E000
6000
6018
6F78
6EB0
7BB0
7BA0
78E0
6EF0
6F98
07F0
ENDCHAR
STARTCHAR 339C
ENCODING 13212
SWIDTH 1040 0
DWIDTH 13 0
BBX 13 7 0 -1
BITMAP
EBD0
D6A8
D6A8
D6A8
D6A8
D6A8
D6A8
ENDCHAR
STARTCHAR 339D
ENCODING 13213
SWIDTH 1040 0
DWIDTH 13 0
BBX 13 7 0 -1
BITMAP
76D0
EEA8
C3A8
C3A8
C3A8
6EA8
3BA8
ENDCHAR
STARTCHAR 339E
ENCODING 13214
SWIDTH 1040 0
DWIDTH 13 0
BBX 13 11 0 -1
BITMAP
6000
E000
6000
6000
6FD0
6EA8
7BA8
7BA8
7BA8
6EA8
6EA8
ENDCHAR
STARTCHAR 33A1
ENCODING 13217
SWIDTH 1040 0
DWIDTH 13 0
BBX 13 11 0 -1
BITMAP
00F0
0018
0070
00C0
EEF8
7740
7760
7760
7760
7760
F770
ENDCHAR
STARTCHAR 33C4
ENCODING 13252
SWIDTH 1040 0
DWIDTH 13 0
BBX 13 7 0 -1
BITMAP
76E8
EED8
CE98
CE98
C380
6ED8
3870
ENDCHAR
STARTCHAR 33CB
ENCODING 13259
SWIDTH 1040 0
DWIDTH 13 0
BBX 13 11 0 -1
BITMAP
F7E0
77B0
77B8
77B8
7FB0
77E0
7780
7780
7780
7780
F7C0
ENDCHAR
STARTCHAR 33CD
ENCODING 13261
SWIDTH 1040 0
DWIDTH 13 0
BBX 13 11 0 -1
BITMAP
DEB8
DBB0
D3A0
D3A0
E3C0
F3E0
DBB0
DBB0
DBB0
DEB8
DEB8
ENDCHAR
STARTCHAR 3402
ENCODING 13314
SWIDTH 1040 0
DWIDTH 13 0
BBX 13 12 0 -2
BITMAP
1870
1BC0
FE00
1830
0FF0
60C0
6F58
6850
68F0
F3C0
6F58
3E78
ENDCHAR
STARTCHAR 3406
ENCODING 13318
SWIDTH 1040 0
DWIDTH 13 0
BBX 11 12 0 -2
BITMAP
00E0
1F80
1FE0
1860
1FE0
1FE0
1800
1FE0
3FE0
3060
6060
C3C0
ENDCHAR
STARTCHAR 342C
ENCODING 13356
SWIDTH 1040 0
DWIDTH 13 0
BBX 13 12 0 -2
BITMAP
0700
FFF8
0E60
1BE0
3F30
1B40
1B40
1B40
1B40
3758
3758
E078
ENDCHAR
STARTCHAR 342E
ENCODING 13358
SWIDTH 1040 0
DWIDTH 13 0
BBX 13 12 0 -2
BITMAP
0700
FFF8
38E0
E8D8
7FF0
3FE0
18C0
18F8
FFF8
3BB0
EF60
3838
ENDCHAR
STARTCHAR 3468
ENCODING 13416
SWIDTH 1040 0
DWIDTH 13 0
BBX 13 12 0 -2
BITMAP
1BF0
1B30
37F0
3730
7700
D7F0
36C0
36F8
37F8
30C0
33A0
3738
ENDCHAR
STARTCHAR 346A
ENCODING 13418
SWIDTH 1040 0
DWIDTH 13 0
BBX 13 12 0 -2
BITMAP
18C0
1FF8
3730
33E0
73A0
D738
37F0
3730
3730
37F0
3630
3830
ENDCHAR
STARTCHAR 3492
ENCODING 13458
SWIDTH 1040 0
DWIDTH 13 0
BBX 13 12 0 -2
BITMAP
1EA8
1BB0
37F8
33A0
77F8
D0C0
37F0
37C0
30C0
37F8
3750
36D8
ENDCHAR
STARTCHAR 34B5
ENCODING 13493
SWIDTH 1040 0
DWIDTH 13 0
BBX 13 12 0 -2
BITMAP
0F00
7FF0
6030
7FF0
6030
6030
7FF0
6030
6030
18C0
3060
E038
ENDCHAR
STARTCHAR 34BC
ENCODING 13500
SWIDTH 1040 0
DWIDTH 13 0
BBX 13 12 0 -2
BITMAP
18C0
FFF8
18C0
1FC0
0700
7FF0
7BD0
6B50
6B50
77B0
6730
6770
ENDCHAR
STARTCHAR 34C1
ENCODING 13505
SWIDTH 1040 0
DWIDTH 13 0
BBX 13 8 0 0
BITMAP
7FF8
6B98
DB98
1B80
33B0
33B0
33B0
60F0
ENDCHAR
STARTCHAR 34C7
ENCODING 13511
SWIDTH 1040 0
DWIDTH 13 0
BBX 13 12 0 -2
BITMAP
6038
37E0
30C0
00C0
1FF8
30C0
60E0
60A0
63A0
C3B0
C730
DE18
ENDCHAR
STARTCHAR 34DB
ENCODING 13531
SWIDTH 1040 0
DWIDTH 13 0
BBX 13 12 0 -2
BITMAP
0FF8
0398
FB98
3398
3398
3398
3398
3B18
3B18
E718
0E18
1870
ENDCHAR
STARTCHAR 351F
ENCODING 13599
SWIDTH 1040 0
DWIDTH 13 0
BBX 13 12 0 -2
BITMAP
68C0
7F40
DBF0
7F50
1BD0
1F78
F3B8
F338
0718
FFF8
0E18
7870
ENDCHAR
STARTCHAR 355D
ENCODING 13661
SWIDTH 1040 0
DWIDTH 13 0
BBX 13 12 0 -2
BITMAP
0700
FFF8
0700
3FE0
3060
3FE0
0000
7FF0
7FF0
1EE0
3FE0
FEF8
ENDCHAR
STARTCHAR 355E
ENCODING 13662
SWIDTH 1040 0
DWIDTH 13 0
BBX 13 12 0 -2
BITMAP
7FF0
FFF8
FFD8
FFD8
EEF8
FF70
FB70
FB60
FB60
FB70
DF70
DBD8
ENDCHAR
STARTCHAR 3563
ENCODING 13667
SWIDTH 1040 0
DWIDTH 13 0
BBX 13 12 0 -2
BITMAP
0F80
0380
18C0
18C0
3060
E038
3FE0
3060
3060
3060
3FE0
3060
ENDCHAR
STARTCHAR 356E
ENCODING 13678
SWIDTH 1040 0
DWIDTH 13 0
BBX 13 12 0 -2
BITMAP
0760
FB70
DF30
DF78
DB60
DBE0
DEE0
D8C0
F8C0
DBE0
07F0
1F78
ENDCHAR
STARTCHAR 35A6
ENCODING 13734
SWIDTH 1040 0
DWIDTH 13 0
BBX 13 12 0 -2
BITMAP
00C0
FFF8
D8C0
DBF0
DB50
DBF0
DB50
DB50
FBF0
DBE0
0750
0ED8
ENDCHAR
STARTCHAR 35A8
ENCODING 13736
SWIDTH 1040 0
DWIDTH 13 0
BBX 13 12 0 -2
BITMAP
03F0
FB30
DBE0
D860
DFF8
D8C0
DF58
DB50
FBF0
DB50
0ED8
03C0
ENDCHAR
STARTCHAR 35C5
ENCODING 13765
SWIDTH 1040 0
DWIDTH 13 0
BBX 13 12 0 -2
BITMAP
0778
F768
DFE8
D778
D768
D7A8
D6B8
D6A8
F6A8
CEA8
0FD8
0ED8
ENDCHAR
STARTCHAR 35DA
ENCODING 13786
SWIDTH 1040 0
DWIDTH 13 0
BBX 13 12 0 -2
BITMAP
0FF8
F3A0
D7F8
D6A8
D6A8
D7F8
D0C0
D0F8
F7F8
C3E0
0750
0ED8
ENDCHAR
STARTCHAR 35F4
ENCODING 13812
SWIDTH 1040 0
DWIDTH 13 0
BBX 13 12 0 -2
BITMAP
0FB8
F6A8
D7B8
D6A8
D7B8
D6E8
D6A8
D6A8
F6E8
CEA8
0EE8
0EB8
ENDCHAR
STARTCHAR 3605
ENCODING 13829
SWIDTH 1040 0
DWIDTH 13 0
BBX 13 12 0 -2
BITMAP
1BB8
FBF8
DFE0
DFF8
DBB8
DFF8
DEB8
DEB8
FFB8
DFF8
3FF8
3F38
ENDCHAR
STARTCHAR 364A
ENCODING 13898
SWIDTH 1040 0
DWIDTH 13 0
BBX 13 12 0 -2
BITMAP
37F0
3700
37F0
FB00
37F0
3700
37F8
3F50
3B50
E760
07D0
0F18
ENDCHAR
STARTCHAR 3691
ENCODING 13969
SWIDTH 1040 0
DWIDTH 13 0
BBX 13 12 0 -2
BITMAP
3FE0
0060
FFF8
0060
0060
3FE0
0700
07F8
FFF8
0700
1EC0
F078
ENDCHAR
STARTCHAR 3696
ENCODING 13974
SWIDTH 1040 0
DWIDTH 13 0
BBX 13 12 0 -2
BITMAP
0700
3FE0
3060
3FE0
3FE0
3060
3FE0
3F30
0730
FFF8
1EC0
F078
ENDCHAR
STARTCHAR 3699
ENCODING 13977
SWIDTH 1040 0
DWIDTH 13 0
BBX 13 12 0 -2
BITMAP
30F8
FF58
3758
3758
6778
DED8
0700
07F8
FFF8
0700
1EC0
F078
ENDCHAR
STARTCHAR 36CF
ENCODING 14031
SWIDTH 1040 0
DWIDTH 13 0
BBX 13 12 0 -2
BITMAP
60D0
60D8
FFF8
68C0
6ED0
6B50
DBE0
DB60
F760
6ED0
68D8
C7C0
ENDCHAR
STARTCHAR 3761
ENCODING 14177
SWIDTH 1040 0
DWIDTH 13 0
BBX 13 12 0 -2
BITMAP
0700
7FF8
6018
FF00
6EF8
7EB8
7EB8
7EB0
7EF0
6EE0
FEF8
EEB8
ENDCHAR
STARTCHAR 3762
ENCODING 14178
SWIDTH 1040 0
DWIDTH 13 0
BBX 13 12 0 -2
BITMAP
0700
7FF8
63E8
DFE0
3F80
3FE0
3FE0
3FF0
7FF0
7FF0
6FF0
6E70
ENDCHAR
STARTCHAR 376B
ENCODING 14187
SWIDTH 1040 0
DWIDTH 13 0
BBX 13 12 0 -2
BITMAP
0700
7FF0
E3B8
7BF0
FFE0
FBF0
FFF8
FBF0
FBF0
FFE0
FBF0
EFF8
ENDCHAR
STARTCHAR 376C
ENCODING 14188
SWIDTH 1040 0
DWIDTH 13 0
BBX 13 12 0 -2
BITMAP
30E0
FEE0
D7F8
FEE0
78E0
7BF8
FEE0
F8E0
78E0
FBF0
EBB0
FFB8
ENDCHAR
STARTCHAR 3775
ENCODING 14197
SWIDTH 1040 0
DWIDTH 13 0
BBX 13 12 0 -2
BITMAP
3FE0
3060
3FE0
3060
3FE0
7FF0
00C0
00F8
FFF8
30C0
18C0
07C0
ENDCHAR
STARTCHAR 378D
ENCODING 14221
SWIDTH 1040 0
DWIDTH 13 0
BBX 13 12 0 -2
BITMAP
7FF8
6018
7FF8
6718
6700
7FE0
6760
6F60
6B60
6E68
CF68
DBB8
ENDCHAR
STARTCHAR 37C1
ENCODING 14273
SWIDTH 1040 0
DWIDTH 13 0
BBX 13 12 0 -2
BITMAP
37F8
3600
DEF0
DFF0
DEE0
DFF8
DEE0
DEE0
FEE0
CEE0
18E0
18E0
ENDCHAR
STARTCHAR 37E2
ENCODING 14306
SWIDTH 1040 0
DWIDTH 13 0
BBX 13 12 0 -2
BITMAP
0700
6730
7FF0
0700
7FF0
0E80
38E0
38F8
FFF8
3760
3F60
33E0
ENDCHAR
STARTCHAR 37E8
ENCODING 14312
SWIDTH 1040 0
DWIDTH 13 0
BBX 13 12 0 -2
BITMAP
30C0
3758
D7F8
D600
D7F8
D680
D7F8
D768
FF68
C768
0768
0738
ENDCHAR
STARTCHAR 37F4
ENCODING 14324
SWIDTH 1040 0
DWIDTH 13 0
BBX 13 12 0 -2
BITMAP
30C0
37F8
D758
D7F8
D758
D7F8
D6D0
D6E8
FEE8
C3F8
0758
0E78
ENDCHAR
STARTCHAR 37FD
ENCODING 14333
SWIDTH 1040 0
DWIDTH 13 0
BBX 13 12 0 -2
BITMAP
6FF8
6FF8
6FF8
FF78
FFF8
FFF0
FFF0
FFF8
FFF8
F750
1F58
0FD8
ENDCHAR
STARTCHAR 3800
ENCODING 14336
SWIDTH 1040 0
DWIDTH 13 0
BBX 13 12 0 -2
BITMAP
3FC0
3FE0
3FE0
3FE0
3FE0
3FF8
3FF8
2B58
EB58
C730
6730
7FF0
ENDCHAR
STARTCHAR 382F
ENCODING 14383
SWIDTH 1040 0
DWIDTH 13 0
BBX 10 12 2 -2
BITMAP
FF80
C180
C180
FF80
C180
C000
FFC0
C0C0
C0C0
C0C0
FFC0
C0C0
ENDCHAR
STARTCHAR 3836
ENCODING 14390
SWIDTH 1040 0
DWIDTH 13 0
BBX 13 12 0 -2
BITMAP
30E0
30C0
FEF0
D6B0
D6B0
D6B0
D6B0
D8B0
DBB0
33B0
37B8
3738
ENDCHAR
STARTCHAR 3840
ENCODING 14400
SWIDTH 1040 0
DWIDTH 13 0
BBX 11 12 1 -2
BITMAP
0E00
7680
EEE0
CE60
FFE0
DF60
DFA0
DEA0
FEA0
F6E0
CE60
C1E0
ENDCHAR
STARTCHAR 385C
ENCODING 14428
SWIDTH 1040 0
DWIDTH 13 0
BBX 13 12 0 -2
BITMAP
37F8
3768
FED0
D7B0
D768
D7F8
D600
DFF8
DBF8
3750
3758
36D8
ENDCHAR
STARTCHAR 3861
ENCODING 14433
SWIDTH 1040 0
DWIDTH 13 0
BBX 13 12 0 -2
BITMAP
37F8
37F8
FFD8
D7D8
D7F8
D778
D7F8
DF78
DB78
3758
37D8
37F8
ENDCHAR
STARTCHAR 38FA
ENCODING 14586
SWIDTH 1040 0
DWIDTH 13 0
BBX 13 10 0 -1
BITMAP
0E00
0E00
0E60
6F30
6E98
6ED8
4ED8
CEC0
CE00
1E00
ENDCHAR
STARTCHAR 3917
ENCODING 14615
SWIDTH 1040 0
DWIDTH 13 0
BBX 13 12 0 -2
BITMAP
0700
7FF0
7FF0
7FF0
FFF8
7B70
E738
F730
3770
37F8
7770
6F00
ENDCHAR
STARTCHAR 391A
ENCODING 14618
SWIDTH 1040 0
DWIDTH 13 0
BBX 13 12 0 -2
BITMAP
33B0
3380
3B00
DEF8
DBB0
D730
3730
3730
3730
3730
3730
3770
ENDCHAR
STARTCHAR 396F
ENCODING 14703
SWIDTH 1040 0
DWIDTH 13 0
BBX 13 12 0 -2
BITMAP
3FF0
7FE0
FFF0
3FD0
FFF8
FFF8
7FF0
7FF0
7FF0
6B30
6BA8
CFE8
ENDCHAR
STARTCHAR 3A6E
ENCODING 14958
SWIDTH 1040 0
DWIDTH 13 0
BBX 13 12 0 -2
BITMAP
37D0
36D8
FFF8
37F8
37F8
3FF8
F7F8
F7F8
37F8
37F0
37F0
77C0
ENDCHAR
STARTCHAR 3A73
ENCODING 14963
SWIDTH 1040 0
DWIDTH 13 0
BBX 13 12 0 -2
BITMAP
36F8
37F8
FFF0
37F0
37F8
3FF8
F7F8
F7F0
37F0
37E0
37F0
77B8
ENDCHAR
STARTCHAR 3AD6
ENCODING 15062
SWIDTH 1040 0
DWIDTH 13 0
BBX 13 12 0 -2
BITMAP
0700
0700
07F0
0700
FFF8
0000
3FE0
3060
3060
3FE0
3060
3FE0
ENDCHAR
STARTCHAR 3AD7
ENCODING 15063
SWIDTH 1040 0
DWIDTH 13 0
BBX 13 12 0 -2
BITMAP
3FE0
3FE0
3FE0
3FE0
3FE0
7FE0
0780
07F8
FFF8
FFF8
0700
1F00
ENDCHAR
STARTCHAR 3AEA
ENCODING 15082
SWIDTH 1040 0
DWIDTH 13 0
BBX 13 12 0 -2
BITMAP
0700
7FF0
7FF0
0E80
FFF8
18C0
37E0
3678
F678
37E0
3660
37E0
ENDCHAR
STARTCHAR 3B0E
ENCODING 15118
SWIDTH 1040 0
DWIDTH 13 0
BBX 13 12 0 -2
BITMAP
3FE0
3FE0
3FE0
3FE0
36C0
7EF0
38E0
38F0
7FF0
7BF8
6ED0
EED8
ENDCHAR
STARTCHAR 3B1A
ENCODING 15130
SWIDTH 1040 0
DWIDTH 13 0
BBX 13 12 0 -2
BITMAP
0760
FFE0
D678
DFF8
DFB8
FFB8
DFB8
DFB0
DFB0
FFB8
1BB8
1BF8
ENDCHAR
STARTCHAR 3B1C
ENCODING 15132
SWIDTH 1040 0
DWIDTH 13 0
BBX 13 12 0 -2
BITMAP
FEF0
FEF0
FEF8
FFF8
FBF8
FFF8
3FE0
3FE0
3FE0
3FE0
3060
3FE0
ENDCHAR
STARTCHAR 3B22
ENCODING 15138
SWIDTH 1040 0
DWIDTH 13 0
BBX 13 12 0 -2
BITMAP
03B0
FFF8
D8C0
DBF0
F8C0
DFF8
DBA8
DBA8
FFF8
DB70
07A8
0F58
ENDCHAR
STARTCHAR 3B6D
ENCODING 15213
SWIDTH 1040 0
DWIDTH 13 0
BBX 13 12 0 -2
BITMAP
37A8
36A8
FEA8
37A8
7768
7BA8
D6A8
D6A8
D6A8
3698
3B98
37B8
ENDCHAR
STARTCHAR 3B77
ENCODING 15223
SWIDTH 1040 0
DWIDTH 13 0
BBX 13 12 0 -2
BITMAP
37F8
3758
FFF8
3758
7BF8
7758
D6C0
D6F8
D7F8
30D8
3398
3770
ENDCHAR
STARTCHAR 3B87
ENCODING 15239
SWIDTH 1040 0
DWIDTH 13 0
BBX 13 12 0 -2
BITMAP
3070
37C0
FEC0
37F8
7BA0
7730
D6D8
D7D8
D740
3770
36E8
33D8
ENDCHAR
STARTCHAR 3B88
ENCODING 15240
SWIDTH 1040 0
DWIDTH 13 0
BBX 13 12 0 -2
BITMAP
30C0
37F8
FEA0
3730
7B18
77F0
D000
D7F8
D7F8
3750
3758
36D8
ENDCHAR
STARTCHAR 3B8D
ENCODING 15245
SWIDTH 1040 0
DWIDTH 13 0
BBX 13 12 0 -2
BITMAP
FFF8
FFF8
7EB0
7EB0
7EB0
6EF0
6770
6778
FFF8
0F80
3B60
E738
ENDCHAR
STARTCHAR 3BA4
ENCODING 15268
SWIDTH 1040 0
DWIDTH 13 0
BBX 13 12 0 -2
BITMAP
0700
7FF0
F8F8
7FB0
7FF0
FFF8
38E0
38C0
1FC0
FFF8
7FE0
F778
ENDCHAR
STARTCHAR 3BB6
ENCODING 15286
SWIDTH 1040 0
DWIDTH 13 0
BBX 13 12 0 -2
BITMAP
3BB8
3768
FFE8
3778
7B68
7B68
DFF8
DB68
DB68
3768
36D8
38D8
ENDCHAR
STARTCHAR 3BC3
ENCODING 15299
SWIDTH 1040 0
DWIDTH 13 0
BBX 13 12 0 -2
BITMAP
30C0
37F8
FBE0
3758
73A0
7F58
DB50
D370
D3E0
3760
36D8
33C0
ENDCHAR
STARTCHAR 3BCD
ENCODING 15309
SWIDTH 1040 0
DWIDTH 13 0
BBX 13 12 0 -2
BITMAP
3778
37F8
FFF8
37B0
7BE0
77D8
D7F8
D738
D738
3778
3778
3778
ENDCHAR
STARTCHAR 3BF0
ENCODING 15344
SWIDTH 1040 0
DWIDTH 13 0
BBX 13 12 0 -2
BITMAP
37F0
37F8
FFF8
37F8
7BF0
77F8
D7F8
D7F8
D7F8
37F8
37F0
37F8
ENDCHAR
STARTCHAR 3C0F
ENCODING 15375
SWIDTH 1040 0
DWIDTH 13 0
BBX 13 12 0 -2
BITMAP
3760
37F8
FF50
33D8
7FF8
7BE0
D3A0
D3B8
D7F8
36E8
36A8
36F8
ENDCHAR
STARTCHAR 3C26
ENCODING 15398
SWIDTH 1040 0
DWIDTH 13 0
BBX 13 12 0 -2
BITMAP
3B80
3B80
FEF8
3B98
3B50
FEC0
30C0
36E0
76E0
76A0
7EB0
FF18
ENDCHAR
STARTCHAR 3CC3
ENCODING 15555
SWIDTH 1040 0
DWIDTH 13 0
BBX 13 12 0 -2
BITMAP
6380
37E0
33A0
C7A8
6F68
6F58
03C0
33F0
37F0
60C0
C0C0
C0C0
ENDCHAR
STARTCHAR 3CD2
ENCODING 15570
SWIDTH 1040 0
DWIDTH 13 0
BBX 13 12 0 -2
BITMAP
6380
3380
3FF8
C760
6F60
6FB0
1EB8
16B0
37B0
6730
C7F8
DFD8
ENDCHAR
STARTCHAR 3D11
ENCODING 15633
SWIDTH 1040 0
DWIDTH 13 0
BBX 13 12 0 -2
BITMAP
60C0
3FF8
3BB8
DBB0
6FF8
6B60
1B78
1B78
3BF8
6BF0
DBC0
DB80
ENDCHAR
STARTCHAR 3D1E
ENCODING 15646
SWIDTH 1040 0
DWIDTH 13 0
BBX 13 12 0 -2
BITMAP
60F8
37F0
3680
CFD8
6F50
6EF0
0EB8
16B8
36F8
6EF8
CEB8
CEF8
ENDCHAR
STARTCHAR 3D64
ENCODING 15716
SWIDTH 1040 0
DWIDTH 13 0
BBX 13 12 0 -2
BITMAP
6FF8
36B8
3BF8
DFF8
6EE0
6FF0
0F50
0F58
3FF8
63E0
C7F0
DF78
ENDCHAR
STARTCHAR 3D9A
ENCODING 15770
SWIDTH 1040 0
DWIDTH 13 0
BBX 13 12 0 -2
BITMAP
6FF8
3FF8
3FF8
DFF8
6FF8
6FA8
0FB8
0FA8
3FE8
6FF8
DFE8
CFF8
ENDCHAR
STARTCHAR 3DC0
ENCODING 15808
SWIDTH 1040 0
DWIDTH 13 0
BBX 12 12 1 -2
BITMAP
77C0
FDE0
71C0
FDE0
DD00
FFC0
31C0
31C0
FFC0
7FC0
31D0
30F0
ENDCHAR
STARTCHAR 3DD4
ENCODING 15828
SWIDTH 1040 0
DWIDTH 13 0
BBX 13 12 0 -2
BITMAP
3078
37C0
3758
DB68
D3B0
D778
3758
3F58
3B78
6B58
6B78
C758
ENDCHAR
STARTCHAR 3E05
ENCODING 15877
SWIDTH 1040 0
DWIDTH 13 0
BBX 13 12 0 -2
BITMAP
3760
37F8
3770
D740
DBF8
D7E8
37E8
3FE8
3BE8
6BE8
6BF8
C7E0
ENDCHAR
STARTCHAR 3E3F
ENCODING 15935
SWIDTH 1040 0
DWIDTH 13 0
BBX 13 12 0 -2
BITMAP
68C0
6BF8
7EC0
DBF0
D800
1FF8
3BA8
2AA8
EEA0
1BA8
1BA8
1B38
ENDCHAR
STARTCHAR 3E60
ENCODING 15968
SWIDTH 1040 0
DWIDTH 13 0
BBX 13 12 0 -2
BITMAP
1BB0
DBE0
7780
73B0
D6B0
36B0
76B0
56B0
D7F0
3380
3398
E0F8
ENDCHAR
STARTCHAR 3E66
ENCODING 15974
SWIDTH 1040 0
DWIDTH 13 0
BBX 13 12 0 -2
BITMAP
1BF8
DB98
7398
7398
D718
3670
77F8
5718
D718
3718
37F8
E718
ENDCHAR
STARTCHAR 3E68
ENCODING 15976
SWIDTH 1040 0
DWIDTH 13 0
BBX 13 12 0 -2
BITMAP
18C0
D8C0
77F8
76D8
D6D8
37F8
76D8
56D8
D6D8
36D8
37F8
EE18
ENDCHAR
STARTCHAR 3E83
ENCODING 16003
SWIDTH 1040 0
DWIDTH 13 0
BBX 13 12 0 -2
BITMAP
1B60
DFF8
77A0
7760
D7F8
37D8
77F8
5778
D778
37F8
3038
E0F0
ENDCHAR
STARTCHAR 3E94
ENCODING 16020
SWIDTH 1040 0
DWIDTH 13 0
BBX 13 12 0 -2
BITMAP
1FE0
DFD0
77F8
77F0
D670
37F8
7638
5638
D7F8
36F8
37D8
EEB8
ENDCHAR
STARTCHAR 3F57
ENCODING 16215
SWIDTH 1040 0
DWIDTH 13 0
BBX 13 12 0 -2
BITMAP
00C0
FEC0
D6C0
D6C0
FEC0
D6C0
D6A0
D6A0
FEA0
C730
0730
0E18
ENDCHAR
STARTCHAR 3F72
ENCODING 16242
SWIDTH 1040 0
DWIDTH 13 0
BBX 13 12 0 -2
BITMAP
0380
3FF8
D000
7FF8
3700
7700
D7F0
D630
3630
3030
6030
C0E0
ENDCHAR
STARTCHAR 3F75
ENCODING 16245
SWIDTH 1040 0
DWIDTH 13 0
BBX 13 12 0 -2
BITMAP
0380
3FF8
D000
7380
3380
7FF0
D380
D380
3380
3380
6380
DFF8
ENDCHAR
STARTCHAR 3F77
ENCODING 16247
SWIDTH 1040 0
DWIDTH 13 0
BBX 13 12 0 -2
BITMAP
0380
3FF8
D000
7730
3FB8
77F0
DFE0
DBE0
3BE0
3B60
6B78
D738
ENDCHAR
STARTCHAR 3FAE
ENCODING 16302
SWIDTH 1040 0
DWIDTH 13 0
BBX 13 12 0 -2
BITMAP
0700
7FF8
E380
6FF0
6FF0
6FF0
EFF0
EFF0
6FF0
EFF0
EFF0
3FF8
ENDCHAR
STARTCHAR 3FC9
ENCODING 16329
SWIDTH 1040 0
DWIDTH 13 0
BBX 13 12 0 -2
BITMAP
0700
7FF8
EFF0
6FF0
6FF0
7FF8
FFF0
EFF0
6FF0
EFF0
EFF0
1FF8
ENDCHAR
STARTCHAR 3FD7
ENCODING 16343
SWIDTH 1040 0
DWIDTH 13 0
BBX 13 12 0 -2
BITMAP
3FF8
7FF8
EFF8
6EF8
7FF8
6FF8
F6D8
FB58
6B78
EF58
EFF8
3BD8
ENDCHAR
STARTCHAR 4039
ENCODING 16441
SWIDTH 1040 0
DWIDTH 13 0
BBX 13 12 0 -2
BITMAP
F8C0
DFF8
D8D0
FB50
DF50
FFF8
DEE8
DAE8
DBE0
FBA0
DF70
0E38
ENDCHAR
STARTCHAR 4058
ENCODING 16472
SWIDTH 1040 0
DWIDTH 13 0
BBX 13 12 0 -2
BITMAP
FBE0
DBF0
DFB0
FFE0
DFC0
FFF0
DEC0
DEF8
DFF8
FFF8
DED8
0FF8
ENDCHAR
STARTCHAR 4093
ENCODING 16531
SWIDTH 1040 0
DWIDTH 13 0
BBX 13 12 0 -2
BITMAP
63F0
7BF8
D7F8
D7F8
37B8
FFF8
37B8
37B0
77F0
68E0
6BE8
CFB8
ENDCHAR
STARTCHAR 4105
ENCODING 16645
SWIDTH 1040 0
DWIDTH 13 0
BBX 13 12 0 -2
BITMAP
3760
3B60
7FF0
1EC0
FFF8
38E0
7FF0
7FF8
FFF8
3FE0
7770
FF78
ENDCHAR
STARTCHAR 4148
ENCODING 16712
SWIDTH 1040 0
DWIDTH 13 0
BBX 13 12 0 -2
BITMAP
3760
3B60
7FF0
0F80
FFF8
3BE0
7FB0
7FB8
FFF8
3FE0
3F60
F778
ENDCHAR
STARTCHAR 414F
ENCODING 16719
SWIDTH 1040 0
DWIDTH 13 0
BBX 13 12 0 -2
BITMAP
1FF0
F7F8
37F8
FFF0
3778
7BE0
7778
5778
D7F8
D7F8
3768
3078
ENDCHAR
STARTCHAR 4163
ENCODING 16739
SWIDTH 1040 0
DWIDTH 13 0
BBX 13 12 0 -2
BITMAP
1EC0
F7F0
37F0
FFF0
3770
7BF0
77F8
57F0
D7F0
D7E0
37F8
37F8
ENDCHAR
STARTCHAR 41B4
ENCODING 16820
SWIDTH 1040 0
DWIDTH 13 0
BBX 13 12 0 -2
BITMAP
7FF0
FFF8
F7F8
3FE0
7FE0
DFE0
7FF0
7FF0
7FF0
7FF0
7FF8
07F8
ENDCHAR
STARTCHAR 41BF
ENCODING 16831
SWIDTH 1040 0
DWIDTH 13 0
BBX 13 12 0 -2
BITMAP
7FF0
FFF8
F8F8
6BF0
EBF8
7BF8
1BF8
1BF8
FFF8
6BF8
EBF0
EFF8
ENDCHAR
STARTCHAR 41E6
ENCODING 16870
SWIDTH 1040 0
DWIDTH 13 0
BBX 13 12 0 -2
BITMAP
30C0
3F78
6BA0
CF30
7FF0
6730
6F30
6F38
FFF8
1EC0
78F0
F078
ENDCHAR
STARTCHAR 41EE
ENCODING 16878
SWIDTH 1040 0
DWIDTH 13 0
BBX 13 12 0 -2
BITMAP
30C0
3F78
6BA0
CF30
3BE0
3FC0
73C0
63F8
EFF8
60C0
60C0
6FF8
ENDCHAR
STARTCHAR 41F3
ENCODING 16883
SWIDTH 1040 0
DWIDTH 13 0
BBX 13 12 0 -2
BITMAP
30C0
3F78
6BA0
CF30
FFF8
7FF0
7FF0
7FF0
7FF0
07C0
0FD8
7EF8
ENDCHAR
STARTCHAR 4207
ENCODING 16903
SWIDTH 1040 0
DWIDTH 13 0
BBX 13 12 0 -2
BITMAP
30C0
7EF8
DB30
07F0
0700
3FE0
3FE0
3FE0
3FE0
3FE0
FFF8
0700
ENDCHAR
STARTCHAR 420E
ENCODING 16910
SWIDTH 1040 0
DWIDTH 13 0
BBX 13 12 0 -2
BITMAP
30C0
7EF8
DB30
FFF8
37E0
37E0
3FF8
3FF8
FFF8
FFF8
FF78
F778
ENDCHAR
STARTCHAR 4264
ENCODING 16996
SWIDTH 1040 0
DWIDTH 13 0
BBX 13 12 0 -2
BITMAP
30C0
7EF8
DB30
D6A0
7BF8
FEB0
7B50
7B70
FF60
6E70
38D8
EF98
ENDCHAR
STARTCHAR 42C6
ENCODING 17094
SWIDTH 1040 0
DWIDTH 13 0
BBX 13 12 0 -2
BITMAP
37F8
6000
EBF8
3718
6B18
F7F8
3718
FF18
DB00
D700
D700
3600
ENDCHAR
STARTCHAR 42D6
ENCODING 17110
SWIDTH 1040 0
DWIDTH 13 0
BBX 13 12 0 -2
BITMAP
30C0
6FF0
E8D0
37F8
68D0
F7F0
30C0
F8F0
DBF0
D6C0
D7F8
30C0
ENDCHAR
STARTCHAR 42DD
ENCODING 17117
SWIDTH 1040 0
DWIDTH 13 0
BBX 13 12 0 -2
BITMAP
3398
67D8
EB58
3730
6B80
F7F8
37B0
FFB0
DB70
D7E0
D6F0
37B8
ENDCHAR
STARTCHAR 4302
ENCODING 17154
SWIDTH 1040 0
DWIDTH 13 0
BBX 13 12 0 -2
BITMAP
37F0
67F8
EBF8
37F0
6BF8
F6D0
37F8
FFF0
D8F0
D7F8
D6E0
37F8
ENDCHAR
STARTCHAR 432B
ENCODING 17195
SWIDTH 1040 0
DWIDTH 13 0
BBX 13 12 0 -2
BITMAP
37F8
67F8
EBF0
37F0
6BF0
F7F0
37F0
FFF0
DBF0
D7F0
D6E8
37B8
ENDCHAR
STARTCHAR 4343
ENCODING 17219
SWIDTH 1040 0
DWIDTH 13 0
BBX 13 12 0 -2
BITMAP
0FE0
1FE0
7F60
1FC0
3F80
7FF0
7700
77F8
FFF8
FFF8
6730
7FF0
ENDCHAR
STARTCHAR 43EE
ENCODING 17390
SWIDTH 1040 0
DWIDTH 13 0
BBX 13 12 0 -2
BITMAP
7B80
6FF0
6BB8
7BB8
6F78
6F70
7F38
6B30
6B70
6BE0
DF70
DE38
ENDCHAR
STARTCHAR 43F0
ENCODING 17392
SWIDTH 1040 0
DWIDTH 13 0
BBX 13 12 0 -2
BITMAP
7BF0
6BF8
6BD8
7BD8
6BD0
6B70
78C0
68E0
6BE0
6BB8
DFB8
DEF0
ENDCHAR
STARTCHAR 4408
ENCODING 17416
SWIDTH 1040 0
DWIDTH 13 0
BBX 13 12 0 -2
BITMAP
78E0
6FF8
6BF0
7BF8
6BB8
6BF8
7BB8
6BB8
6BF8
6BB8
DBF0
DBF8
ENDCHAR
STARTCHAR 4417
ENCODING 17431
SWIDTH 1040 0
DWIDTH 13 0
BBX 13 12 0 -2
BITMAP
7B80
6FF8
6BB0
7BB0
6FF8
6BF0
7FF0
6F30
6F30
6BF0
DB30
DBF0
ENDCHAR
STARTCHAR 441C
ENCODING 17436
SWIDTH 1040 0
DWIDTH 13 0
BBX 13 12 0 -2
BITMAP
7BF0
6BF0
6BF8
7FF0
6FF0
6FF0
7FF0
6FF0
6FF0
6EF0
DFF8
DF78
ENDCHAR
STARTCHAR 4422
ENCODING 17442
SWIDTH 1040 0
DWIDTH 13 0
BBX 13 12 0 -2
BITMAP
7BF8
6FF8
6FE8
7BE8
6BB8
6B30
7FF8
6FE8
6FE8
6FE8
DBE8
DBB8
ENDCHAR
STARTCHAR 4453
ENCODING 17491
SWIDTH 1040 0
DWIDTH 13 0
BBX 13 12 0 -2
BITMAP
18C0
FFF8
1FC0
18C0
7FF8
7FE8
D8C0
D8B0
7FB0
3FE0
0700
FFF8
ENDCHAR
STARTCHAR 445B
ENCODING 17499
SWIDTH 1040 0
DWIDTH 13 0
BBX 13 12 0 -2
BITMAP
1E70
F7C0
3740
3740
FFF8
3740
FB60
DB60
DB60
DBA8
FE38
DBD8
ENDCHAR
STARTCHAR 4476
ENCODING 17526
SWIDTH 1040 0
DWIDTH 13 0
BBX 13 12 0 -2
BITMAP
30E0
7FF8
6EF0
77F0
6FF8
FFF0
6FF8
6F78
6F78
6FF8
6F38
DF78
ENDCHAR
STARTCHAR 447A
ENCODING 17530
SWIDTH 1040 0
DWIDTH 13 0
BBX 13 12 0 -2
BITMAP
37F8
7FF8
6FF8
77E8
6FF8
FFF8
6FF8
6F68
6F68
6F78
6FF8
DED8
ENDCHAR
STARTCHAR 4491
ENCODING 17553
SWIDTH 1040 0
DWIDTH 13 0
BBX 13 4 0 4
BITMAP
18C0
18C0
18C0
FFF8
ENDCHAR
STARTCHAR 44B3
ENCODING 17587
SWIDTH 1040 0
DWIDTH 13 0
BBX 13 12 0 -2
BITMAP
18C0
FFF8
18C0
7FE0
1EE0
78F8
F038
F038
FFF8
FFF8
7FF0
F778
ENDCHAR
STARTCHAR 44BE
ENCODING 17598
SWIDTH 1040 0
DWIDTH 13 0
BBX 13 12 0 -2
BITMAP
18C0
FFF8
18C0
0700
0F00
FFF8
1FB0
1BB0
7BB0
FBE0
3EF0
FE78
ENDCHAR
STARTCHAR 44D4
ENCODING 17620
SWIDTH 1040 0
DWIDTH 13 0
BBX 13 12 0 -2
BITMAP
18C0
FFF8
18C0
7FF0
0FE0
FFF8
FFE0
FFE0
FFE0
FFF8
0700
0F00
ENDCHAR
STARTCHAR 4508
ENCODING 17672
SWIDTH 1040 0
DWIDTH 13 0
BBX 13 12 0 -2
BITMAP
18C0
FFF8
7FF0
7FF0
FFF8
3FE0
3FE0
3FE0
3FE0
3FE0
3FE0
FFF8
ENDCHAR
STARTCHAR 450D
ENCODING 17677
SWIDTH 1040 0
DWIDTH 13 0
BBX 13 12 0 -2
BITMAP
18C0
FFF8
18C0
7FF0
7FF0
7FF0
7FF0
7FF8
7FF8
3FF8
FF58
DBF8
ENDCHAR
STARTCHAR 4525
ENCODING 17701
SWIDTH 1040 0
DWIDTH 13 0
BBX 13 12 0 -2
BITMAP
FFF8
FFF8
3FE0
7FF0
FFF8
7FF0
3FC0
2FD0
6FD0
6FD0
FFD0
F750
ENDCHAR
STARTCHAR 4543
ENCODING 17731
SWIDTH 1040 0
DWIDTH 13 0
BBX 13 12 0 -2
BITMAP
FFF8
FFF8
7BE0
FFF8
FBF0
FBF0
EBE0
EBF0
EBF0
FFF8
E3B0
E7F8
ENDCHAR
STARTCHAR 459D
ENCODING 17821
SWIDTH 1040 0
DWIDTH 13 0
BBX 12 12 0 -2
BITMAP
03E0
7F00
0700
7FF0
6730
6730
7FF0
6740
6740
0760
0FD0
F830
ENDCHAR
STARTCHAR 45B8
ENCODING 17848
SWIDTH 1040 0
DWIDTH 13 0
BBX 13 12 0 -2
BITMAP
FEB0
FFF8
33F0
3EF0
F3E0
77F8
7730
7730
7FF0
7FF0
07F0
FFF8
ENDCHAR
STARTCHAR 45E5
ENCODING 17893
SWIDTH 1040 0
DWIDTH 13 0
BBX 13 12 0 -2
BITMAP
6758
6F58
FEF8
EFB8
EF60
FFA0
EEB8
F6A0
76A0
6EA0
7EE0
DFB8
ENDCHAR
STARTCHAR 45EA
ENCODING 17898
SWIDTH 1040 0
DWIDTH 13 0
BBX 13 12 0 -2
BITMAP
0700
7FF8
6EC0
7FF8
6FC0
D750
7FE8
7768
3760
3FE0
0730
FFE8
ENDCHAR
STARTCHAR 460F
ENCODING 17935
SWIDTH 1040 0
DWIDTH 13 0
BBX 13 12 0 -2
BITMAP
18F8
30F8
FF58
DB58
DB50
DB58
DB58
DB58
DB58
DF58
E0D8
00C0
ENDCHAR
STARTCHAR 4641
ENCODING 17985
SWIDTH 1040 0
DWIDTH 13 0
BBX 13 12 0 -2
BITMAP
33A0
33F0
FBD0
18F0
33F8
3778
7BB0
53B0
D7F0
37F8
33F8
37B8
ENDCHAR
STARTCHAR 4665
ENCODING 18021
SWIDTH 1040 0
DWIDTH 13 0
BBX 13 12 0 -2
BITMAP
6FF0
6FF0
FFF8
1FF8
3768
37F0
6FF0
7ED8
F6D8
6FF8
60D8
60D0
ENDCHAR
STARTCHAR 46A1
ENCODING 18081
SWIDTH 1040 0
DWIDTH 13 0
BBX 13 12 0 -2
BITMAP
7BF0
6BF8
D7F8
FFF8
D758
FFF8
D6E0
D6E0
FEE0
CFB8
CFB8
DEF8
ENDCHAR
STARTCHAR 46AF
ENCODING 18095
SWIDTH 1040 0
DWIDTH 13 0
BBX 12 12 0 -2
BITMAP
7BB0
03B0
FEB0
7BB0
03B0
7BB0
03B0
7BB0
7BB0
6830
7830
68F0
ENDCHAR
STARTCHAR 470C
ENCODING 18188
SWIDTH 1040 0
DWIDTH 13 0
BBX 13 12 0 -2
BITMAP
37B8
77B0
FFE8
77B8
6030
FFF8
7878
68B8
EFB8
FFF8
FEF8
6FB0
ENDCHAR
STARTCHAR 4764
ENCODING 18276
SWIDTH 1040 0
DWIDTH 13 0
BBX 13 12 0 -2
BITMAP
38C0
F7F8
6BA0
77B0
EBF8
3BF8
EBF0
EBF0
3BF0
EBD0
1BD8
73D8
ENDCHAR
STARTCHAR 47FD
ENCODING 18429
SWIDTH 1040 0
DWIDTH 13 0
BBX 13 12 0 -2
BITMAP
F8C0
DFF8
DBB0
DBF0
FFF8
3750
DBD0
D3D0
D7D0
D7D0
DBD8
EF38
ENDCHAR
STARTCHAR 4816
ENCODING 18454
SWIDTH 1040 0
DWIDTH 13 0
BBX 13 12 0 -2
BITMAP
F8E0
DFF8
D8E8
DBF0
FBF0
37D8
DBD8
DBD8
D7F8
D738
DB38
E7F8
ENDCHAR
STARTCHAR 4844
ENCODING 18500
SWIDTH 1040 0
DWIDTH 13 0
BBX 13 12 0 -2
BITMAP
33E0
FEA0
33A0
FEA0
D6A0
FEA0
D6A0
D6A0
FEA0
33A8
FEA8
3738
ENDCHAR
STARTCHAR 484E
ENCODING 18510
SWIDTH 1040 0
DWIDTH 13 0
BBX 13 12 0 -2
BITMAP
37F8
FFF8
33F0
FFF8
D7B8
FFF0
D700
D700
FF00
3700
FF00
3700
ENDCHAR
STARTCHAR 48B5
ENCODING 18613
SWIDTH 1040 0
DWIDTH 13 0
BBX 13 12 0 -2
BITMAP
3EF8
7ED8
00D8
00D0
FFF0
30D8
30D8
3158
7758
6F70
7FC0
F7C0
ENDCHAR
STARTCHAR 49B0
ENCODING 18864
SWIDTH 1040 0
DWIDTH 13 0
BBX 13 12 0 -2
BITMAP
FEF8
FEF8
CE98
FEF8
DF98
DFD8
DFE8
DFE8
DFE8
D768
DFE8
C7F8
ENDCHAR
STARTCHAR 49E7
ENCODING 18919
SWIDTH 1040 0
DWIDTH 13 0
BBX 13 12 0 -2
BITMAP
FB70
DFF0
DBF0
D7F0
F7F8
DFD0
DFE0
DFF8
DFF8
F7F0
CF78
C7D8
ENDCHAR
STARTCHAR 49FA
ENCODING 18938
SWIDTH 1040 0
DWIDTH 13 0
BBX 13 12 0 -2
BITMAP
30D8
33B0
FEF8
77B0
63B0
7BF8
EBB0
EBB8
EBF8
EBB0
FBB0
7BF8
ENDCHAR
STARTCHAR 4A04
ENCODING 18948
SWIDTH 1040 0
DWIDTH 13 0
BBX 13 12 0 -2
BITMAP
30D8
7BB0
FEF8
7BB0
FBB0
FEF8
FEB0
FEB8
FEF8
DEB0
FEB0
FEF8
ENDCHAR
STARTCHAR 4A29
ENCODING 18985
SWIDTH 1040 0
DWIDTH 13 0
BBX 13 12 0 -2
BITMAP
7FF0
FFF8
FFF8
FFF8
FBF8
78E0
7BF8
7BF8
FFF8
FBF8
FBF0
D0E0
ENDCHAR
STARTCHAR 4ABC
ENCODING 19132
SWIDTH 1040 0
DWIDTH 13 0
BBX 13 12 0 -2
BITMAP
33F8
D660
D6F8
D698
FEF8
3398
33F8
5798
D698
D6F8
FED0
FE98
ENDCHAR
STARTCHAR 4B3B
ENCODING 19259
SWIDTH 1040 0
DWIDTH 13 0
BBX 13 12 0 -2
BITMAP
30E0
6BF8
D8C0
FBF0
DBC0
FFF8
DBF8
DBF8
F8F8
F8F0
CEF8
FFB8
ENDCHAR
STARTCHAR 4BC2
ENCODING 19394
SWIDTH 1040 0
DWIDTH 13 0
BBX 13 12 0 -2
BITMAP
3FE0
3FC0
3FE0
3FE0
FFF8
FEF0
FEF0
FEF8
FFF8
EF58
FFF8
F778
ENDCHAR
STARTCHAR 4BCA
ENCODING 19402
SWIDTH 1040 0
DWIDTH 13 0
BBX 13 12 0 -2
BITMAP
7EF8
6EF8
7ED8
77F8
FF78
EF78
7FF8
6FD8
6FD8
7E38
6E38
6E78
ENDCHAR
STARTCHAR 4BD2
ENCODING 19410
SWIDTH 1040 0
DWIDTH 13 0
BBX 13 12 0 -2
BITMAP
7EF8
6EF8
7F80
7740
FEF8
EFB8
7FB8
6EB8
6EB8
7EB8
6EB8
6EB8
ENDCHAR
STARTCHAR 4BE8
ENCODING 19432
SWIDTH 1040 0
DWIDTH 13 0
BBX 13 12 0 -2
BITMAP
FFF8
FFF8
3FE0
38E0
FFF8
EFD8
FFF8
EFD0
6FD0
FFF8
3EE0
F8F8
ENDCHAR
STARTCHAR 4C17
ENCODING 19479
SWIDTH 1040 0
DWIDTH 13 0
BBX 13 12 0 -2
BITMAP
DEE8
DEE8
D8D8
DEE8
CF98
DB58
FFE8
D768
D768
DFE8
DFE8
C3F8
ENDCHAR
STARTCHAR 4C20
ENCODING 19488
SWIDTH 1040 0
DWIDTH 13 0
BBX 13 12 0 -2
BITMAP
3860
7FF8
FFA8
FFF8
FFA8
FFA8
7EF8
7EE0
7E60
7F60
FF68
EFF8
ENDCHAR
STARTCHAR 4CC4
ENCODING 19652
SWIDTH 1040 0
DWIDTH 13 0
BBX 13 12 0 -2
BITMAP
38C0
3BF0
FBB0
FBF0
FEB0
FEF8
FB80
FBF8
FBF8
FED8
FF68
F770
ENDCHAR
STARTCHAR 4CD1
ENCODING 19665
SWIDTH 1040 0
DWIDTH 13 0
BBX 13 12 0 -2
BITMAP
30C0
FEF0
33B0
7EF0
6EB0
FEF8
F680
F6F8
7EF8
7ED8
6768
6F70
ENDCHAR
STARTCHAR 4D07
ENCODING 19719
SWIDTH 1040 0
DWIDTH 13 0
BBX 13 12 0 -2
BITMAP
7F60
7F70
FFF8
FFF8
DFF8
7EF8
7FF8
6BF8
EBF8
FFF8
3FD8
3E38
ENDCHAR
STARTCHAR 4D77
ENCODING 19831
SWIDTH 1040 0
DWIDTH 13 0
BBX 13 12 0 -2
BITMAP
6FF0
7FF8
6FF8
6FF0
FFF8
6EF8
6FF8
6EF8
7EF8
6FF8
7BD8
F3F8
ENDCHAR
STARTCHAR 4E00
ENCODING 19968
SWIDTH 1040 0
DWIDTH 13 0
BBX 11 1 1 4
BITMAP
FFE0
ENDCHAR
STARTCHAR 4E01
ENCODING 19969
SWIDTH 1040 0
DWIDTH 13 0
BBX 13 11 0 -2
BITMAP
FFF8
0700
0700
0700
0700
0700
0700
0700
0700
0700
1F00
ENDCHAR
STARTCHAR 4E02
ENCODING 19970
SWIDTH 1040 0
DWIDTH 13 0
BBX 13 12 0 -2
BITMAP
FFF8
0700
0700
0E00
0FE0
1860
0060
0060
0060
0060
00C0
0780
ENDCHAR
STARTCHAR 4E03
ENCODING 19971
SWIDTH 1040 0
DWIDTH 13 0
BBX 13 12 0 -2
BITMAP
1800
1800
1838
1BE0
1F00
F800
1800
1800
1800
1830
1830
0FF0
ENDCHAR
STARTCHAR 4E07
ENCODING 19975
SWIDTH 1040 0
DWIDTH 13 0
BBX 13 12 0 -2
BITMAP
FFF8
0E00
0E00
0FE0
0E60
0E60
1860
1860
1860
3060
6060
C3C0
ENDCHAR
STARTCHAR 4E08
ENCODING 19976
SWIDTH 1040 0
DWIDTH 13 0
BBX 13 12 0 -2
BITMAP
0700
0700
FFF8
0700
3700
1B00
0F00
0F00
0F00
0E80
38E0
E038
ENDCHAR
STARTCHAR 4E09
ENCODING 19977
SWIDTH 1040 0
DWIDTH 13 0
BBX 13 10 0 -1
BITMAP
7FF0
0000
0000
0000
3FE0
0000
0000
0000
0000
FFF8
ENDCHAR
STARTCHAR 4E0A
ENCODING 19978
SWIDTH 1040 0
DWIDTH 13 0
BBX 13 12 0 -2
BITMAP
0700
0700
0700
0700
07F0
0700
0700
0700
0700
0700
0700
FFF8
ENDCHAR
STARTCHAR 4E0B
ENCODING 19979
SWIDTH 1040 0
DWIDTH 13 0
BBX 13 12 0 -2
BITMAP
FFF8
0700
0700
0780
0740
0760
0760
0760
0700
0700
0700
0700
ENDCHAR
STARTCHAR 4E0D
ENCODING 19981
SWIDTH 1040 0
DWIDTH 13 0
BBX 13 12 0 -2
BITMAP
FFF8
0380
0700
07C0
0F60
1B30
3718
2718
E718
0700
0700
0700
ENDCHAR
STARTCHAR 4E0E
ENCODING 19982
SWIDTH 1040 0
DWIDTH 13 0
BBX 13 12 0 -2
BITMAP
3000
3FC0
3000
3FC0
00C0
FFF8
00C0
00C0
00C0
00C0
0380
1F00
ENDCHAR
STARTCHAR 4E0F
ENCODING 19983
SWIDTH 1040 0
DWIDTH 13 0
BBX 13 12 0 -2
BITMAP
FFF8
0700
67F0
6730
6730
7FF0
6030
6030
0030
0030
0060
03C0
ENDCHAR
STARTCHAR 4E10
ENCODING 19984
SWIDTH 1040 0
DWIDTH 13 0
BBX 13 12 0 -2
BITMAP
FFF8
0700
67F0
6700
6700
7FF0
6030
6030
0030
0030
0060
03C0
ENDCHAR
STARTCHAR 4E11
ENCODING 19985
SWIDTH 1040 0
DWIDTH 13 0
BBX 13 12 0 -2
BITMAP
7FC0
0EC0
0EC0
0EC0
18C0
FFF8
18C0
18C0
18C0
30C0
30C0
FFF8
ENDCHAR
STARTCHAR 4E12
ENCODING 19986
SWIDTH 1040 0
DWIDTH 13 0
BBX 13 12 0 -2
BITMAP
7FF0
0730
3730
1B30
0E30
0F30
1B30
1320
3060
E3C0
0000
FFF8
ENDCHAR
STARTCHAR 4E14
ENCODING 19988
SWIDTH 1040 0
DWIDTH 13 0
BBX 13 12 0 -2
BITMAP
3FE0
3060
3060
3FE0
3060
3060
3FE0
3060
3060
3060
3060
FFF8
ENDCHAR
STARTCHAR 4E15
ENCODING 19989
SWIDTH 1040 0
DWIDTH 13 0
BBX 13 12 0 -2
BITMAP
7FF0
0380
0700
0F80
1B40
3760
E738
E738
0700
0700
0000
FFF8
ENDCHAR
STARTCHAR 4E16
ENCODING 19990
SWIDTH 1040 0
DWIDTH 13 0
BBX 13 12 0 -2
BITMAP
3760
3760
3760
FFF8
3760
3760
37E0
3760
3760
3000
3FF0
3000
ENDCHAR
STARTCHAR 4E17
ENCODING 19991
SWIDTH 1040 0
DWIDTH 13 0
BBX 13 12 0 -2
BITMAP
3760
3760
3760
3760
FFF8
3760
3760
3760
3760
3760
3FE0
3060
ENDCHAR
STARTCHAR 4E18
ENCODING 19992
SWIDTH 1040 0
DWIDTH 13 0
BBX 13 12 0 -2
BITMAP
00E0
3F80
3000
3000
3FF0
30C0
30C0
30C0
30C0
30C0
30C0
FFF8
ENDCHAR
STARTCHAR 4E19
ENCODING 19993
SWIDTH 1040 0
DWIDTH 13 0
BBX 13 12 0 -2
BITMAP
FFF8
0700
0700
7FF0
6730
6EB0
68D0
78D0
7070
6030
6030
60F0
ENDCHAR
STARTCHAR 4E1E
ENCODING 19998
SWIDTH 1040 0
DWIDTH 13 0
BBX 13 12 0 -2
BITMAP
3FE0
00C0
0780
FB30
1BB0
1BA0
3740
2760
6760
C738
1F00
7FF0
ENDCHAR
STARTCHAR 4E21
ENCODING 20001
SWIDTH 1040 0
DWIDTH 13 0
BBX 13 12 0 -2
BITMAP
FFF8
0700
7FF0
6730
6B50
6B50
6FD0
68D0
68D0
6030
6030
60F0
ENDCHAR
STARTCHAR 4E26
ENCODING 20006
SWIDTH 1040 0
DWIDTH 13 0
BBX 13 12 0 -2
BITMAP
3060
18C0
7FF0
18C0
18C0
D8D8
68D8
68D0
68D0
18C0
18C0
FFF8
ENDCHAR
STARTCHAR 4E28
ENCODING 20008
SWIDTH 1040 0
DWIDTH 13 0
BBX 3 10 5 -1
BITMAP
E0
E0
E0
E0
E0
E0
E0
E0
E0
E0
ENDCHAR
STARTCHAR 4E29
ENCODING 20009
SWIDTH 1040 0
DWIDTH 13 0
BBX 9 12 2 -2
BITMAP
0180
6180
6180
6180
6180
6180
6F80
6D80
7D80
E180
0180
0180
ENDCHAR
STARTCHAR 4E2A
ENCODING 20010
SWIDTH 1040 0
DWIDTH 13 0
BBX 13 12 0 -2
BITMAP
0700
0700
0E80
18C0
3760
E738
0700
0700
0700
0700
0700
0700
ENDCHAR
STARTCHAR 4E2B
ENCODING 20011
SWIDTH 1040 0
DWIDTH 13 0
BBX 9 12 2 -2
BITMAP
C180
6180
3B00
3A00
1C00
1C00
1C00
1C00
1C00
1C00
1C00
1C00
ENDCHAR
STARTCHAR 4E2C
ENCODING 20012
SWIDTH 1040 0
DWIDTH 13 0
BBX 6 12 4 -2
BITMAP
0C
0C
EC
74
74
3C
74
64
EC
EC
0C
0C
ENDCHAR
STARTCHAR 4E2D
ENCODING 20013
SWIDTH 1040 0
DWIDTH 13 0
BBX 13 12 0 -2
BITMAP
0700
0700
FFF8
C718
C718
C718
FFF8
C718
C718
0700
0700
0700
ENDCHAR
STARTCHAR 4E2E
ENCODING 20014
SWIDTH 1040 0
DWIDTH 13 0
BBX 13 12 0 -2
BITMAP
FFC0
00C0
18C0
18C0
FFC0
18C0
18C0
18A0
FFA0
1868
1838
1818
ENDCHAR
STARTCHAR 4E2F
ENCODING 20015
SWIDTH 1040 0
DWIDTH 13 0
BBX 12 12 1 -2
BITMAP
0EE0
0F80
7E00
0EE0
1F80
F600
0E70
0E40
0FC0
FE00
0E00
0E00
ENDCHAR
STARTCHAR 4E30
ENCODING 20016
SWIDTH 1040 0
DWIDTH 13 0
BBX 13 12 0 -2
BITMAP
0700
0700
FFF8
0700
0700
7FF0
0700
0700
0700
FFF8
0700
0700
ENDCHAR
STARTCHAR 4E31
ENCODING 20017
SWIDTH 1040 0
DWIDTH 13 0
BBX 13 12 0 -2
BITMAP
18C0
D8D8
D8D8
D8D8
D8D8
D8D8
F8F8
D8D8
D8D8
18C0
30C0
E0C0
ENDCHAR
STARTCHAR 4E32
ENCODING 20018
SWIDTH 1040 0
DWIDTH 13 0
BBX 11 12 1 -2
BITMAP
0E00
7FC0
6EC0
7FC0
0E00
FFE0
CE60
CE60
CE60
FFE0
CE60
0E00
ENDCHAR
STARTCHAR 4E36
ENCODING 20022
SWIDTH 1040 0
DWIDTH 13 0
BBX 6 6 3 2
BITMAP
F0
38
1C
1C
1C
1C
ENDCHAR
STARTCHAR 4E38
ENCODING 20024
SWIDTH 1040 0
DWIDTH 13 0
BBX 13 12 0 -2
BITMAP
0E00
0E00
0E00
7FE0
0E60
3660
1E60
1E60
0E60
1B68
3768
E038
ENDCHAR
STARTCHAR 4E39
ENCODING 20025
SWIDTH 1040 0
DWIDTH 13 0
BBX 13 12 0 -2
BITMAP
3FE0
3060
3660
3760
3760
FFF8
3060
3060
3060
6060
6060
C3E0
ENDCHAR
STARTCHAR 4E3B
ENCODING 20027
SWIDTH 1040 0
DWIDTH 13 0
BBX 13 12 0 -2
BITMAP
0E00
0700
FFF8
0700
0700
0700
3FE0
3F00
0700
0700
0700
FFF8
ENDCHAR
STARTCHAR 4E3C
ENCODING 20028
SWIDTH 1040 0
DWIDTH 13 0
BBX 13 12 0 -2
BITMAP
3060
3060
FFF8
3060
3660
3760
3760
3778
FFF8
3060
6060
C060
ENDCHAR
STARTCHAR 4E3F
ENCODING 20031
SWIDTH 1040 0
DWIDTH 13 0
BBX 8 12 2 -2
BITMAP
03
03
03
03
03
03
0E
0E
0E
1C
38
E0
ENDCHAR
STARTCHAR 4E40
ENCODING 20032
SWIDTH 1040 0
DWIDTH 13 0
BBX 12 11 1 -2
BITMAP
3000
3000
6C00
DC00
0E00
0E00
0F00
0700
0180
00C0
0070
ENDCHAR
STARTCHAR 4E42
ENCODING 20034
SWIDTH 1040 0
DWIDTH 13 0
BBX 13 12 0 -2
BITMAP
3060
3060
3060
18C0
18C0
0E80
0700
0780
0780
0EC0
3860
E038
ENDCHAR
STARTCHAR 4E43
ENCODING 20035
SWIDTH 1040 0
DWIDTH 13 0
BBX 13 12 0 -2
BITMAP
7FC0
18C0
18C0
18C0
18F8
1818
3018
3018
3018
3018
6030
C0E0
ENDCHAR
STARTCHAR 4E45
ENCODING 20037
SWIDTH 1040 0
DWIDTH 13 0
BBX 13 12 0 -2
BITMAP
0E00
0FC0
1EC0
18C0
3380
6380
0780
06C0
0EC0
18C0
3060
E038
ENDCHAR
STARTCHAR 4E47
ENCODING 20039
SWIDTH 1040 0
DWIDTH 13 0
BBX 13 12 0 -2
BITMAP
03C0
7F00
0E00
0E00
0E00
FFF8
0E00
0E00
0E00
0E00
0E18
07F8
ENDCHAR
STARTCHAR 4E48
ENCODING 20040
SWIDTH 1040 0
DWIDTH 13 0
BBX 12 12 0 -2
BITMAP
1800
1800
3380
3380
6700
C700
0EC0
0EE0
0E60
18E0
1FB0
7030
ENDCHAR
STARTCHAR 4E4B
ENCODING 20043
SWIDTH 1040 0
DWIDTH 13 0
BBX 13 12 0 -2
BITMAP
0700
0700
7FF0
0030
0060
00C0
0380
6300
6700
6E00
7E00
C7F8
ENDCHAR
STARTCHAR 4E4D
ENCODING 20045
SWIDTH 1040 0
DWIDTH 13 0
BBX 13 12 0 -2
BITMAP
3000
3000
3FF8
6700
C700
07F0
0700
07F0
07F0
0700
0700
0700
ENDCHAR
STARTCHAR 4E4E
ENCODING 20046
SWIDTH 1040 0
DWIDTH 13 0
BBX 13 12 0 -2
BITMAP
03E0
7F00
6760
3760
3740
FFF8
0700
0700
0700
0700
0700
1F00
ENDCHAR
STARTCHAR 4E4F
ENCODING 20047
SWIDTH 1040 0
DWIDTH 13 0
BBX 13 12 0 -2
BITMAP
00F0
7F80
0700
0700
3FE0
0060
00C0
6080
6380
6F00
7800
CFF8
ENDCHAR
STARTCHAR 4E51
ENCODING 20049
SWIDTH 1040 0
DWIDTH 13 0
BBX 13 12 0 -2
BITMAP
0060
07C0
7F00
0730
1BA0
37C0
E780
EB40
1B40
3760
E738
0700
ENDCHAR
STARTCHAR 4E55
ENCODING 20053
SWIDTH 1040 0
DWIDTH 13 0
BBX 13 12 0 -2
BITMAP
00F0
7F80
6380
7FF8
6380
7FF8
6380
63F8
6FF8
6B98
DBB0
C380
ENDCHAR
STARTCHAR 4E56
ENCODING 20054
SWIDTH 1040 0
DWIDTH 13 0
BBX 13 12 0 -2
BITMAP
03E0
3F00
0700
FFF8
0700
1B58
FB70
FB40
1B40
3B58
EB78
0700
ENDCHAR
STARTCHAR 4E57
ENCODING 20055
SWIDTH 1040 0
DWIDTH 13 0
BBX 13 12 0 -2
BITMAP
03E0
3F00
FFF8
3760
FFF8
3760
FFF8
FF80
0F80
1B40
3760
E738
ENDCHAR
STARTCHAR 4E58
ENCODING 20056
SWIDTH 1040 0
DWIDTH 13 0
BBX 13 12 0 -2
BITMAP
03E0
3F00
FFF8
1B58
FB70
1B40
3B58
2B58
EB78
0F80
3B60
E738
ENDCHAR
STARTCHAR 4E59
ENCODING 20057
SWIDTH 1040 0
DWIDTH 13 0
BBX 13 12 0 -2
BITMAP
7FE0
0060
03C0
0780
0E00
1800
3000
2018
6018
C018
6018
3FF0
ENDCHAR
STARTCHAR 4E5A
ENCODING 20058
SWIDTH 1040 0
DWIDTH 13 0
BBX 10 12 2 -2
BITMAP
C000
C000
C000
C000
C000
C000
C000
C000
C000
C0C0
C0C0
7F80
ENDCHAR
STARTCHAR 4E5D
ENCODING 20061
SWIDTH 1040 0
DWIDTH 13 0
BBX 13 12 0 -2
BITMAP
0E00
0E00
0E00
FFC0
0EC0
18C0
18C0
18C0
18C0
30D8
60D8
C078
ENDCHAR
STARTCHAR 4E5E
ENCODING 20062
SWIDTH 1040 0
DWIDTH 13 0
BBX 13 12 0 -2
BITMAP
1800
1800
3FF8
6000
DFC0
0380
0F00
0800
1800
3030
6030
3FF0
ENDCHAR
STARTCHAR 4E5F
ENCODING 20063
SWIDTH 1040 0
DWIDTH 13 0
BBX 13 12 0 -2
BITMAP
0700
3700
3770
37D0
3F30
F730
3730
3730
3770
3018
3018
1FF8
ENDCHAR
STARTCHAR 4E62
ENCODING 20066
SWIDTH 1040 0
DWIDTH 13 0
BBX 13 12 0 -2
BITMAP
3380
3380
D680
D680
D680
D680
D680
D680
FE80
CE98
0398
00F8
ENDCHAR
STARTCHAR 4E69
ENCODING 20073
SWIDTH 1040 0
DWIDTH 13 0
BBX 13 12 0 -2
BITMAP
30C0
30C0
3F40
30C0
30C0
FF40
C740
C740
C740
C758
FF58
C778
ENDCHAR
STARTCHAR 4E71
ENCODING 20081
SWIDTH 1040 0
DWIDTH 13 0
BBX 13 12 0 -2
BITMAP
0F40
78C0
18C0
18C0
FFC0
18C0
7F40
6740
6740
6758
7F58
6778
ENDCHAR
STARTCHAR 4E73
ENCODING 20083
SWIDTH 1040 0
DWIDTH 13 0
BBX 13 12 0 -2
BITMAP
1F40
F740
D6C0
68C0
FF40
0EC0
1FC0
18C0
F8C0
18D8
18D8
7878
ENDCHAR
STARTCHAR 4E7E
ENCODING 20094
SWIDTH 1040 0
DWIDTH 13 0
BBX 13 12 0 -2
BITMAP
3380
FE80
33F8
FF00
CEF0
FE60
CEC0
CE80
FE80
3718
FF18
33F8
ENDCHAR
STARTCHAR 4E80
ENCODING 20096
SWIDTH 1040 0
DWIDTH 13 0
BBX 13 12 0 -2
BITMAP
1F80
3FE0
F760
3FE0
3760
7FF0
6730
6730
7FF0
6730
7FF8
03F8
ENDCHAR
STARTCHAR 4E82
ENCODING 20098
SWIDTH 1040 0
DWIDTH 13 0
BBX 13 12 0 -2
BITMAP
1F40
F6C0
D740
FF40
6EC0
FF40
D740
D740
FF40
D758
DB58
EF78
ENDCHAR
STARTCHAR 4E85
ENCODING 20101
SWIDTH 1040 0
DWIDTH 13 0
BBX 5 12 3 -2
BITMAP
38
38
38
38
38
38
38
38
38
38
38
F8
ENDCHAR
STARTCHAR 4E86
ENCODING 20102
SWIDTH 1040 0
DWIDTH 13 0
BBX 11 12 1 -2
BITMAP
FFE0
00C0
0180
0F00
0E00
0E00
0E00
0E00
0E00
0E00
0E00
3E00
ENDCHAR
STARTCHAR 4E88
ENCODING 20104
SWIDTH 1040 0
DWIDTH 13 0
BBX 13 12 0 -2
BITMAP
3FE0
1860
0EC0
0780
FFF8
0718
0730
0730
0700
0700
0700
1F00
ENDCHAR
STARTCHAR 4E89
ENCODING 20105
SWIDTH 1040 0
DWIDTH 13 0
BBX 13 12 0 -2
BITMAP
1800
3FC0
6380
FFF0
0730
FFF8
0730
0730
7FF0
0700
0700
1F00
ENDCHAR
STARTCHAR 4E8A
ENCODING 20106
SWIDTH 1040 0
DWIDTH 13 0
BBX 13 12 0 -2
BITMAP
0700
7FF0
3760
1B40
7FF0
0730
FFF8
FF30
0730
7FF0
0700
1F00
ENDCHAR
STARTCHAR 4E8B
ENCODING 20107
SWIDTH 1040 0
DWIDTH 13 0
BBX 13 12 0 -2
BITMAP
0700
FFF8
3FE0
3760
7FF0
0730
FFF8
FF30
0730
7FF0
0700
1F00
ENDCHAR
STARTCHAR 4E8C
ENCODING 20108
SWIDTH 1040 0
DWIDTH 13 0
BBX 13 10 0 -1
BITMAP
7FF0
0000
0000
0000
0000
0000
0000
0000
0000
FFF8
ENDCHAR
STARTCHAR 4E8D
ENCODING 20109
SWIDTH 1040 0
DWIDTH 13 0
BBX 13 11 0 -2
BITMAP
7FF0
0000
0000
FFF8
0700
0700
0700
0700
0700
0700
1F00
ENDCHAR
STARTCHAR 4E8E
ENCODING 20110
SWIDTH 1040 0
DWIDTH 13 0
BBX 13 12 0 -2
BITMAP
7FF0
0700
0700
0700
FFF8
0700
0700
0700
0700
0700
0700
1F00
ENDCHAR
STARTCHAR 4E91
ENCODING 20113
SWIDTH 1040 0
DWIDTH 13 0
BBX 13 11 0 -2
BITMAP
3FE0
0000
0000
FFF8
0E00
0EC0
0EE0
0E60
1860
37D0
7E30
ENDCHAR
STARTCHAR 4E92
ENCODING 20114
SWIDTH 1040 0
DWIDTH 13 0
BBX 13 12 0 -2
BITMAP
7FF0
1800
1800
1FE0
1860
3060
3060
3060
3FE0
00C0
00C0
FFF8
ENDCHAR
STARTCHAR 4E94
ENCODING 20116
SWIDTH 1040 0
DWIDTH 13 0
BBX 13 12 0 -2
BITMAP
7FF0
0E00
0E00
0E00
1800
7FE0
1860
1860
1860
3060
3060
FFF8
ENDCHAR
STARTCHAR 4E95
ENCODING 20117
SWIDTH 1040 0
DWIDTH 13 0
BBX 13 12 0 -2
BITMAP
18C0
18C0
7FF0
18C0
18C0
18C0
FFF8
F8C0
18C0
30C0
30C0
60C0
ENDCHAR
STARTCHAR 4E98
ENCODING 20120
SWIDTH 1040 0
DWIDTH 13 0
BBX 13 12 0 -2
BITMAP
7FF0
0000
3FE0
3060
3060
3FE0
3060
3060
3FE0
3060
0000
FFF8
ENDCHAR
STARTCHAR 4E99
ENCODING 20121
SWIDTH 1040 0
DWIDTH 13 0
BBX 13 12 0 -2
BITMAP
7FF0
1800
1800
1FE0
3060
3760
33A0
2FE0
6EC0
0740
00C0
FFF8
ENDCHAR
STARTCHAR 4E9B
ENCODING 20123
SWIDTH 1040 0
DWIDTH 13 0
BBX 13 12 0 -2
BITMAP
1B98
6BB0
6FE0
6B98
6B98
7F78
E000
FFF0
7FF0
0000
0000
FFF8
ENDCHAR
STARTCHAR 4E9C
ENCODING 20124
SWIDTH 1040 0
DWIDTH 13 0
BBX 13 12 0 -2
BITMAP
7FF0
0E80
0E80
7FF0
6EB0
6EB0
7FF0
6EB0
6EB0
0E80
0E80
FFF8
ENDCHAR
STARTCHAR 4E9D
ENCODING 20125
SWIDTH 1040 0
DWIDTH 13 0
BBX 13 12 0 -2
BITMAP
0E00
18C0
3FA0
30C0
6EB0
FBE8
0718
0720
3FE0
0000
0000
FFF8
ENDCHAR
STARTCHAR 4E9E
ENCODING 20126
SWIDTH 1040 0
DWIDTH 13 0
BBX 13 12 0 -2
BITMAP
FFF8
18C0
18C0
F8F8
C018
C018
F8F8
D8D8
D8D8
18C0
18C0
FFF8
ENDCHAR
STARTCHAR 4E9F
ENCODING 20127
SWIDTH 1040 0
DWIDTH 13 0
BBX 13 12 0 -2
BITMAP
7FE0
0700
1E00
0EF8
FB58
DB50
DB60
DB50
FBD0
C718
1E00
FFF8
ENDCHAR
STARTCHAR 4EA0
ENCODING 20128
SWIDTH 1040 0
DWIDTH 13 0
BBX 13 3 0 4
BITMAP
0700
0700
FFF8
ENDCHAR
STARTCHAR 4EA1
ENCODING 20129
SWIDTH 1040 0
DWIDTH 13 0
BBX 13 12 0 -2
BITMAP
0700
0700
FFF8
3000
3000
3000
3000
3000
3000
3000
3000
1FF0
ENDCHAR
STARTCHAR 4EA2
ENCODING 20130
SWIDTH 1040 0
DWIDTH 13 0
BBX 13 12 0 -2
BITMAP
0700
0700
FFF8
0000
1FC0
18C0
18C0
18C0
18C0
18D8
30D8
E078
ENDCHAR
STARTCHAR 4EA4
ENCODING 20132
SWIDTH 1040 0
DWIDTH 13 0
BBX 13 12 0 -2
BITMAP
0700
0700
FFF8
18C0
30E0
E8D8
0E80
0F00
0700
0E80
18E0
F038
ENDCHAR
STARTCHAR 4EA5
ENCODING 20133
SWIDTH 1040 0
DWIDTH 13 0
BBX 13 12 0 -2
BITMAP
0700
0700
FFF8
0EC0
7B80
3760
1EC0
1880
3B80
E740
1E60
F038
ENDCHAR
STARTCHAR 4EA6
ENCODING 20134
SWIDTH 1040 0
DWIDTH 13 0
BBX 13 12 0 -2
BITMAP
0700
0700
FFF8
18C0
18C0
68D0
68D8
48D8
D8D8
30C0
30C0
67C0
ENDCHAR
STARTCHAR 4EA8
ENCODING 20136
SWIDTH 1040 0
DWIDTH 13 0
BBX 13 12 0 -2
BITMAP
0700
FFF8
3FE0
3060
3FE0
0000
7FF0
7F80
0380
0700
0700
1F00
ENDCHAR
STARTCHAR 4EAB
ENCODING 20139
SWIDTH 1040 0
DWIDTH 13 0
BBX 13 12 0 -2
BITMAP
0700
FFF8
3FE0
3060
3FE0
0000
7FF0
7F80
0380
FFF8
0700
1F00
ENDCHAR
STARTCHAR 4EAC
ENCODING 20140
SWIDTH 1040 0
DWIDTH 13 0
BBX 13 12 0 -2
BITMAP
0700
FFF8
0000
3FE0
3060
3FE0
3760
3740
0740
3760
6730
DF30
ENDCHAR
STARTCHAR 4EAD
ENCODING 20141
SWIDTH 1040 0
DWIDTH 13 0
BBX 13 12 0 -2
BITMAP
0700
FFF8
3060
3FE0
0000
7FF8
6018
5FF8
DFE0
0700
0700
1F00
ENDCHAR
STARTCHAR 4EAE
ENCODING 20142
SWIDTH 1040 0
DWIDTH 13 0
BBX 13 12 0 -2
BITMAP
0700
FFF8
18C0
1FC0
0000
7FF8
6018
58D8
D8C0
18D8
30D8
E078
ENDCHAR
STARTCHAR 4EB0
ENCODING 20144
SWIDTH 1040 0
DWIDTH 13 0
BBX 13 12 0 -2
BITMAP
0700
FFF8
0000
3FE0
3060
3FE0
3060
3060
3FE0
3760
6730
DF18
ENDCHAR
STARTCHAR 4EB3
ENCODING 20147
SWIDTH 1040 0
DWIDTH 13 0
BBX 13 12 0 -2
BITMAP
0700
FFF8
3060
3FE0
0000
7FF8
63D8
4318
DF00
07F0
FF18
03F8
ENDCHAR
STARTCHAR 4EB6
ENCODING 20150
SWIDTH 1040 0
DWIDTH 13 0
BBX 13 12 0 -2
BITMAP
0700
FFF8
7FF0
6FD0
68D0
6FD0
7FF0
7060
3060
3FE0
3060
FFF8
ENDCHAR
STARTCHAR 4EB9
ENCODING 20153
SWIDTH 1040 0
DWIDTH 13 0
BBX 13 12 0 -2
BITMAP
0700
FFF8
3FF0
68D0
7F70
6B50
7FF8
5068
D068
3FE0
3060
FFF8
ENDCHAR
STARTCHAR 4EBA
ENCODING 20154
SWIDTH 1040 0
DWIDTH 13 0
BBX 13 12 0 -2
BITMAP
0700
0700
0700
0700
0700
0780
0E80
0EC0
0EC0
18C0
3060
E038
ENDCHAR
STARTCHAR 4EBB
ENCODING 20155
SWIDTH 1040 0
DWIDTH 13 0
BBX 8 12 2 -2
BITMAP
03
03
0F
0E
1C
3C
EC
EC
1C
1C
1C
1C
ENDCHAR
STARTCHAR 4EBC
ENCODING 20156
SWIDTH 1040 0
DWIDTH 13 0
BBX 13 12 0 -2
BITMAP
0700
0700
0700
0700
0780
0E80
18C0
10E0
3060
E038
0000
FFF8
ENDCHAR
STARTCHAR 4EC0
ENCODING 20160
SWIDTH 1040 0
DWIDTH 13 0
BBX 13 12 0 -2
BITMAP
18C0
18C0
30C0
30C0
77F8
D0C0
30C0
30C0
30C0
30C0
30C0
30C0
ENDCHAR
STARTCHAR 4EC1
ENCODING 20161
SWIDTH 1040 0
DWIDTH 13 0
BBX 13 12 0 -2
BITMAP
1800
1800
37F0
3000
7000
D000
3000
3000
3000
3000
37F8
3000
ENDCHAR
STARTCHAR 4EC2
ENCODING 20162
SWIDTH 1040 0
DWIDTH 13 0
BBX 13 12 0 -2
BITMAP
1B80
1B80
37F8
3398
7398
D398
3398
3398
3398
3718
3718
3670
ENDCHAR
STARTCHAR 4EC3
ENCODING 20163
SWIDTH 1040 0
DWIDTH 13 0
BBX 13 12 0 -2
BITMAP
1800
1FF8
30C0
30C0
70C0
D0C0
30C0
30C0
30C0
30C0
30C0
37C0
ENDCHAR
STARTCHAR 4EC4
ENCODING 20164
SWIDTH 1040 0
DWIDTH 13 0
BBX 13 12 0 -2
BITMAP
7FF8
6380
6380
6380
6380
6380
6780
6740
6740
6740
CE60
D838
ENDCHAR
STARTCHAR 4EC6
ENCODING 20166
SWIDTH 1040 0
DWIDTH 13 0
BBX 13 12 0 -2
BITMAP
1B80
1B80
3380
3380
73E0
D3B8
3380
3380
3380
3380
3380
3380
ENDCHAR
STARTCHAR 4EC7
ENCODING 20167
SWIDTH 1040 0
DWIDTH 13 0
BBX 13 12 0 -2
BITMAP
1B80
1B80
3380
3FE0
73A0
D3A0
33A0
3320
3760
3768
3668
3838
ENDCHAR
STARTCHAR 4EC8
ENCODING 20168
SWIDTH 1040 0
DWIDTH 13 0
BBX 13 12 0 -2
BITMAP
1BE0
1860
3060
3760
7760
D760
3760
3770
3730
3630
3630
3818
ENDCHAR
STARTCHAR 4ECA
ENCODING 20170
SWIDTH 1040 0
DWIDTH 13 0
BBX 13 12 0 -2
BITMAP
0700
0700
0E80
18C0
37A0
E038
3FE0
3FC0
00C0
0380
0380
0700
ENDCHAR
STARTCHAR 4ECB
ENCODING 20171
SWIDTH 1040 0
DWIDTH 13 0
BBX 13 12 0 -2
BITMAP
0700
0E80
18C0
38E0
E8D8
18C0
18C0
18C0
18C0
30C0
30C0
60C0
ENDCHAR
STARTCHAR 4ECD
ENCODING 20173
SWIDTH 1040 0
DWIDTH 13 0
BBX 13 12 0 -2
BITMAP
1FE0
1B60
3760
3760
7778
D768
3718
3718
3718
3618
3618
3870
ENDCHAR
STARTCHAR 4ECE
ENCODING 20174
SWIDTH 1040 0
DWIDTH 13 0
BBX 13 12 0 -2
BITMAP
1860
1860
1860
1860
1860
1860
38E0
36D0
36D0
6EB0
6EB0
C718
ENDCHAR
STARTCHAR 4ECF
ENCODING 20175
SWIDTH 1040 0
DWIDTH 13 0
BBX 13 12 0 -2
BITMAP
18C0
18C0
30C0
30C0
7380
D380
33A0
33B0
33B0
3730
3768
3798
ENDCHAR
STARTCHAR 4ED0
ENCODING 20176
SWIDTH 1040 0
DWIDTH 13 0
BBX 13 12 0 -2
BITMAP
0700
0700
0E80
18C0
3760
E738
0700
07F8
FFF8
0700
0700
0700
ENDCHAR
STARTCHAR 4ED4
ENCODING 20180
SWIDTH 1040 0
DWIDTH 13 0
BBX 13 12 0 -2
BITMAP
1FF0
1830
3060
30C0
70C0
D7F8
30C0
30C0
30C0
30C0
30C0
37C0
ENDCHAR
STARTCHAR 4ED5
ENCODING 20181
SWIDTH 1040 0
DWIDTH 13 0
BBX 13 12 0 -2
BITMAP
18C0
18C0
30C0
30C0
77F8
D0C0
30C0
30C0
30C0
30C0
30C0
37F0
ENDCHAR
STARTCHAR 4ED6
ENCODING 20182
SWIDTH 1040 0
DWIDTH 13 0
BBX 13 12 0 -2
BITMAP
18C0
1B40
3758
3768
77D8
D758
3758
3750
3750
3700
3718
33F8
ENDCHAR
STARTCHAR 4ED7
ENCODING 20183
SWIDTH 1040 0
DWIDTH 13 0
BBX 13 12 0 -2
BITMAP
18C0
18C0
37F8
30C0
7740
D740
3680
3680
3380
3740
3760
3638
ENDCHAR
STARTCHAR 4ED8
ENCODING 20184
SWIDTH 1040 0
DWIDTH 13 0
BBX 13 12 0 -2
BITMAP
1830
1830
37F8
3030
7630
D730
33B0
33B0
33B0
3030
3030
30F0
ENDCHAR
STARTCHAR 4ED9
ENCODING 20185
SWIDTH 1040 0
DWIDTH 13 0
BBX 13 12 0 -2
BITMAP
18C0
18C0
30C0
36D8
76D8
D6D8
36D8
36D8
36D8
36D8
37F8
3618
ENDCHAR
STARTCHAR 4EDA
ENCODING 20186
SWIDTH 1040 0
DWIDTH 13 0
BBX 13 12 0 -2
BITMAP
0700
0700
0E80
18C0
3760
E738
0700
6730
6730
6730
7FF0
6030
ENDCHAR
STARTCHAR 4EDD
ENCODING 20189
SWIDTH 1040 0
DWIDTH 13 0
BBX 13 11 0 -1
BITMAP
0700
0E80
18C0
3060
E038
7FF0
0700
0700
0700
0700
FFF8
ENDCHAR
STARTCHAR 4EDE
ENCODING 20190
SWIDTH 1040 0
DWIDTH 13 0
BBX 13 12 0 -2
BITMAP
1BF8
18D8
30D8
30D8
7758
D758
36D8
3698
3398
3398
3718
3670
ENDCHAR
STARTCHAR 4EDF
ENCODING 20191
SWIDTH 1040 0
DWIDTH 13 0
BBX 13 12 0 -2
BITMAP
1830
18E0
37C0
30C0
70C0
D7F8
30C0
30C0
30C0
30C0
30C0
30C0
ENDCHAR
STARTCHAR 4EE1
ENCODING 20193
SWIDTH 1040 0
DWIDTH 13 0
BBX 13 12 0 -2
BITMAP
1B00
1B00
37F8
3600
7BF0
D060
30C0
3080
3380
3700
3618
37F8
ENDCHAR
STARTCHAR 4EE3
ENCODING 20195
SWIDTH 1040 0
DWIDTH 13 0
BBX 13 12 0 -2
BITMAP
18E0
18D0
30D0
30F8
7FC0
D0C0
30C0
30E8
3068
3068
3038
3018
ENDCHAR
STARTCHAR 4EE4
ENCODING 20196
SWIDTH 1040 0
DWIDTH 13 0
BBX 13 12 0 -2
BITMAP
0700
0E80
18C0
3060
EFD8
0000
7FF0
7F30
0730
0730
0760
0700
ENDCHAR
STARTCHAR 4EE5
ENCODING 20197
SWIDTH 1040 0
DWIDTH 13 0
BBX 13 12 0 -2
BITMAP
3030
3030
3030
3630
3730
3730
3060
3070
3070
36D8
3B98
E718
ENDCHAR
STARTCHAR 4EEB
ENCODING 20203
SWIDTH 1040 0
DWIDTH 13 0
BBX 13 12 0 -2
BITMAP
1B80
1B80
3740
3740
76C0
DB80
33A0
33B0
33B0
3730
3778
3FD8
ENDCHAR
STARTCHAR 4EED
ENCODING 20205
SWIDTH 1040 0
DWIDTH 13 0
BBX 13 12 0 -2
BITMAP
1FF0
1BB0
33B0
33B0
76B0
D7B0
3BD0
3B50
3770
3738
3630
38E0
ENDCHAR
STARTCHAR 4EEE
ENCODING 20206
SWIDTH 1040 0
DWIDTH 13 0
BBX 13 12 0 -2
BITMAP
1BF8
1B00
3700
37F0
7730
D730
37B0
37A0
3760
3760
36D0
3698
ENDCHAR
STARTCHAR 4EF0
ENCODING 20208
SWIDTH 1040 0
DWIDTH 13 0
BBX 13 12 0 -2
BITMAP
1B80
1F78
36D8
36D8
76D8
D6D8
36D8
37D8
3758
38D8
30C0
30C0
ENDCHAR
STARTCHAR 4EF1
ENCODING 20209
SWIDTH 1040 0
DWIDTH 13 0
BBX 13 12 0 -2
BITMAP
18C0
18C0
33A0
3730
76E8
D000
37F0
37F0
3030
3060
3060
30C0
ENDCHAR
STARTCHAR 4EF2
ENCODING 20210
SWIDTH 1040 0
DWIDTH 13 0
BBX 13 12 0 -2
BITMAP
18C0
18C0
37F8
36D8
76D8
D6D8
37F8
36D8
36D8
30C0
30C0
30C0
ENDCHAR
STARTCHAR 4EF5
ENCODING 20213
SWIDTH 1040 0
DWIDTH 13 0
BBX 13 12 0 -2
BITMAP
1B80
1B80
37F8
3740
76C0
D7F8
30C0
30C0
30C0
30C0
30C0
30C0
ENDCHAR
STARTCHAR 4EF6
ENCODING 20214
SWIDTH 1040 0
DWIDTH 13 0
BBX 13 12 0 -2
BITMAP
18C0
1B40
3740
37F8
76C0
D0C0
37F8
37C0
30C0
30C0
30C0
30C0
ENDCHAR
STARTCHAR 4EF7
ENCODING 20215
SWIDTH 1040 0
DWIDTH 13 0
BBX 13 12 0 -2
BITMAP
1B80
1BC0
3760
3770
7B68
D760
3760
3760
3760
3660
3660
3860
ENDCHAR
STARTCHAR 4EFB
ENCODING 20219
SWIDTH 1040 0
DWIDTH 13 0
BBX 13 12 0 -2
BITMAP
1830
1BE0
30C0
30C0
70C0
D7F8
30C0
30C0
30C0
30C0
30C0
37F0
ENDCHAR
STARTCHAR 4EFD
ENCODING 20221
SWIDTH 1040 0
DWIDTH 13 0
BBX 13 12 0 -2
BITMAP
18E0
1B60
3730
3630
7818
D7F0
33B0
33B0
33B0
3730
3630
38E0
ENDCHAR
STARTCHAR 4EFF
ENCODING 20223
SWIDTH 1040 0
DWIDTH 13 0
BBX 13 12 0 -2
BITMAP
18C0
18C0
37F8
3380
7380
D3F8
3398
3398
3398
3718
3730
36F0
ENDCHAR
STARTCHAR 4F00
ENCODING 20224
SWIDTH 1040 0
DWIDTH 13 0
BBX 13 12 0 -2
BITMAP
1BB0
1BB0
33B0
3718
7758
D6C0
33A0
33B0
33B0
3730
3778
37D8
ENDCHAR
STARTCHAR 4F01
ENCODING 20225
SWIDTH 1040 0
DWIDTH 13 0
BBX 13 12 0 -2
BITMAP
0700
0700
0E80
18C0
3760
E738
37E0
3700
3700
3700
3700
FFF8
ENDCHAR
STARTCHAR 4F03
ENCODING 20227
SWIDTH 1040 0
DWIDTH 13 0
BBX 13 12 0 -2
BITMAP
1BF0
1830
3760
33C0
77F8
D0D8
30D0
30D0
30C0
30C0
30C0
37C0
ENDCHAR
STARTCHAR 4F09
ENCODING 20233
SWIDTH 1040 0
DWIDTH 13 0
BBX 13 12 0 -2
BITMAP
18C0
18C0
37F8
3000
77E0
D760
3760
3760
3760
3768
3768
3638
ENDCHAR
STARTCHAR 4F0A
ENCODING 20234
SWIDTH 1040 0
DWIDTH 13 0
BBX 13 12 0 -2
BITMAP
1FF0
1BB0
33B0
3FF8
73B0
D3B0
37F0
3780
3380
3380
3700
3600
ENDCHAR
STARTCHAR 4F0B
ENCODING 20235
SWIDTH 1040 0
DWIDTH 13 0
BBX 13 12 0 -2
BITMAP
1FE0
1B60
3760
37F8
7718
D718
37B0
36D0
36D0
3660
38D0
3798
ENDCHAR
STARTCHAR 4F0D
ENCODING 20237
SWIDTH 1040 0
DWIDTH 13 0
BBX 13 12 0 -2
BITMAP
1FF0
1B80
3380
3380
7380
D7F0
3730
3730
3730
3730
3730
3FF8
ENDCHAR
STARTCHAR 4F0E
ENCODING 20238
SWIDTH 1040 0
DWIDTH 13 0
BBX 13 12 0 -2
BITMAP
18C0
18C0
37F8
30C0
77F0
D730
3760
3740
33C0
30C0
33A0
3738
ENDCHAR
STARTCHAR 4F0F
ENCODING 20239
SWIDTH 1040 0
DWIDTH 13 0
BBX 13 12 0 -2
BITMAP
1BA0
1BB0
33B0
3FF8
7380
D380
33C0
3340
3740
3760
3660
3838
ENDCHAR
STARTCHAR 4F10
ENCODING 20240
SWIDTH 1040 0
DWIDTH 13 0
BBX 13 12 0 -2
BITMAP
1BA0
1BB0
33F8
3780
73B0
D3B0
33A0
33E0
30C0
30D8
33B8
3718
ENDCHAR
STARTCHAR 4F11
ENCODING 20241
SWIDTH 1040 0
DWIDTH 13 0
BBX 13 12 0 -2
BITMAP
18C0
18C0
37F8
30C0
73E0
D3E0
3750
3750
3750
36D8
30C0
30C0
ENDCHAR
STARTCHAR 4F16
ENCODING 20246
SWIDTH 1040 0
DWIDTH 13 0
BBX 13 12 0 -2
BITMAP
1B80
1B80
37F8
3380
77F0
D730
37B0
36A0
36A0
38C0
33A0
3738
ENDCHAR
STARTCHAR 4F1A
ENCODING 20250
SWIDTH 1040 0
DWIDTH 13 0
BBX 13 12 0 -2
BITMAP
0700
0E80
38E0
E038
1FC0
0000
FFF8
F8C0
18C0
1860
37D0
FE18
ENDCHAR
STARTCHAR 4F1C
ENCODING 20252
SWIDTH 1040 0
DWIDTH 13 0
BBX 13 12 0 -2
BITMAP
1B80
1FE0
33A0
33A8
7768
D6D8
30C0
30F8
37F8
30C0
30C0
30C0
ENDCHAR
STARTCHAR 4F1D
ENCODING 20253
SWIDTH 1040 0
DWIDTH 13 0
BBX 13 12 0 -2
BITMAP
1BF0
1800
3000
3000
77F8
D380
3380
33A0
33A0
3730
37E8
3718
ENDCHAR
STARTCHAR 4F2F
ENCODING 20271
SWIDTH 1040 0
DWIDTH 13 0
BBX 13 12 0 -2
BITMAP
18C0
1B80
37F8
3618
7618
D7F8
3618
3618
3618
3618
37F8
3618
ENDCHAR
STARTCHAR 4F30
ENCODING 20272
SWIDTH 1040 0
DWIDTH 13 0
BBX 13 12 0 -2
BITMAP
18C0
18C0
37F8
30C0
70C0
D7F0
3730
3730
3730
3730
37F0
3730
ENDCHAR
STARTCHAR 4F34
ENCODING 20276
SWIDTH 1040 0
DWIDTH 13 0
BBX 13 12 0 -2
BITMAP
1ED8
1B58
3750
37F8
70C0
D0C0
37F8
37C0
30C0
30C0
30C0
30C0
ENDCHAR
STARTCHAR 4F36
ENCODING 20278
SWIDTH 1040 0
DWIDTH 13 0
BBX 13 12 0 -2
BITMAP
18C0
18C0
33A0
3730
76E8
D000
37F0
37B0
33B0
33B0
33E0
3380
ENDCHAR
STARTCHAR 4F37
ENCODING 20279
SWIDTH 1040 0
DWIDTH 13 0
BBX 13 12 0 -2
BITMAP
18C0
18C0
37F8
36D8
76D8
D7F8
36D8
36D8
36D8
36D8
37F8
3618
ENDCHAR
STARTCHAR 4F38
ENCODING 20280
SWIDTH 1040 0
DWIDTH 13 0
BBX 13 12 0 -2
BITMAP
18C0
18C0
37F8
36D8
77F8
D6D8
36D8
36D8
37F8
36D8
30C0
30C0
ENDCHAR
ENDFONT
